<?xml version="1.0" standalone="no"?>
<!DOCTYPE svg PUBLIC "-//W3C//DTD SVG 20010904//EN"
 "http://www.w3.org/TR/2001/REC-SVG-20010904/DTD/svg10.dtd">
<svg version="1.0" xmlns="http://www.w3.org/2000/svg"
 width="300.000000pt" height="300.000000pt" viewBox="0 0 300.000000 300.000000"
 preserveAspectRatio="xMidYMid meet">
<metadata>
Created by potrace 1.10, written by Peter Selinger 2001-2011
</metadata>
<g transform="translate(0.000000,300.000000) scale(0.100000,-0.100000)"
fill="#000000" stroke="none">
<path d="M1391 2974 c-23 -10 -38 -11 -51 -4 -29 16 -75 12 -93 -8 -23 -25
-21 -29 9 -36 14 -4 45 -25 70 -48 24 -22 44 -37 44 -33 0 4 7 2 15 -5 8 -7
15 -17 15 -22 0 -6 -7 -5 -15 2 -13 10 -12 7 2 -18 14 -24 20 -28 26 -17 9 16
2 31 -51 118 -19 31 -39 57 -45 57 -6 0 -8 3 -4 6 12 12 64 -36 82 -75 10 -23
22 -41 27 -41 12 0 11 2 -17 52 l-24 44 52 2 c94 4 126 -12 77 -38 -16 -8 -18
-8 -14 5 7 18 -26 21 -43 4 -8 -8 -13 -8 -17 0 -9 14 -26 14 -26 0 0 -16 31
-38 53 -39 9 0 17 -8 17 -17 1 -16 2 -16 12 2 11 19 11 19 19 0 7 -19 8 -19 8
1 1 12 10 33 21 46 19 25 19 25 -1 47 -12 12 -33 21 -52 22 -18 0 -39 2 -48 4
-8 1 -30 -3 -48 -11z m-90 -44 c6 0 7 5 4 10 -3 6 -4 10 -2 10 7 0 69 -91 64
-96 -2 -2 -16 11 -31 31 -15 19 -33 35 -40 35 -8 0 -19 7 -27 16 -10 13 -10
17 2 25 10 6 15 3 17 -11 2 -11 8 -20 13 -20z"/>
<path d="M1575 2967 c-10 -8 -15 -19 -11 -26 4 -6 -2 -23 -13 -37 -12 -15 -21
-32 -21 -38 0 -6 8 1 17 16 9 15 25 29 35 31 10 3 18 13 18 24 0 15 2 16 10 3
11 -16 14 -37 4 -27 -13 13 -61 -55 -78 -109 -7 -24 18 -42 30 -22 4 7 3 8 -4
4 -37 -22 11 57 58 97 40 34 41 35 21 49 -13 10 -17 18 -11 28 10 17 20 10 24
-17 2 -11 10 -17 22 -15 13 2 5 -11 -26 -41 -68 -65 -92 -99 -30 -41 82 75 85
77 109 64 12 -6 21 -19 21 -30 0 -17 -3 -18 -24 -9 -20 9 -29 7 -55 -12 -39
-28 -26 -47 17 -25 41 21 74 20 105 -4 14 -11 30 -20 36 -20 15 0 14 -43 -1
-58 -15 -15 -45 -16 -54 -1 -4 7 1 16 10 21 44 25 -7 65 -68 54 -64 -12 -127
-89 -76 -92 39 -3 41 -5 38 -31 -6 -57 -78 -32 -78 27 0 16 11 42 25 58 31 37
14 56 -19 22 -11 -13 -15 -20 -8 -16 15 9 16 -6 2 -20 -18 -18 -19 -75 -2
-111 15 -32 19 -34 52 -28 19 4 41 11 48 17 32 27 -8 106 -49 95 -33 -9 -21
12 19 31 50 26 84 33 102 22 13 -8 13 -11 -2 -22 -9 -7 -20 -33 -23 -58 -6
-40 -4 -48 19 -69 18 -17 36 -23 66 -23 50 1 68 14 76 57 5 26 1 41 -19 67
-13 18 -27 41 -30 51 -4 9 -18 22 -32 27 -15 6 -23 15 -20 20 4 6 1 18 -6 26
-10 12 -8 17 7 29 16 13 17 14 2 9 -14 -5 -18 -1 -18 15 0 19 3 20 21 10 12
-6 24 -20 26 -30 3 -10 13 -19 21 -19 13 0 12 -4 -5 -22 l-22 -21 22 -17 c12
-9 40 -20 62 -24 52 -10 112 -41 125 -65 13 -25 13 -61 -1 -61 -5 0 -8 -4 -5
-9 4 -5 0 -12 -6 -14 -8 -3 -6 -6 4 -6 11 -1 20 9 24 27 10 48 14 48 10 -1 -4
-47 -27 -87 -51 -87 -29 0 -65 52 -37 56 6 1 17 2 23 3 5 0 7 6 4 12 -4 5 1
19 10 29 16 18 17 21 1 45 -17 27 -74 60 -84 50 -4 -3 0 -10 8 -15 8 -6 11
-10 6 -10 -5 0 -1 -9 9 -20 10 -11 21 -17 25 -15 4 3 10 -1 13 -9 4 -9 -15
-33 -48 -62 -47 -42 -59 -48 -95 -47 -49 2 -45 -7 11 -23 34 -10 40 -10 35 2
-8 21 12 17 24 -6 6 -10 26 -27 45 -36 33 -15 37 -15 74 3 33 17 38 17 34 4
-4 -11 0 -9 10 4 8 10 13 26 10 35 -3 9 -2 11 4 4 4 -6 27 -14 49 -17 56 -9
108 24 112 71 2 24 8 32 22 32 18 0 63 -48 62 -67 0 -16 19 -43 31 -43 8 0 8
3 -2 9 -7 5 -10 14 -7 20 18 29 -30 106 -77 124 -19 7 -50 -20 -43 -38 3 -8
-2 -11 -15 -8 -26 7 -24 38 3 57 16 11 18 16 7 16 -44 0 -52 -59 -11 -89 l27
-20 -37 -1 c-48 0 -75 34 -61 77 18 55 116 60 172 10 36 -33 73 -125 65 -161
l-6 -30 27 18 c15 10 29 15 32 13 2 -3 -5 -10 -16 -16 -21 -12 -56 -69 -48
-77 3 -3 14 11 26 30 24 38 76 62 112 51 17 -6 19 -9 8 -16 -8 -5 -27 -9 -42
-9 -19 0 -38 -11 -58 -32 -42 -47 -36 -56 11 -14 45 40 67 44 100 18 18 -14
20 -21 11 -44 -5 -15 -19 -32 -31 -38 -24 -13 -24 -11 -5 26 10 20 11 32 3 41
-14 17 -43 16 -58 -2 -10 -13 -9 -15 12 -15 30 0 38 -7 31 -26 -4 -11 -10 -11
-26 -2 -17 9 -24 7 -40 -13 -15 -19 -18 -35 -15 -81 6 -78 44 -133 119 -172
69 -37 104 -32 111 15 4 27 3 29 -7 16 -16 -22 -25 -21 -25 1 0 24 31 52 57
52 26 0 53 -30 53 -59 0 -34 -46 -71 -90 -71 -90 0 -211 66 -253 139 -24 39
-35 195 -19 252 9 34 8 36 -10 31 -12 -3 -16 -8 -10 -14 6 -6 6 -23 0 -46 -6
-21 -7 -62 -3 -97 5 -33 9 -74 10 -92 1 -22 17 -52 48 -91 25 -33 44 -61 42
-64 -2 -2 4 -4 14 -5 10 -1 30 -13 44 -27 15 -14 32 -26 39 -26 7 1 2 7 -12
16 l-25 15 25 -7 c14 -4 37 -13 51 -20 16 -8 41 -11 63 -7 39 6 60 23 29 23
-12 0 -7 7 16 21 40 24 56 39 64 59 4 12 6 11 6 -3 1 -10 -12 -32 -28 -48 -16
-16 -25 -29 -20 -29 25 0 4 -17 -33 -27 -38 -10 -45 -17 -62 -58 -20 -49 -17
-73 13 -122 26 -41 81 -59 121 -38 26 14 28 13 32 -9 3 -17 1 -23 -8 -19 -7 3
-15 -8 -20 -29 -4 -18 -8 -35 -9 -38 -18 -63 -26 -74 -38 -50 -3 6 -4 5 -3 -2
2 -7 -10 -37 -26 -66 -15 -29 -28 -60 -28 -70 0 -9 11 6 24 33 13 28 41 69 63
91 22 23 50 62 62 86 23 49 28 117 9 122 -65 17 -73 22 -75 48 -2 34 18 51 51
42 64 -16 76 -152 22 -235 -22 -33 -24 -39 -8 -26 25 23 56 85 54 110 0 9 3
15 9 12 5 -4 9 -1 9 4 0 6 -4 11 -10 11 -5 0 -9 15 -8 33 2 56 -33 100 -89
110 -47 9 -71 -19 -63 -73 4 -34 15 -27 12 8 -3 27 1 42 13 52 15 12 15 11 4
-13 -15 -34 -4 -74 23 -83 19 -6 19 -7 5 -16 -32 -17 -87 33 -87 80 0 34 46
72 87 72 47 0 99 -51 108 -106 10 -58 13 -66 27 -58 10 6 10 4 0 -8 -7 -9 -12
-20 -10 -24 4 -18 -14 -54 -24 -48 -7 4 -8 2 -4 -4 9 -14 -70 -102 -93 -103
-12 0 -12 -2 -2 -6 7 -3 36 18 67 48 64 63 73 55 12 -9 -24 -25 -34 -40 -22
-34 11 6 26 18 34 26 7 9 18 16 24 16 6 0 -4 -13 -23 -29 -18 -16 -43 -29 -55
-29 -26 0 -101 -30 -93 -38 3 -3 14 -1 25 5 23 12 81 15 106 5 33 -13 14 -21
-44 -20 -51 1 -63 -2 -85 -25 -49 -49 -46 -155 7 -215 53 -61 71 -60 28 2 -54
77 -63 109 -46 159 18 54 70 82 121 65 36 -12 53 -44 41 -75 -8 -23 -53 -37
-76 -25 -16 8 -22 6 -36 -14 -22 -35 -11 -74 42 -142 47 -61 50 -74 12 -51
-15 9 -40 12 -70 9 -38 -3 -53 -10 -73 -34 -14 -16 -25 -42 -25 -58 0 -35 -13
-45 -41 -30 -14 8 -25 8 -31 2 -6 -6 0 -12 17 -16 35 -9 46 -42 29 -85 -16
-38 -18 -53 -4 -31 5 8 12 11 16 7 4 -4 -1 -17 -12 -29 -19 -22 -19 -22 0 -8
11 8 28 13 39 12 33 -6 88 8 81 20 -4 6 -3 8 3 5 14 -9 40 21 54 60 11 34 -1
73 -24 73 -8 0 -7 -4 3 -11 12 -8 11 -9 -5 -7 -11 2 -25 -3 -31 -11 -9 -12
-15 -13 -26 -3 -10 8 -18 8 -25 1 -21 -21 -36 2 -30 44 8 58 36 82 97 82 41 0
54 -5 77 -27 15 -16 22 -28 15 -28 -6 0 -12 4 -12 8 0 13 -47 32 -79 32 -29 0
-81 -33 -81 -51 0 -5 12 2 28 16 57 54 142 5 142 -83 0 -28 -9 -43 -55 -88
-58 -57 -60 -62 -17 -40 27 14 59 46 81 82 11 17 11 16 5 -6 -3 -14 -18 -37
-32 -53 -25 -26 -19 -39 7 -14 11 10 13 9 7 -1 -13 -23 -63 -42 -94 -36 -24 5
-31 2 -36 -14 -5 -14 -13 -18 -34 -15 l-27 4 25 -13 c39 -21 73 -92 66 -133
-7 -35 -38 -66 -66 -64 -9 0 -5 4 8 9 30 12 53 66 41 97 -17 46 -51 80 -92 93
-30 9 -37 14 -26 21 29 18 -37 9 -76 -11 -47 -24 -55 -20 -22 11 45 43 44 74
-2 99 -24 13 -24 6 3 -29 16 -20 16 -42 1 -47 -8 -3 -33 -30 -56 -60 -23 -30
-44 -52 -47 -50 -2 3 17 32 43 65 26 33 45 65 43 71 -2 6 -30 -29 -62 -77 -33
-48 -52 -82 -43 -74 24 19 21 -2 -3 -24 -11 -10 -20 -14 -20 -10 0 4 -44 -35
-98 -87 -53 -52 -120 -107 -147 -123 -28 -16 -56 -35 -64 -43 -7 -7 -20 -11
-28 -8 -8 3 -11 1 -8 -4 3 -6 0 -10 -8 -10 -7 0 -40 -11 -73 -24 -73 -30 -184
-42 -240 -27 -22 6 -53 25 -69 42 l-30 31 24 19 c38 31 104 18 72 -14 -9 -9
-17 -8 -32 1 -19 12 -19 11 -9 -7 18 -34 48 -44 119 -39 83 7 191 44 284 99
112 67 267 229 343 359 86 147 124 252 131 360 6 97 -4 130 -40 130 -20 -1
-20 -2 -4 -11 9 -5 17 -14 17 -19 0 -14 -44 -12 -58 2 -9 9 -12 8 -12 -4 0
-18 20 -28 57 -28 l26 0 -6 -72 c-6 -81 -34 -163 -101 -296 -49 -97 -132 -216
-145 -208 -5 3 -8 -1 -7 -8 2 -22 -128 -130 -229 -191 -65 -39 -115 -61 -180
-78 -86 -22 -141 -25 -130 -7 3 5 1 20 -5 34 -8 22 -16 26 -48 26 -21 0 -43
-5 -50 -12 -12 -12 -180 -19 -197 -8 -38 27 -114 7 -101 -26 23 -59 -196 -1
-340 91 -73 47 -188 156 -266 254 -99 123 -170 288 -182 424 -6 62 -5 63 23
45 27 -17 51 5 50 46 -1 22 -3 25 -6 9 -4 -22 -28 -37 -44 -27 -14 9 -10 22 9
28 9 2 4 4 -13 3 -22 -2 -31 -8 -36 -27 -28 -103 29 -297 138 -468 51 -78 146
-186 221 -247 187 -155 513 -245 512 -142 0 17 -2 19 -9 8 -5 -8 -16 -11 -26
-7 -24 9 -1 36 30 36 36 0 49 -23 33 -57 -31 -64 -140 -73 -284 -22 -49 17
-102 38 -118 46 -15 8 -25 10 -22 4 11 -17 1 -14 -73 24 -71 36 -139 48 -193
32 -39 -10 -34 5 7 25 27 14 41 15 62 8 l28 -10 -25 19 c-13 11 -27 19 -30 18
-3 0 -22 7 -42 15 -27 12 -42 28 -53 55 -19 46 -65 120 -116 188 -43 57 -61
98 -53 120 9 23 19 18 32 -17 21 -58 127 -212 198 -287 62 -66 138 -126 202
-160 40 -21 23 -5 -35 34 -123 82 -278 263 -348 408 l-34 68 -20 -20 c-25 -25
-21 -58 12 -105 22 -32 23 -32 -48 5 -61 32 -107 41 -140 29 -14 -5 -25 -6
-25 -1 0 4 -22 18 -49 31 -28 12 -63 37 -80 54 -26 27 -29 35 -22 66 7 34 7
34 14 9 4 -14 16 -38 29 -54 27 -35 105 -85 132 -85 13 0 -1 13 -40 36 -99 58
-125 130 -70 189 27 28 41 35 73 35 21 0 44 -5 51 -12 19 -19 14 -76 -8 -101
l-20 -21 11 32 c14 41 4 86 -17 78 -9 -3 -24 -6 -34 -6 -11 0 -29 -10 -42 -22
-13 -13 -17 -18 -8 -12 27 20 51 24 71 14 18 -10 26 -40 13 -53 -10 -10 -34 4
-34 20 0 9 -8 13 -22 11 -18 -2 -24 -11 -26 -37 -3 -27 3 -40 29 -67 18 -18
36 -31 41 -28 4 3 22 -8 39 -25 17 -17 36 -31 42 -31 7 1 -1 12 -18 25 -16 13
-26 27 -22 31 3 4 13 2 20 -4 8 -7 17 -9 20 -5 4 3 7 0 7 -9 0 -8 9 -23 20
-33 23 -21 26 -9 5 19 -8 11 -15 35 -15 53 0 27 5 35 26 44 15 5 29 7 32 4 3
-3 0 -5 -6 -5 -6 0 -19 -11 -27 -24 -18 -27 -8 -66 27 -103 28 -30 37 -21 31
27 -6 44 8 70 38 70 11 0 19 5 19 10 0 20 -40 9 -68 -18 l-28 -27 19 -33 c11
-18 17 -35 14 -38 -6 -6 -47 63 -47 80 0 8 9 20 20 27 19 13 20 16 5 79 -13
57 -14 60 -13 22 2 -38 -1 -45 -30 -62 -21 -13 -32 -27 -32 -43 0 -23 -1 -24
-44 -13 -51 13 -87 41 -79 62 7 19 19 18 42 -5 28 -28 69 -20 104 19 21 24 28
40 25 61 -3 16 -1 29 4 29 4 0 8 26 8 59 0 42 7 70 23 102 13 24 22 50 20 57
-3 6 0 12 7 12 6 0 8 -4 5 -10 -3 -5 -1 -10 5 -10 6 0 0 -14 -12 -31 -31 -41
-37 -162 -14 -243 9 -31 20 -56 25 -56 4 0 0 24 -10 52 -22 64 -24 166 -5 213
8 18 26 41 40 50 25 17 39 16 80 0 16 -7 17 -6 6 15 -9 16 -9 25 -1 33 19 19
12 31 -7 14 -10 -10 -29 -17 -41 -17 -25 0 -71 42 -71 65 0 31 -46 10 -68 -32
-7 -12 -16 -48 -21 -80 -5 -32 -12 -69 -16 -83 -7 -22 -6 -23 7 -10 20 20 39
78 28 85 -5 3 -6 13 -3 21 4 12 8 13 14 3 5 -9 10 -5 14 13 4 15 4 32 0 37
-11 18 7 12 20 -6 11 -15 9 -25 -10 -63 -32 -63 -43 -110 -34 -144 11 -41 2
-47 -12 -8 -7 21 -20 34 -36 38 -24 6 -84 -4 -128 -21 -12 -5 -1 13 28 43 40
43 48 58 45 84 -4 43 -30 58 -57 34 -21 -19 -21 -19 -21 4 0 17 -3 21 -10 14
-6 -6 -8 -18 -4 -27 6 -17 21 -21 57 -18 24 3 23 -45 -2 -58 -28 -16 -86 -100
-104 -151 l-15 -45 6 73 5 73 -34 -3 c-42 -4 -48 -24 -19 -69 20 -32 21 -32
16 -7 -3 14 -9 34 -12 45 -5 16 -4 16 10 -2 18 -22 20 -82 3 -132 -8 -24 -7
-43 5 -80 14 -45 19 -50 77 -74 33 -14 64 -28 67 -32 4 -3 -1 -24 -10 -47 -9
-22 -16 -54 -16 -71 0 -30 24 -88 38 -90 36 -8 83 -6 111 3 41 13 56 0 65 -54
6 -33 4 -38 -12 -38 -10 0 -28 -10 -40 -23 -32 -34 -27 -43 9 -13 35 29 55 32
83 11 19 -15 19 -15 -2 -15 -19 0 -62 -35 -62 -50 0 -21 52 -60 79 -60 36 0
86 42 95 80 6 23 5 24 -6 6 -28 -43 -58 -66 -86 -66 -57 0 -82 47 -39 74 14 9
20 7 28 -7 24 -42 71 -5 84 66 8 42 -27 130 -69 172 -31 31 -81 34 -96 5 -12
-23 -50 -27 -50 -5 0 8 3 14 8 13 9 -3 52 24 52 33 0 3 -13 4 -29 1 -42 -6
-56 -42 -28 -71 28 -28 6 -28 -39 0 -39 24 -44 19 -12 -11 26 -24 88 -28 88
-6 0 8 4 18 10 21 14 9 12 -8 -3 -28 -6 -9 -26 -19 -43 -23 -43 -8 -98 37 -89
75 10 42 59 81 104 81 60 0 96 -10 126 -35 42 -37 100 -119 115 -165 19 -57
55 -91 89 -84 25 5 25 5 7 -10 -26 -21 -38 -20 -70 5 l-26 20 0 -26 c0 -76
-59 -135 -136 -137 -59 -1 -87 26 -82 81 2 30 9 39 38 53 37 18 28 25 -12 9
-45 -18 -75 -56 -70 -90 5 -35 49 -84 69 -77 8 3 12 2 9 -3 -6 -9 16 -21 37
-21 7 0 6 5 -3 11 -11 8 -7 9 17 4 20 -4 42 -1 61 9 l30 15 6 -44 c5 -30 17
-54 39 -76 18 -18 23 -27 12 -19 -18 14 -19 14 -7 -1 9 -12 24 -16 55 -13 35
3 38 2 17 -6 -23 -9 -22 -9 8 -5 30 4 72 28 116 68 22 19 27 20 50 11 16 -6
41 -78 32 -93 -8 -12 -19 -72 -20 -106 -1 -30 -1 -30 64 -35 56 -4 74 -11 130
-49 63 -42 67 -43 130 -39 36 3 75 11 86 18 25 15 70 102 79 153 4 22 12 34
19 31 7 -3 23 3 36 14 20 16 21 21 10 43 -24 47 -51 69 -71 59 -28 -16 -160 0
-188 22 -13 10 -33 18 -45 18 -12 0 -26 4 -31 9 -6 5 -21 12 -35 16 -21 7 -23
6 -13 -6 8 -10 9 -20 3 -29 -8 -13 -10 -13 -10 1 0 8 -16 30 -35 49 -19 18
-33 35 -32 36 2 2 25 -8 52 -21 26 -14 58 -25 70 -25 12 0 25 -3 29 -7 15 -16
94 -39 140 -42 73 -4 121 21 140 73 l15 41 -6 -40 c-3 -21 -15 -48 -27 -58
-17 -15 -18 -18 -3 -13 9 3 17 2 17 -2 0 -4 13 -22 29 -40 33 -36 88 -44 111
-17 11 13 15 13 21 3 12 -18 11 -40 -1 -33 -17 10 -11 -11 10 -38 12 -14 27
-24 34 -21 9 3 13 -6 14 -31 2 -41 12 -63 59 -124 29 -39 32 -46 18 -54 -12
-6 -23 -3 -37 10 -11 10 -23 17 -26 15 -4 -2 -8 2 -11 9 -2 7 1 9 9 4 9 -6 11
-4 6 4 -5 7 -10 10 -13 7 -3 -3 -14 5 -24 17 -28 34 -22 13 12 -43 29 -48 33
-51 63 -45 17 4 38 15 46 24 17 19 74 35 63 18 -4 -6 14 -8 49 -5 38 3 79 17
134 45 43 23 98 46 120 52 23 6 45 19 48 28 4 9 -5 37 -19 65 -14 27 -20 48
-14 48 7 0 9 8 4 23 -4 12 -7 30 -7 39 1 9 -6 19 -14 22 -8 3 -14 2 -14 -3 0
-5 -10 -11 -22 -14 -19 -5 -17 -1 12 24 35 30 61 40 41 15 -13 -15 4 -26 39
-26 10 0 29 -13 42 -29 33 -38 61 -52 109 -53 60 -1 109 54 109 122 0 29 2 30
43 30 64 0 104 24 118 69 9 32 8 42 -11 76 -14 24 -19 47 -15 62 6 24 7 24 79
18 l73 -7 26 32 c31 36 39 116 13 126 -9 3 -12 12 -9 21 4 11 2 14 -5 9 -8 -5
-10 -2 -6 8 3 9 14 16 23 16 10 0 38 16 63 35 39 30 46 42 52 81 3 25 2 53 -3
62 -8 15 -1 81 13 132 3 8 5 20 5 27 1 7 14 28 31 46 16 19 30 38 30 41 0 4
-12 11 -26 16 -18 7 -24 15 -20 26 4 10 -1 22 -10 29 -16 11 -15 14 6 43 21
29 22 35 11 72 -7 23 -21 49 -32 58 -24 21 -24 30 3 51 24 20 48 89 48 141 0
39 -39 157 -65 196 -9 14 -21 22 -27 18 -7 -4 -8 -3 -4 4 4 7 -7 18 -31 29
-21 10 -39 18 -41 19 -2 1 6 17 17 35 25 40 27 79 6 119 -36 69 -99 68 -197
-2 -14 -10 -24 -9 -52 5 -27 12 -34 13 -30 3 3 -8 27 -24 54 -35 52 -22 65
-35 55 -51 -9 -14 -74 22 -112 62 -38 39 -54 88 -29 88 9 0 16 -6 16 -14 0 -8
4 -18 10 -21 6 -4 7 5 4 23 -5 26 -2 30 34 45 122 49 104 201 -26 209 -40 3
-47 6 -45 23 4 35 -5 47 -26 36 -16 -9 -21 -5 -36 34 -42 112 -182 158 -265
88 l-31 -26 -27 26 c-35 32 -103 66 -142 70 -39 5 -44 11 -46 54 -1 53 -43 86
-98 79 -29 -4 -35 -3 -21 3 27 13 3 13 -30 1 -14 -5 -23 -14 -20 -20 13 -21
-16 -9 -37 15 -24 28 -64 33 -93 12z m205 -72 c0 -19 -4 -35 -10 -35 -5 0 -10
11 -10 23 0 15 -9 28 -22 35 -22 10 -21 11 10 11 30 1 32 -1 32 -34z m81 -181
c-12 -26 -47 -32 -82 -14 -30 16 -23 30 16 30 24 0 39 6 47 20 11 17 14 18 21
4 6 -10 5 -26 -2 -40z m285 8 c-8 -16 -13 -32 -10 -35 3 -3 7 -13 8 -24 3 -19
40 -43 69 -43 11 0 15 -5 11 -11 -9 -15 -60 -3 -92 21 l-26 21 -18 -35 c-10
-20 -27 -40 -37 -46 -48 -25 -111 2 -111 48 l0 27 20 -32 c24 -40 57 -43 96
-9 22 18 28 32 28 65 1 35 4 41 19 37 9 -2 15 -1 12 3 -5 9 35 55 42 48 2 -3
-2 -18 -11 -35z m-262 -37 c-14 -35 -91 -48 -114 -20 -16 19 -5 34 12 17 17
-17 63 -15 78 3 16 19 31 19 24 0z m700 -227 c-8 -29 -33 -58 -50 -58 -8 0 -3
10 11 25 14 13 25 31 25 40 0 8 5 15 11 15 6 0 8 -9 3 -22z m150 -183 c14 -13
26 -29 26 -36 0 -6 -9 0 -20 14 -16 20 -27 24 -56 22 -20 -2 -42 -9 -47 -14
-13 -13 -27 -14 -27 -2 0 11 59 40 81 41 9 0 28 -11 43 -25z m26 -195 c0 -5
-9 -10 -19 -10 -27 0 -81 -54 -82 -82 -2 -39 1 -52 23 -82 13 -18 16 -27 7
-24 -22 7 -59 68 -59 97 0 41 35 89 72 100 45 13 58 13 58 1z m-2295 -493 c16
-25 30 -33 60 -38 l40 -6 -38 -2 c-40 -1 -64 15 -86 57 -18 34 1 26 24 -11z
m2415 -45 c0 -18 -42 -52 -63 -51 -18 0 -16 3 11 15 18 8 35 21 38 29 7 16 14
20 14 7z m-75 -77 c-41 -15 -51 -14 -40 4 3 6 23 11 43 11 l37 -1 -40 -14z
m56 -33 c-6 -12 -11 -45 -11 -74 l-1 -53 -29 35 c-30 36 -62 92 -55 98 4 4 99
19 103 16 2 -1 -1 -11 -7 -22z m-2507 -83 c14 -17 26 -42 26 -56 0 -27 -35
-83 -51 -83 -6 0 -3 10 5 22 22 31 20 80 -4 106 -26 28 -74 29 -117 2 -18 -11
-33 -15 -33 -10 0 16 73 49 112 50 29 0 42 -6 62 -31z m2325 -209 c14 0 38 7
54 14 30 16 32 14 16 -16 -20 -36 -63 -68 -89 -65 -21 2 -25 7 -26 37 0 19 -4
44 -8 55 -6 17 -5 17 10 -2 10 -14 27 -23 43 -23z m-2236 -120 c9 -10 9 -11
-1 -6 -24 14 -101 8 -132 -10 -16 -10 -39 -36 -51 -59 l-20 -40 6 35 c10 51
20 65 57 84 38 19 122 17 141 -4z m2217 -79 c35 -34 46 -74 31 -107 -20 -45
-101 -21 -101 30 1 19 2 19 11 4 5 -10 15 -18 20 -18 6 0 7 6 2 12 -4 7 -7 22
-8 33 0 17 -8 21 -45 23 -38 2 -53 -2 -87 -27 -59 -43 -91 -89 -93 -136 -4
-55 -2 -67 10 -60 5 3 7 0 4 -8 -4 -11 1 -15 19 -13 16 0 23 6 19 14 -7 20 38
11 52 -10 7 -11 7 -26 0 -45 -21 -62 -122 -31 -154 48 l-13 31 -23 -29 c-12
-15 -20 -32 -16 -37 3 -5 -5 -6 -19 -2 -69 19 -79 18 -153 -17 -45 -22 -85
-50 -104 -72 -18 -23 -32 -33 -36 -26 -9 14 -56 14 -76 0 -12 -8 -10 -9 7 -4
28 8 83 -23 83 -46 0 -28 -11 -49 -22 -43 -6 4 -4 -4 3 -17 13 -23 13 -23 24
21 23 100 119 170 234 170 93 0 128 -23 138 -92 5 -34 -28 -59 -68 -51 -17 3
-29 1 -29 -5 0 -5 18 -9 41 -8 36 2 39 1 23 -11 -36 -26 -84 -10 -84 29 0 20
28 37 50 31 8 -3 4 5 -10 17 -19 15 -34 20 -62 16 l-38 -4 23 18 c16 13 24 15
29 7 4 -7 8 -8 8 -3 0 5 7 3 15 -4 8 -6 18 -9 23 -6 16 10 43 -29 35 -50 -7
-18 -6 -18 11 -1 17 16 17 19 1 43 -28 43 -143 78 -129 39 7 -17 -7 -20 -23
-4 -7 7 -10 2 -9 -18 1 -21 -4 -28 -19 -30 -11 -2 -14 0 -7 3 6 3 10 10 6 15
-7 12 -55 12 -52 -1 2 -5 -13 -17 -32 -27 -40 -20 -61 -57 -68 -120 l-5 -43
-23 25 c-25 27 -70 33 -107 14 -21 -12 -21 -12 -4 14 14 22 14 25 2 21 -9 -4
-15 0 -15 8 0 27 -50 43 -124 41 -70 -2 -116 13 -116 38 0 5 10 3 22 -5 12 -9
38 -16 58 -15 l35 1 -39 9 c-22 5 -45 14 -52 20 -16 13 -37 2 -30 -16 2 -7 0
-17 -5 -22 -17 -17 11 -63 38 -63 30 0 29 8 -2 20 -14 5 -25 14 -25 20 0 13
17 13 26 -1 4 -7 25 -9 58 -6 64 7 126 -3 137 -23 4 -8 10 -27 13 -42 6 -25 8
-26 36 -17 40 14 120 -22 120 -54 0 -20 -1 -20 -27 5 -34 30 -67 40 -99 28
-15 -6 -24 -6 -24 0 0 6 -4 10 -9 10 -16 0 -18 -69 -3 -84 13 -13 12 -18 -9
-44 -36 -43 -66 -55 -95 -35 -31 20 -30 24 4 17 39 -8 82 27 66 53 -6 10 -20
23 -30 28 -41 22 -45 26 -35 39 6 7 8 16 5 19 -14 13 7 57 27 57 16 0 18 -3 9
-20 -8 -15 -6 -21 10 -30 21 -11 40 -6 40 11 0 5 -7 9 -16 7 -10 -2 -19 3 -21
10 -3 6 0 12 6 12 6 0 8 7 5 15 -4 8 -14 15 -23 15 -23 0 -63 -29 -55 -41 3
-5 0 -8 -8 -7 -9 2 -14 -10 -16 -35 -4 -43 20 -80 44 -70 20 8 17 -14 -3 -26
-10 -6 -13 -11 -6 -11 6 0 15 5 18 10 3 6 13 10 22 10 14 0 14 -3 -2 -20 -22
-24 -48 -19 -86 17 -18 17 -25 31 -21 45 3 13 -1 24 -12 30 -13 7 -16 17 -12
34 6 22 4 24 -12 15 -14 -7 -24 -6 -38 4 -18 13 -17 14 16 16 24 1 28 3 12 6
-28 5 -59 60 -43 76 6 6 11 19 11 29 0 10 5 18 10 18 6 0 3 12 -7 28 l-17 27
25 -21 c51 -45 88 -57 164 -51 108 8 296 85 401 164 17 12 34 20 39 15 5 -4 5
-2 1 5 -7 13 47 56 58 45 4 -4 6 -2 4 5 -3 12 72 117 79 109 2 -2 -2 -17 -10
-33 -8 -15 -12 -34 -10 -40 3 -7 -2 -16 -11 -19 -8 -3 -12 -12 -9 -20 7 -19
21 -18 26 4 3 10 5 5 6 -12 3 -66 70 -126 107 -95 13 10 17 10 24 0 6 -11 8
-11 12 0 10 29 -3 39 -25 19 -27 -26 -43 -25 -72 5 -21 20 -25 34 -25 83 0 47
5 67 29 103 54 85 109 119 189 119 46 0 58 -4 82 -29z m-2137 -81 c28 -41 37
-63 37 -95 0 -23 -3 -44 -6 -48 -3 -3 -21 4 -40 16 -34 22 -46 41 -19 31 15
-6 20 11 15 45 -2 14 -34 63 -57 89 -7 7 -13 20 -13 29 0 26 40 -6 83 -67z
m-47 -17 c28 -32 31 -58 8 -67 -23 -9 -24 -8 -24 14 0 11 5 20 12 20 6 0 -4
14 -22 30 -26 23 -30 30 -15 30 10 0 28 -12 41 -27z m2088 19 c3 -5 -12 -22
-34 -38 -21 -16 -45 -40 -52 -54 -12 -25 -43 -60 -52 -60 -2 0 9 26 25 58 38
75 95 122 113 94z m-26 -82 c3 -9 -1 -11 -13 -6 -14 5 -16 4 -6 -8 9 -11 8
-15 -5 -20 -28 -11 -38 9 -18 33 20 23 35 23 42 1z m-95 -7 c-9 -26 -43 -68
-43 -54 0 19 29 71 40 71 5 0 6 -8 3 -17z m87 -73 c12 -12 20 -33 20 -55 0
-41 -27 -64 -86 -70 l-39 -5 32 10 c18 6 40 23 48 38 15 25 16 26 11 3 -4 -18
-2 -21 7 -12 9 9 6 23 -14 61 -29 54 -18 69 21 30z m-1883 -21 c-4 -16 -3 -18
9 -8 24 20 15 -2 -15 -36 -16 -18 -31 -39 -33 -47 -3 -7 -9 -10 -13 -6 -4 4 4
23 18 41 14 19 24 37 20 40 -7 7 4 37 13 37 3 0 4 -9 1 -21z m1740 -79 c18
-22 16 -35 -4 -19 -15 13 -15 12 -5 -8 7 -12 12 -30 12 -40 -1 -11 -7 -5 -15
16 -8 18 -13 37 -10 42 3 4 -2 13 -12 18 -38 22 -55 40 -48 51 7 11 47 -19 82
-60z m-1726 5 c-17 -20 -31 -47 -31 -61 0 -39 28 -74 59 -74 29 1 61 21 61 39
0 6 5 11 10 11 16 0 12 -15 -11 -44 -29 -37 -91 -37 -116 1 -28 42 -23 97 12
133 40 42 54 38 16 -5z m230 6 c16 -12 33 -21 39 -21 20 0 103 -77 96 -89 -3
-4 4 -18 14 -31 19 -24 19 -24 13 -2 -4 17 -2 21 10 16 8 -3 18 0 23 7 4 8 3
10 -4 5 -7 -4 -12 -3 -12 3 0 16 21 24 33 12 6 -6 20 -11 32 -11 11 -1 30 -6
43 -14 21 -11 22 -14 8 -25 -22 -19 -20 -51 6 -78 33 -35 75 -26 61 14 -4 9
-8 9 -19 -2 -18 -17 -41 -10 -49 16 -13 40 11 49 111 47 87 -3 92 -4 77 -20
-15 -17 -14 -18 5 -18 12 0 22 5 22 10 0 6 5 10 11 10 6 0 9 -7 5 -15 -3 -9 1
-15 11 -15 13 0 13 -3 3 -15 -16 -19 -68 -11 -89 13 -15 18 -14 17 12 -48 15
-40 -28 -122 -70 -134 -23 -6 -37 -5 -48 4 -19 16 -19 46 0 54 8 3 15 1 15 -4
0 -6 11 -10 24 -10 30 0 56 34 56 74 0 33 -43 86 -69 86 -11 0 -5 -10 17 -31
26 -25 32 -38 30 -63 -3 -30 -5 -31 -47 -31 -39 0 -46 -3 -52 -25 -5 -18 -7
-11 -6 24 0 43 -4 53 -31 78 -36 32 -60 35 -102 13 -37 -19 -51 -45 -52 -95
l0 -39 -29 14 c-34 18 -61 19 -77 3 -6 -6 -14 -9 -17 -6 -10 9 25 38 46 38 11
0 29 -5 39 -10 15 -8 19 -7 17 10 -1 10 -3 17 -5 15 -3 -2 -14 2 -26 10 -11 8
-30 16 -41 16 -19 1 -19 2 -1 6 15 4 16 7 5 14 -11 7 -9 9 6 9 11 0 30 -7 42
-15 13 -9 24 -11 28 -6 6 11 -50 56 -80 64 -11 3 1 5 26 4 46 -2 46 -2 31 21
-14 22 -57 40 -69 29 -3 -4 -15 0 -27 8 -11 8 -33 15 -48 15 -18 0 -29 6 -33
20 -4 11 -10 18 -15 15 -9 -6 -25 33 -17 41 2 3 16 0 31 -5 23 -10 31 -21 27
-44 -2 -13 51 -29 99 -31 41 -1 47 -5 80 -49 38 -51 54 -47 23 6 -10 17 -36
41 -56 52 -20 11 -37 26 -37 33 0 15 -5 15 -30 0 -28 -18 -48 3 -25 26 21 21
6 21 -24 0 -22 -16 -23 -15 -19 2 2 11 15 21 33 25 27 6 26 9 -4 13 -5 0 -13
4 -17 9 -12 11 -77 8 -104 -6 -28 -14 -42 -51 -16 -41 9 3 16 2 16 -4 0 -12
-47 -25 -60 -17 -5 3 -7 13 -4 23 5 14 3 14 -10 -2 -20 -25 -20 -29 3 -50 19
-17 47 -14 36 4 -7 11 12 23 25 15 21 -13 -10 -45 -44 -45 -26 0 -35 6 -45 27
-18 39 2 77 52 103 53 27 145 23 188 -9z m659 1 c22 -14 26 -24 25 -68 0 -62
-23 -94 -67 -94 -77 0 -107 132 -38 167 34 17 50 16 80 -5z m710 -97 c0 -8 -7
-15 -15 -15 -18 0 -17 3 -5 -39 7 -24 6 -31 -1 -24 -6 6 -12 18 -13 27 -1 10
-8 21 -16 26 -9 6 -7 10 9 15 11 3 21 11 21 16 0 5 5 9 10 9 6 0 10 -7 10 -15z
m130 -24 c0 -20 -45 -81 -60 -81 -5 0 5 13 21 29 16 16 29 39 29 50 0 12 2 21
5 21 3 0 5 -9 5 -19z m-365 -83 l-6 -33 26 33 c27 33 55 43 55 19 0 -8 -12
-24 -26 -38 -14 -13 -30 -33 -36 -44 -6 -11 4 -5 21 14 18 18 35 31 38 27 4
-3 -2 -13 -13 -21 -19 -14 -19 -14 1 -15 16 0 13 -4 -13 -20 -21 -13 -35 -31
-39 -50 -10 -54 -18 -31 -17 53 1 96 2 107 10 107 3 0 3 -15 -1 -32z m-851
-44 c22 -21 20 -27 -3 -14 -54 29 -111 -11 -111 -77 0 -20 -4 -32 -10 -28 -5
3 -10 24 -10 46 0 52 35 89 84 89 19 0 42 -7 50 -16z m6 -39 c8 -10 9 -19 4
-24 -14 -13 -64 -22 -64 -12 0 5 15 12 33 14 32 4 32 4 -5 5 -40 2 -64 -22
-55 -56 3 -12 5 -10 6 6 1 14 6 22 14 19 6 -2 11 -15 10 -28 l-2 -24 12 25 c7
15 22 26 37 28 20 2 22 0 10 -8 -13 -8 -12 -11 7 -16 11 -3 24 -15 26 -26 5
-18 12 -20 58 -16 44 5 50 3 35 -7 -21 -16 -98 -8 -109 12 -5 7 -13 11 -18 7
-13 -8 8 -34 27 -34 8 0 14 -4 14 -10 0 -16 -18 -12 -39 9 -12 12 -17 27 -14
40 3 12 1 21 -4 21 -19 0 -21 -12 -7 -46 14 -34 14 -35 -5 -24 -11 5 -23 15
-26 20 -4 6 -10 8 -15 5 -13 -8 -40 36 -40 65 0 41 26 70 64 70 19 0 39 -7 46
-15z m781 -14 c29 -30 37 -55 19 -66 -5 -3 -12 6 -16 20 -3 14 -13 25 -23 25
-10 0 -12 -3 -5 -8 26 -18 26 -72 -1 -72 -7 0 -18 -7 -25 -15 -19 -22 -32 -18
-25 8 l7 22 -17 -22 c-9 -13 -25 -23 -35 -23 -16 0 -15 4 10 31 23 26 26 35
17 50 -15 24 7 49 42 49 19 0 22 3 12 9 -10 6 -25 4 -43 -5 -30 -16 -40 -2
-10 15 30 18 63 12 93 -18z m164 -11 c0 -14 -73 -46 -83 -36 -3 3 3 17 12 31
13 19 24 25 44 23 16 -2 27 -9 27 -18z"/>
<path d="M2641 930 c23 -19 23 -21 6 -34 -16 -13 -16 -14 -1 -20 10 -4 21 -1
25 6 10 15 -21 68 -39 68 -9 0 -5 -8 9 -20z"/>
<path d="M2248 713 c-23 -6 -23 -39 -2 -47 9 -4 19 -4 22 -1 3 3 1 5 -5 5 -6
0 -14 8 -18 18 -5 14 -4 15 6 5 17 -17 34 -17 20 0 -6 8 -8 17 -4 20 3 4 4 6
2 6 -2 -1 -12 -3 -21 -6z"/>
<path d="M1845 493 c-16 -16 -16 -18 5 -35 26 -21 59 -23 85 -5 29 22 11 36
-32 26 -49 -11 -55 -11 -48 1 3 5 20 14 38 19 l32 9 -32 1 c-17 1 -39 -7 -48
-16z"/>
<path d="M1114 480 c-37 -15 -36 -36 2 -37 19 -1 37 3 40 8 3 5 -7 9 -23 9
l-28 1 25 14 c27 16 18 19 -16 5z"/>
<path d="M1456 526 c8 -39 22 -56 45 -56 26 0 49 28 48 58 l-1 27 -10 -27
c-10 -28 -23 -33 -52 -22 -27 10 -19 33 9 28 14 -2 25 0 25 5 0 5 -16 11 -35
13 -35 4 -36 4 -29 -26z"/>
<path d="M1887 293 c-13 -12 -7 -23 13 -23 10 0 24 -8 29 -17 6 -10 11 -13 11
-6 0 6 -9 18 -20 26 -11 8 -17 17 -13 20 3 4 2 7 -4 7 -5 0 -13 -3 -16 -7z"/>
<path d="M1137 2939 c-27 -7 -66 -44 -67 -63 0 -5 8 -19 18 -30 14 -18 14 -19
0 -8 -14 11 -17 10 -22 -6 -4 -11 -19 -22 -35 -25 -16 -4 -45 -20 -64 -37 -19
-16 -39 -30 -43 -30 -5 0 -27 12 -48 26 -33 22 -46 26 -95 22 -80 -6 -156 -60
-146 -105 4 -17 -2 -25 -22 -35 -16 -8 -27 -21 -27 -30 1 -11 -10 -18 -37 -22
-52 -8 -99 -50 -99 -87 0 -42 25 -86 60 -104 36 -18 40 -19 40 -2 0 8 10 22
21 33 l22 19 -6 -55 c-8 -67 -47 -126 -102 -156 -46 -25 -125 -40 -125 -24 0
5 7 10 16 10 10 0 13 6 10 18 -5 16 -2 18 21 15 16 -3 37 2 48 11 19 14 19 15
-10 25 -16 6 -42 17 -57 25 -15 8 -46 13 -73 11 -86 -5 -126 -75 -87 -152 11
-22 28 -45 36 -52 23 -19 20 -40 -6 -50 -32 -12 -76 -59 -99 -102 -10 -20 -25
-39 -32 -42 -18 -7 -32 -94 -18 -110 5 -7 6 -19 1 -26 -13 -22 19 -100 47
-114 l24 -13 -35 -43 c-43 -51 -55 -104 -34 -142 10 -16 12 -31 7 -36 -16 -16
15 -47 37 -38 12 5 15 9 7 12 -26 9 -12 18 28 18 28 0 45 5 52 17 14 21 2 35
-16 20 -23 -20 -62 9 -62 45 0 17 -3 29 -7 26 -16 -9 -7 -57 14 -80 16 -18 18
-23 6 -23 -21 0 -48 33 -48 59 0 68 75 118 139 92 41 -18 66 -72 52 -114 -6
-17 -21 -41 -33 -54 l-21 -23 21 0 c31 0 62 46 62 92 0 108 -144 164 -210 81
-23 -29 -28 -18 -5 13 45 65 138 61 200 -7 19 -22 35 -35 35 -29 0 5 -17 27
-37 48 -28 28 -53 43 -90 53 -29 7 -53 17 -53 22 0 5 9 7 20 4 11 -3 18 -1 14
4 -3 5 -12 9 -19 9 -9 0 -12 6 -9 15 5 12 15 8 46 -20 38 -35 67 -42 59 -14
-2 8 -6 23 -9 33 -3 12 -1 17 6 13 5 -4 12 -2 14 5 8 23 35 -14 30 -41 l-5
-25 28 22 c15 12 39 22 54 21 l26 -1 -29 -8 c-15 -5 -36 -16 -46 -25 -22 -20
-34 -58 -17 -52 7 3 11 9 10 14 -2 10 12 14 62 15 29 1 29 1 7 11 -17 8 -29 7
-44 -2 -16 -10 -19 -10 -16 1 3 7 22 18 44 23 l39 10 1 65 c0 62 33 178 70
251 17 33 7 46 -41 51 -22 3 -48 8 -58 12 -10 5 -17 4 -17 -2 0 -5 11 -13 25
-16 14 -4 24 -10 23 -14 0 -4 4 -18 11 -32 l11 -25 -3 28 c-4 22 -2 25 10 15
8 -6 13 -7 11 -2 -3 9 4 14 22 14 6 0 4 -10 -4 -22 -25 -38 -75 -186 -78 -228
-3 -40 -11 -50 -23 -29 -5 7 -15 5 -31 -5 -34 -23 -51 -20 -23 4 13 10 19 19
12 20 -6 0 -13 -4 -15 -8 -5 -13 -78 -23 -78 -10 0 16 -34 55 -46 51 -6 -2
-18 15 -27 37 -14 37 -14 42 0 47 10 4 24 -5 40 -26 24 -30 70 -61 92 -61 5 0
24 15 41 33 31 32 67 128 55 147 -3 5 -4 10 -1 10 3 0 12 -12 19 -26 9 -17 17
-23 21 -15 4 6 2 11 -3 11 -6 0 -11 6 -11 13 0 7 -15 28 -33 45 -26 25 -33 29
-32 15 1 -10 7 -28 13 -40 14 -26 15 -33 3 -33 -8 0 -22 30 -25 55 -5 31 -40
65 -67 65 -16 0 -29 5 -29 10 0 13 31 13 64 0 18 -7 25 -6 23 2 -3 15 48 28
87 22 20 -3 25 -2 14 3 -14 7 -11 10 17 19 24 8 38 8 42 1 4 -6 1 -7 -7 -2 -8
5 -11 4 -7 -2 7 -12 -26 -38 -58 -46 -17 -4 -17 -5 3 -6 13 0 20 -5 17 -11 -4
-6 6 -10 22 -10 20 0 24 3 14 9 -11 7 -8 16 15 47 16 21 23 35 17 30 -7 -4
-13 -3 -13 3 0 5 6 14 13 18 7 4 39 40 70 79 67 85 101 114 134 114 29 0 153
79 153 98 0 7 4 11 10 7 5 -3 33 8 62 24 134 76 303 104 373 62 34 -20 35 -20
25 -1 -34 63 -205 43 -406 -46 -6 -3 -19 7 -28 21 -17 26 -17 26 3 16 31 -17
69 -13 91 9 11 11 24 20 29 20 15 0 21 30 11 51 -12 22 -35 26 -26 4 11 -29
-5 -45 -43 -45 -36 0 -63 19 -85 57 -20 36 64 135 126 148 18 4 35 11 38 15 3
4 25 10 50 14 l45 7 -34 -19 c-19 -11 -44 -38 -57 -62 -22 -42 -22 -43 -6 -89
17 -43 20 -46 60 -52 24 -3 45 -2 48 3 3 5 15 6 27 3 12 -2 17 -2 10 1 -9 4
-9 11 -2 28 8 18 7 31 -5 55 -9 17 -21 31 -26 31 -5 0 -16 12 -24 28 -15 26
-15 26 -16 4 0 -13 -4 -20 -10 -17 -5 3 -10 1 -10 -5 0 -7 6 -10 14 -7 20 8
43 -20 28 -35 -16 -16 -59 -1 -66 24 -5 18 2 31 30 57 33 30 41 33 84 29 75
-7 120 -54 120 -124 0 -25 -33 -49 -56 -40 -19 7 -18 35 1 42 19 8 19 24 0 24
-8 0 -22 -12 -32 -26 -16 -25 -16 -27 8 -45 18 -14 38 -19 77 -17 l54 2 1 -58
c2 -62 -8 -79 -54 -91 -18 -4 -31 -1 -43 10 -22 22 -20 35 4 35 12 0 20 -7 20
-17 0 -13 3 -14 12 -5 9 9 7 17 -8 33 -17 19 -27 21 -84 16 -36 -2 -94 -15
-130 -27 -321 -113 -568 -421 -634 -791 -6 -36 12 -115 30 -129 7 -7 22 -9 31
-5 16 6 15 8 -5 16 -32 12 -17 32 19 25 27 -5 29 -4 18 15 -8 15 -18 20 -36
16 l-25 -5 6 72 c8 88 45 203 104 321 39 77 62 106 157 201 61 61 140 130 176
155 66 45 236 119 273 119 12 0 33 -16 50 -36 27 -34 31 -36 70 -29 22 4 73 8
111 10 39 1 75 4 80 5 6 2 28 -5 49 -14 51 -23 83 -15 91 24 6 26 11 30 42 30
168 0 480 -200 610 -390 73 -108 153 -320 153 -406 0 -40 -2 -43 -29 -42 -37
1 -51 -9 -50 -35 1 -17 2 -18 6 -4 3 10 14 17 29 17 28 0 31 -15 7 -29 -16 -9
-16 -10 -1 -11 72 -1 74 162 5 328 -54 128 -100 201 -177 284 -116 126 -282
235 -437 287 -68 23 -222 31 -193 10 12 -8 9 -9 -12 -5 -15 3 -29 2 -32 -3 -3
-5 6 -8 20 -8 37 0 52 -19 32 -39 -14 -14 -20 -14 -44 -2 -35 16 -40 38 -17
67 47 58 223 42 373 -34 29 -15 55 -23 59 -17 3 5 18 12 33 16 30 7 86 51 77
60 -3 4 -18 -3 -33 -15 -15 -11 -33 -18 -42 -15 -8 3 -12 2 -9 -4 3 -6 0 -10
-9 -10 -8 0 -16 -6 -18 -12 -3 -9 -19 -5 -54 14 -104 56 -266 84 -342 57 -17
-6 -40 -25 -51 -42 l-20 -31 1 31 c1 28 6 34 47 50 30 12 70 18 118 17 60 0
69 2 55 13 -9 7 -30 12 -47 12 -33 0 -113 -19 -133 -32 -7 -5 -19 -4 -27 3
-21 17 -19 30 5 30 19 0 20 2 5 30 -8 16 -15 45 -15 65 0 24 -5 35 -15 36 -26
2 -63 1 -112 -2 -38 -2 -31 -4 32 -8 77 -6 80 -7 77 -30 -1 -13 4 -34 12 -47
14 -21 14 -22 -9 -28 -13 -3 -32 -3 -42 0 -12 5 -15 4 -8 -4 6 -5 19 -12 30
-15 15 -4 13 -5 -7 -6 -16 0 -28 3 -28 8 0 13 -52 20 -72 10 -29 -16 -63 4
-63 38 0 25 3 29 23 25 23 -5 41 -22 22 -22 -7 0 -6 -5 2 -14 18 -19 26 -11
20 19 -3 19 -11 25 -29 25 -22 0 -25 4 -21 25 3 14 2 25 -2 25 -4 0 -30 23
-57 50 -53 53 -74 63 -66 30 4 -15 0 -20 -16 -20 -13 0 -21 6 -21 16 0 10 -6
14 -15 10 -9 -3 -15 0 -15 10 0 8 4 13 9 10 5 -4 20 -2 33 3 21 9 20 10 -13
10 -21 1 -43 8 -52 19 -24 26 -21 36 5 18 12 -9 33 -16 46 -16 36 0 76 -25
117 -75 21 -25 40 -43 43 -40 3 2 -12 25 -33 51 -26 32 -57 55 -94 71 -31 13
-63 28 -71 32 -8 4 -27 4 -43 0z m12 -52 c1 -5 -3 -5 -9 -2 -5 3 -10 1 -10 -6
0 -6 8 -9 20 -6 13 3 20 0 20 -8 0 -20 -16 -27 -45 -19 -30 7 -34 38 -8 66 17
19 18 19 24 1 4 -10 8 -22 8 -26z m173 -84 c29 -32 52 -72 45 -80 -3 -2 -13
11 -22 31 -9 19 -31 44 -48 55 -19 12 -25 21 -16 21 8 0 27 -12 41 -27z m-503
-48 c64 -33 51 -105 -18 -105 -25 0 -26 6 -6 27 14 14 13 18 -10 39 -31 28
-28 28 -64 9 -43 -22 -53 -58 -49 -183 2 -62 4 -112 5 -112 1 0 9 24 17 54 9
30 23 57 32 60 25 9 30 -1 11 -22 -15 -17 -47 -93 -47 -113 0 -5 11 -4 24 2
27 13 76 5 76 -12 0 -6 -11 -8 -27 -5 -45 9 -108 -39 -177 -132 -56 -77 -114
-104 -213 -100 -70 3 -78 5 -96 30 -28 38 -15 82 26 86 29 3 57 -12 57 -31 0
-5 -8 -3 -18 6 -25 23 -49 21 -62 -3 -7 -14 -7 -20 0 -20 5 0 10 -6 10 -14 0
-8 4 -17 9 -20 4 -3 6 5 4 18 -3 16 1 25 13 30 21 8 33 -2 16 -13 -10 -6 -9
-13 5 -30 33 -41 118 -29 183 25 58 49 90 110 90 172 0 76 -13 96 -56 87 -41
-7 -47 14 -12 39 l22 16 -26 0 c-41 0 -54 -61 -18 -80 14 -7 20 -7 20 0 0 5
10 10 22 10 l22 0 -22 -16 c-28 -19 -68 -12 -77 15 -8 27 11 70 37 80 27 10
70 -3 93 -29 13 -14 17 -38 17 -102 l1 -83 14 40 c10 29 11 50 4 78 -5 22 -8
49 -5 61 2 14 -6 32 -23 51 -33 34 -40 69 -11 54 10 -5 18 -15 18 -22 0 -7 6
-21 13 -32 12 -16 13 -11 9 37 -2 33 1 64 8 78 8 15 8 20 1 16 -6 -4 -11 0
-11 9 0 11 5 15 14 12 8 -3 16 -3 18 1 2 4 16 17 32 30 33 26 66 28 105 7z
m53 -12 c15 -15 28 -32 28 -39 0 -7 5 -14 11 -16 6 -2 -2 -18 -18 -36 -29 -33
-85 -52 -97 -33 -4 6 0 11 11 11 23 1 92 62 75 68 -7 2 -12 9 -12 15 0 6 -10
21 -22 34 -30 32 -10 29 24 -4z m291 -63 c14 0 29 5 32 10 11 18 20 11 22 -18
1 -15 -3 -33 -9 -39 -14 -18 -73 -16 -88 2 -14 17 -10 18 22 6 27 -10 68 3 68
21 0 9 -3 9 -12 0 -13 -13 -57 -16 -74 -4 -12 7 -34 46 -34 58 0 4 10 -2 23
-14 13 -12 35 -22 50 -22z m-389 2 c-36 -24 -5 -92 42 -92 30 0 30 -7 3 -36
-20 -21 -21 -26 -8 -68 14 -49 24 -55 55 -30 18 15 18 15 -3 5 -34 -17 -40
-12 -13 10 24 20 24 20 3 14 -25 -7 -26 -5 -17 19 3 9 10 14 14 11 5 -3 12 0
16 6 4 8 3 9 -4 5 -7 -4 -12 -3 -12 3 0 6 -8 8 -17 4 -15 -5 -15 -2 3 18 12
13 24 32 27 42 9 23 30 22 53 -4 14 -16 16 -23 6 -26 -9 -4 -10 -9 -2 -18 7
-8 7 -20 1 -36 -9 -23 -10 -23 -11 6 -1 26 -3 27 -10 10 -4 -11 -6 -30 -3 -41
3 -17 -5 -27 -41 -48 -48 -28 -61 -32 -51 -16 3 6 -1 10 -9 10 -9 0 -16 5 -16
10 0 6 5 10 10 10 6 0 10 8 10 17 0 14 -3 13 -20 -5 -19 -20 -40 -29 -40 -17
0 3 9 23 20 45 26 51 25 66 -4 85 -14 9 -31 27 -40 40 -14 21 -13 25 4 46 42
52 42 51 54 39 7 -7 8 -13 0 -18z m179 -89 c14 -15 32 -23 56 -24 34 0 34 -1
12 -10 -34 -13 -78 6 -96 42 -17 32 -20 64 -3 34 6 -11 20 -30 31 -42z m585 5
c20 -20 15 -86 -7 -98 -28 -14 -63 -12 -89 6 -29 20 -32 90 -4 97 35 9 88 7
100 -5z m-838 -13 c-11 -13 -10 -14 4 -9 9 3 16 1 16 -5 0 -6 8 -8 18 -5 14 5
14 4 2 -4 -8 -6 -18 -8 -22 -6 -4 3 -12 -6 -18 -20 -14 -38 -20 -32 -16 17 5
51 3 47 17 47 8 0 7 -5 -1 -15z m-105 -21 c18 -8 36 -22 39 -30 4 -11 -3 -9
-25 6 -59 43 -139 18 -139 -43 0 -11 -3 -18 -6 -14 -16 15 9 66 39 81 40 20
51 20 92 0z m-228 -264 c2 0 3 -8 3 -17 0 -13 -3 -14 -12 -5 -20 20 -86 15
-98 -7 -15 -28 -12 -67 5 -81 9 -7 13 -15 10 -18 -3 -3 -14 3 -25 13 -37 33
-16 123 28 117 12 -2 22 1 22 7 0 6 11 6 32 0 18 -5 34 -9 35 -9z m-19 -278
c13 -15 32 -37 43 -48 10 -12 19 -32 18 -45 l-1 -24 -8 25 -8 25 -1 -25 c-2
-30 -18 -52 -49 -69 -31 -17 -37 -9 -12 14 13 12 20 31 20 55 0 50 -48 100
-97 100 -18 0 -33 4 -33 9 0 33 97 20 128 -17z m-46 -18 c4 -3 15 -20 24 -39
13 -27 13 -38 3 -57 -15 -28 -28 -38 -54 -38 -18 0 -18 1 3 16 22 15 31 67 13
78 -5 3 -8 -9 -7 -26 1 -25 -4 -33 -19 -36 -16 -3 -18 -1 -7 9 20 21 14 26
-33 27 -25 0 -45 -4 -45 -9 0 -5 5 -9 12 -9 7 0 5 -7 -5 -17 -14 -16 -13 -23
6 -70 12 -29 29 -61 37 -70 39 -45 72 -93 63 -93 -16 0 -90 84 -111 125 -43
87 -37 139 22 188 20 16 20 17 1 11 -20 -6 -20 -6 0 11 18 15 72 14 97 -1z
m-127 -222 c33 -58 31 -65 -5 -22 -17 19 -30 29 -30 23 0 -6 7 -16 15 -23 8
-7 15 -18 14 -24 -1 -21 -34 38 -35 63 -1 14 -3 31 -4 36 -1 6 -1 30 0 55 l2
45 9 -54 c5 -30 21 -75 34 -99z m3 -64 c3 1 7 -4 8 -13 3 -21 -9 -19 -33 8
-33 36 -39 54 -9 27 15 -14 30 -24 34 -22z m262 11 c0 -5 -12 -9 -27 -9 -14 0
-35 -7 -45 -17 -10 -9 -18 -11 -18 -5 0 19 49 50 70 45 11 -3 20 -9 20 -14z"/>
<path d="M813 2728 c9 -15 14 -35 10 -44 -4 -12 -3 -15 5 -10 19 11 14 41 -10
62 l-22 19 17 -27z"/>
<path d="M1437 2551 c7 -28 28 -43 54 -39 31 4 35 26 7 37 -61 23 -67 23 -61
2z"/>
<path d="M1460 2839 c0 -5 5 -9 10 -9 6 0 10 -12 10 -27 l0 -28 15 29 c19 36
20 33 -10 38 -14 3 -25 1 -25 -3z"/>
<path d="M1010 2760 c-18 -16 -21 -26 -16 -54 4 -20 14 -39 23 -44 19 -11 9
-32 -15 -32 -15 0 -15 2 -2 10 16 10 13 12 -20 12 -32 0 -33 -1 -20 -17 18
-22 67 -19 80 5 9 17 7 26 -10 48 -13 15 -17 28 -11 30 6 2 11 12 11 22 0 11
8 24 18 29 14 9 15 10 1 11 -9 0 -26 -9 -39 -20z"/>
<path d="M1200 2770 c0 -5 19 -15 43 -21 23 -7 48 -17 55 -22 25 -19 24 2 -1
27 -18 18 -37 26 -62 26 -19 0 -35 -4 -35 -10z"/>
<path d="M1400 2728 c0 -6 9 -8 22 -5 12 3 29 2 39 -3 11 -7 20 -6 27 3 8 9
-1 12 -39 14 -30 1 -49 -2 -49 -9z"/>
<path d="M2228 2578 c-29 -10 -39 -43 -16 -50 9 -3 9 -6 0 -11 -6 -5 -18 3
-28 18 -9 14 -21 25 -27 25 -6 0 -7 -3 -4 -7 4 -3 1 -13 -6 -22 -10 -14 -10
-14 5 -3 14 11 18 10 28 -7 7 -15 21 -21 44 -21 34 0 52 -14 80 -65 10 -16 14
-21 10 -10 -4 11 -7 28 -8 37 0 9 -3 15 -7 12 -4 -2 -6 8 -6 21 0 38 -21 57
-55 50 -35 -8 -38 10 -2 19 41 11 62 -2 78 -47 12 -36 15 -38 15 -15 1 28 -42
89 -62 87 -7 0 -24 -5 -39 -11z"/>
<path d="M2120 2514 c0 -7 -18 -21 -39 -31 l-39 -20 41 -20 c100 -50 357 -303
357 -352 0 -6 5 -11 10 -11 15 0 13 6 -17 53 -71 109 -298 325 -345 328 -7 0
-3 5 10 11 12 6 23 16 23 22 1 6 4 -2 8 -19 6 -31 35 -46 43 -23 2 7 1 27 -3
43 -7 29 -7 29 -8 -7 -1 -40 -21 -54 -21 -15 0 22 -20 62 -20 41z"/>
<path d="M2210 2448 c0 -24 12 -44 56 -90 38 -40 53 -51 49 -35 -6 21 -6 21
15 -3 24 -28 24 -26 -9 45 -48 107 -111 154 -111 83z m47 -20 c28 -31 57 -78
51 -83 -2 -3 -24 13 -47 35 -23 22 -34 37 -24 34 17 -5 17 -5 1 9 -10 8 -18
17 -18 21 0 13 17 5 37 -16z"/>
<path d="M1385 2449 c-99 -12 -214 -43 -280 -77 -323 -162 -515 -479 -500
-823 6 -143 19 -215 61 -324 81 -209 236 -388 410 -473 149 -73 312 -103 495
-89 238 17 391 84 558 242 197 187 283 406 268 685 -8 135 -32 239 -82 347
-97 211 -208 329 -397 424 -129 65 -178 81 -248 83 -36 1 -96 5 -135 8 -38 4
-106 2 -150 -3z m200 -19 c257 -30 498 -171 630 -370 25 -37 45 -70 45 -74 0
-3 16 -39 35 -80 78 -166 98 -397 51 -578 -43 -163 -102 -265 -218 -379 -192
-189 -404 -273 -673 -264 -94 3 -126 8 -220 39 -138 46 -233 100 -316 179 -58
57 -119 124 -119 133 0 2 -12 20 -26 41 -102 150 -174 443 -143 581 34 152 43
189 52 207 6 11 12 25 13 31 8 46 97 186 156 245 31 30 52 33 28 4 -7 -9 -14
-42 -16 -73 -5 -115 -46 -197 -92 -186 -45 10 -68 -40 -40 -86 11 -17 7 -24
-31 -59 -51 -47 -50 -66 5 -66 35 0 39 -2 38 -25 -5 -80 -19 -132 -41 -156
-15 -16 -24 -37 -23 -53 3 -41 1 -53 -9 -47 -5 4 -7 -3 -4 -14 3 -11 7 -20 8
-20 2 0 14 17 26 37 16 25 19 38 11 41 -16 5 -15 29 2 35 33 13 35 -29 4 -83
-13 -22 -29 -40 -37 -40 -8 0 -12 -3 -8 -6 3 -4 12 -4 19 -2 7 3 17 6 23 6 5
0 12 9 16 19 3 10 6 -27 5 -82 -1 -110 12 -143 66 -165 26 -12 47 -52 49 -94
0 -17 4 -14 17 12 13 27 14 35 3 41 -18 12 -5 31 21 31 17 0 19 -4 13 -27 -3
-16 -12 -40 -20 -55 -13 -27 -12 -28 9 -22 19 4 25 0 36 -25 16 -40 56 -79
100 -98 63 -28 218 -18 297 19 32 16 50 4 57 -37 11 -55 25 -80 56 -98 55 -33
103 -19 163 47 23 26 30 28 38 16 5 -8 7 -23 5 -32 -6 -25 1 -22 20 8 15 22
15 27 3 34 -12 8 -11 12 4 27 15 16 19 16 27 3 12 -18 4 -45 -23 -83 l-20 -29
21 13 c11 7 27 28 36 46 15 32 15 36 -1 64 -15 26 -16 31 -3 39 10 6 19 1 32
-21 10 -17 37 -48 59 -70 46 -45 56 -43 79 16 8 20 19 34 26 31 16 -6 44 25
44 49 0 23 -28 55 -48 55 -9 0 -26 -10 -39 -22 -19 -18 -27 -20 -48 -10 -33
15 -23 36 26 56 53 22 60 21 92 -14 34 -36 79 -40 135 -11 34 17 82 82 82 110
0 6 8 28 17 50 17 38 17 39 34 18 15 -19 19 -20 34 -7 34 28 41 81 45 304 0
11 3 17 6 13 10 -10 54 41 54 63 0 12 -6 28 -14 35 -11 11 -11 22 -3 54 13 49
-1 74 -28 51 -20 -17 -26 -10 -35 39 -5 29 -3 49 7 68 19 37 11 92 -21 148
-20 33 -33 45 -51 45 -13 0 -26 -6 -28 -12 -3 -7 -6 -3 -6 9 -2 55 -57 153
-87 153 -6 0 -19 -11 -28 -26 -14 -20 -17 -44 -14 -118 2 -64 -1 -97 -9 -105
-15 -14 -26 -14 -18 -1 3 6 2 10 -3 10 -5 0 -14 32 -20 72 -9 58 -8 76 4 99
19 37 17 65 -5 114 -35 78 -74 97 -92 45 -6 -16 -12 -30 -14 -30 -15 0 -35 15
-35 26 0 16 -48 95 -63 106 -18 11 -47 -12 -54 -43 -6 -31 -23 -38 -43 -14 -9
11 -9 22 1 50 11 31 11 37 -4 52 -22 23 -77 22 -105 -2 -32 -28 -27 -38 9 -20
36 19 83 16 87 -5 2 -13 -52 -50 -73 -50 -15 0 -1 19 17 23 36 10 12 20 -27
13 -30 -6 -34 -10 -25 -21 9 -11 7 -15 -12 -20 -166 -38 -297 -73 -323 -85
-11 -5 -31 -12 -45 -14 -14 -3 -35 -8 -47 -12 -13 -3 -23 -2 -23 2 0 11 48 34
72 34 10 0 18 5 18 10 0 6 14 10 30 10 17 0 30 4 30 8 0 5 23 15 50 22 28 7
50 17 50 22 0 4 7 8 16 8 28 0 84 40 84 61 0 29 -45 35 -109 15 -31 -10 -64
-22 -73 -27 -10 -5 -25 -9 -33 -9 -8 0 -23 -4 -33 -10 -9 -5 -44 -20 -76 -31
-80 -29 -126 -72 -130 -123 -3 -41 -25 -66 -58 -66 -14 0 -18 8 -19 38 l-1 37
-13 -30 c-19 -41 -18 -65 2 -65 16 0 16 -1 1 -16 -35 -35 -50 17 -24 81 11 25
11 35 3 38 -24 9 110 115 209 165 54 28 217 81 279 91 71 12 98 12 200 1z
m-135 -89 c0 -5 -35 -21 -77 -37 -147 -52 -308 -115 -316 -123 -5 -5 -2 -22 7
-39 l15 -30 78 25 c43 14 123 38 178 54 232 68 297 74 335 34 40 -42 19 -83
-112 -213 -110 -110 -132 -144 -65 -103 19 11 36 21 39 21 2 0 5 -36 5 -79 0
-69 -3 -80 -19 -84 -12 -3 -22 2 -29 16 -12 22 -69 77 -80 77 -22 0 -37 91
-23 144 4 18 3 31 -5 35 -6 4 -14 24 -17 43 -6 32 -4 36 20 40 31 6 49 -11 36
-32 -15 -23 -12 -62 7 -82 14 -16 15 -25 6 -61 -6 -23 -10 -43 -8 -45 2 -2 22
24 44 57 23 33 73 86 111 117 39 31 70 62 70 70 0 28 -48 47 -103 41 -156 -19
-637 -189 -637 -226 0 -3 24 -18 53 -34 28 -15 98 -56 154 -91 l101 -63 51 17
c28 9 53 19 56 22 3 2 -4 51 -15 109 -21 110 -25 175 -12 183 5 3 23 -20 40
-50 33 -58 42 -88 20 -66 -22 22 -30 12 -23 -30 13 -79 34 -115 81 -143 39
-23 44 -30 44 -61 0 -31 -3 -35 -17 -29 -49 21 -163 25 -163 6 0 -7 284 -211
294 -211 3 0 3 96 -1 213 -6 205 -1 280 16 261 12 -13 61 -147 61 -164 -1 -11
-6 -8 -19 8 -11 12 -21 22 -23 22 -7 0 15 -346 23 -368 18 -47 127 -66 159
-27 15 18 12 84 -19 460 -29 348 -30 380 -11 373 13 -4 81 -150 74 -158 -3 -3
-14 5 -24 18 -10 12 -21 22 -24 22 -4 0 -4 -10 -1 -22 12 -52 45 -472 45 -575
0 -129 -7 -155 -52 -184 -31 -19 -82 -22 -138 -8 -11 3 -14 -3 -10 -26 8 -48
6 -276 -3 -327 -15 -89 -27 -50 -27 90 0 75 -3 174 -7 220 l-6 83 -148 114
c-81 63 -150 115 -153 115 -4 0 6 -19 20 -42 35 -56 46 -104 33 -152 -15 -54
-49 -81 -142 -111 -181 -59 -227 -106 -227 -235 0 -177 228 -217 455 -79 31
19 65 44 76 55 l20 22 -35 106 c-34 99 -46 177 -28 176 4 -1 24 -22 45 -48 35
-44 36 -47 16 -50 -15 -3 -19 -8 -14 -20 51 -121 45 -192 -20 -252 -78 -72
-84 -210 -9 -210 20 0 53 27 137 113 103 104 119 116 200 152 l87 38 0 46 c1
81 41 161 81 161 27 0 52 -45 52 -93 0 -49 -34 -121 -65 -138 l-21 -11 24 -19
c32 -25 59 -24 100 4 32 21 34 26 37 87 3 56 -21 501 -33 615 -2 22 -7 104
-11 183 -8 168 3 185 50 72 29 -71 29 -100 0 -64 -17 22 -17 27 12 -343 9
-114 14 -274 12 -365 -3 -157 -4 -165 -30 -204 -35 -55 -98 -83 -134 -59 -13
8 -30 28 -39 45 -15 29 -15 29 -56 15 -111 -40 -182 -91 -298 -218 -25 -27
-55 -53 -68 -58 -33 -12 -69 5 -94 43 -17 27 -19 43 -15 91 3 32 3 57 -2 55
-137 -70 -262 -94 -343 -67 -45 16 -96 65 -110 107 -11 34 -8 132 7 181 6 21
3 20 -40 -13 -54 -41 -92 -46 -127 -17 -33 27 -39 143 -12 216 l19 50 -24 45
c-18 34 -22 56 -19 87 7 62 95 239 111 222 3 -3 -12 -39 -34 -80 -70 -134 -72
-209 -6 -209 38 0 91 38 230 166 l77 71 -38 30 c-21 16 -75 55 -120 87 -144
102 -137 148 35 233 48 24 51 27 37 43 -20 23 -19 63 3 83 23 21 111 57 262
108 121 41 140 45 140 30z m489 -148 c8 -21 22 -56 32 -77 22 -46 18 -57 -12
-30 l-22 19 6 -45 c4 -25 9 -90 12 -145 8 -136 14 -185 26 -185 16 0 21 27 9
49 -12 24 2 61 24 61 35 0 27 -81 -11 -114 -19 -17 -25 -34 -29 -86 -8 -106
-15 -149 -25 -155 -5 -4 -9 28 -9 79 0 48 -5 88 -10 91 -6 4 -22 -1 -36 -10
-14 -9 -29 -13 -32 -10 -4 4 1 12 12 19 61 37 58 16 42 281 -13 227 -13 295 3
295 4 0 13 -17 20 -37z m-72 -29 c-3 -4 -2 -14 3 -24 6 -11 4 -42 -6 -86 -19
-92 -19 -110 1 -94 12 10 15 10 15 -2 0 -24 -22 -39 -37 -27 -17 15 -17 67 2
102 8 15 10 25 5 22 -5 -3 -13 2 -18 12 -11 18 15 103 32 103 5 0 6 -3 3 -6z
m-267 -21 c6 -5 -80 -83 -92 -83 -30 0 -11 85 20 93 18 5 63 -1 72 -10z m-113
-5 c-3 -7 -12 -30 -21 -50 -16 -37 -16 -38 4 -38 18 0 19 -2 8 -20 -17 -26
-35 -25 -43 1 -8 23 31 119 48 119 5 0 7 -6 4 -12z m242 -70 c-1 -52 -3 -64
-8 -43 l-7 30 -12 -40 c-10 -33 -9 -42 3 -51 18 -13 19 -26 3 -42 -17 -17 -38
4 -38 40 0 16 7 45 15 65 13 30 13 34 1 23 -8 -6 -20 -27 -26 -46 -12 -34 -13
-35 -31 -18 -25 23 -24 31 9 64 15 15 39 42 53 59 15 17 29 31 33 31 3 0 5
-33 5 -72z m-471 -16 c3 -19 0 -21 -26 -16 -23 5 -33 0 -53 -23 -21 -25 -28
-27 -51 -19 -40 14 -61 -8 -55 -56 l5 -38 -40 22 c-59 34 -65 52 -20 68 20 7
55 21 77 30 55 24 109 45 117 45 3 0 10 3 14 8 13 12 29 2 32 -21z m-24 -48
c10 -27 7 -36 -13 -29 -17 5 -20 -1 -26 -55 -4 -33 -11 -62 -15 -65 -5 -3 -16
10 -25 28 -9 19 -27 39 -40 45 -15 7 -25 20 -25 32 0 28 17 25 52 -10 35 -35
38 -36 38 -11 0 56 39 104 54 65z m44 -91 c12 -70 1 -93 -45 -93 -40 0 -49 13
-29 42 9 12 16 33 16 45 0 22 27 63 41 63 4 0 11 -26 17 -57z m960 -38 c32
-78 32 -87 0 -58 -18 16 -19 15 -13 -48 12 -145 25 -362 25 -432 0 -81 -18
-187 -31 -187 -5 0 -9 57 -9 128 0 70 -7 246 -15 391 -8 145 -12 267 -9 272
12 20 23 6 52 -66z m-1368 -5 c0 -16 5 -32 10 -35 15 -9 12 -25 -4 -25 -7 0
-33 -17 -57 -38 -49 -44 -123 -92 -139 -92 -19 0 0 19 53 55 91 60 102 72 88
101 -12 27 -2 58 21 67 20 7 28 -2 28 -33z m874 -37 c4 -38 9 -86 13 -108 5
-34 4 -38 -9 -27 -23 19 -47 4 -65 -39 -8 -21 -19 -36 -24 -33 -5 3 -7 10 -4
15 4 5 1 9 -4 9 -18 0 -14 145 4 160 8 7 15 25 15 41 0 20 7 32 28 42 15 7 30
12 33 10 4 -1 10 -33 13 -70z m147 -30 c2 -51 0 -95 -3 -99 -15 -14 -26 9 -32
63 -4 32 -9 70 -12 84 -5 28 22 67 37 52 4 -4 9 -50 10 -100z m-1115 44 c17 6
19 -8 2 -25 -21 -21 -38 -14 -38 16 0 35 14 52 18 24 2 -14 8 -19 18 -15z
m276 -104 c20 -18 14 -36 -19 -58 -36 -24 -53 -5 -54 59 l-1 51 -13 -35 c-7
-19 -14 -50 -14 -68 -1 -30 1 -33 21 -26 21 6 22 6 7 -17 -23 -33 -37 -34 -51
-4 -10 23 -9 37 8 86 12 32 17 59 13 59 -5 0 -9 -1 -9 -2 0 -2 -11 -30 -24
-63 l-25 -59 22 -38 21 -38 -24 -18 c-67 -48 -78 -52 -94 -37 -17 17 -13 36
33 152 7 19 18 30 24 26 6 -4 7 -1 3 6 -5 7 3 36 15 65 l24 53 60 -40 c33 -22
68 -46 77 -54z m473 -23 c-19 -37 -19 -70 0 -70 19 0 19 -14 0 -30 -20 -17
-35 -4 -35 31 0 36 25 99 40 99 6 0 5 -11 -5 -30z m-77 -21 c17 1 22 -5 22
-25 0 -22 -3 -24 -22 -18 -27 8 -58 33 -58 47 0 5 8 6 18 2 9 -4 27 -7 40 -6z
m611 -156 l1 -53 -41 0 c-35 0 -40 2 -34 18 5 9 10 33 12 52 11 99 16 121 31
137 16 16 17 13 23 -43 4 -32 7 -83 8 -111z m-319 152 c0 -3 -7 -22 -15 -42
-19 -46 -19 -73 1 -73 21 0 14 -34 -8 -38 -10 -2 -19 7 -25 25 -9 26 -6 43 22
121 4 12 25 18 25 7z m575 -42 c-22 -58 -29 -103 -17 -115 9 -9 12 -9 12 0 0
7 5 12 10 12 15 0 12 -12 -10 -40 -17 -21 -21 -23 -30 -10 -5 8 -10 29 -10 46
0 39 29 124 42 124 6 0 7 -8 3 -17z m-411 -49 c15 -39 6 -113 -18 -148 -18
-26 -25 -32 -30 -21 -3 8 -3 21 -1 28 2 6 6 40 9 74 2 34 7 67 11 73 9 15 22
12 29 -6z m-218 -75 c4 -7 20 -9 39 -6 40 6 48 1 34 -24 -18 -35 -86 -19 -102
24 -7 19 17 25 29 6z m-238 -40 c2 -13 8 -29 14 -36 10 -13 2 -36 -11 -29 -4
3 -28 -15 -52 -41 -24 -25 -69 -64 -99 -87 -30 -23 -56 -47 -57 -54 -4 -17 12
-15 27 3 7 8 19 15 26 15 8 0 14 5 14 10 0 6 5 10 10 10 6 0 24 14 42 30 17
17 36 30 42 30 7 0 27 -47 45 -105 l34 -106 -23 -24 c-13 -14 -62 -44 -108
-67 -67 -32 -99 -42 -153 -46 -38 -2 -76 -1 -86 3 -10 4 -26 9 -36 10 -41 4
-97 103 -77 135 9 15 46 8 42 -8 -1 -7 2 -12 7 -12 5 0 9 -14 9 -30 -1 -34 26
-70 53 -70 40 0 69 70 34 84 -28 10 -17 52 26 95 23 22 47 41 55 41 7 0 11 6
8 14 -3 8 19 33 58 64 96 77 134 120 120 134 -15 15 -15 41 0 56 17 17 32 9
36 -19z m507 -39 l18 -20 22 20 c40 37 86 -10 49 -51 -17 -19 -18 -19 -41 3
l-23 21 -25 -23 -25 -24 -21 21 c-21 21 -21 21 -3 47 23 31 26 31 49 6z m-423
-22 c23 -23 38 -78 21 -78 -15 0 -63 62 -63 81 0 25 14 24 42 -3z m357 -64 c8
-8 -47 -54 -65 -54 -22 0 -17 17 9 25 20 7 18 8 -13 14 -33 6 -34 7 -15 19 19
11 71 9 84 -4z m183 -23 c2 -16 1 -36 -2 -45 -4 -13 -11 -8 -28 23 -17 29 -19
41 -10 44 27 11 36 6 40 -22z m-284 -9 c2 -7 -5 -16 -17 -19 -12 -3 -21 -9
-21 -13 0 -5 -9 -12 -20 -15 -11 -3 -20 -13 -20 -20 0 -20 -21 -30 -31 -14
-10 17 -12 83 -2 93 12 12 106 2 111 -12z m-545 -29 c-3 -7 -11 -13 -18 -13
-8 0 -16 -8 -20 -17 -3 -10 -25 -32 -48 -48 -31 -23 -43 -40 -49 -70 -11 -50
-2 -93 15 -76 19 19 27 12 15 -14 -27 -60 -63 -10 -53 72 l7 55 -23 -16 c-25
-17 -49 -21 -49 -8 0 4 40 32 90 62 83 51 114 78 73 63 -10 -3 -3 6 16 21 35
26 56 21 44 -11z m662 5 c-7 -18 -16 -46 -20 -61 -5 -27 -7 -28 -27 -15 -12 8
-23 24 -25 36 -2 17 5 25 31 36 18 8 37 19 40 25 14 23 15 10 1 -21z m-90 -33
c0 -5 -11 -12 -25 -13 -30 -5 -52 -21 -44 -33 3 -5 27 -9 55 -9 59 0 69 -24
14 -34 -19 -4 -54 -16 -77 -26 l-43 -20 46 0 c25 0 49 4 55 9 10 9 74 32 74
26 0 -22 -27 -43 -109 -82 -53 -25 -99 -48 -102 -49 -3 -2 0 29 8 68 13 70 23
98 23 65 0 -21 14 -22 30 -2 10 12 10 18 0 30 -11 13 -8 21 21 51 32 33 74 44
74 19z m-720 -20 c-51 -31 -66 -32 -35 -1 14 14 36 25 50 25 22 1 21 -2 -15
-24z m985 -92 c0 -41 -23 -73 -53 -73 -18 0 -18 1 -3 25 9 13 16 31 16 40 0 8
5 15 10 15 6 0 10 9 10 21 0 11 5 17 10 14 6 -3 10 -22 10 -42z m-498 -145
l17 -53 -52 -53 c-58 -59 -90 -66 -95 -20 -2 15 2 37 9 50 16 30 92 128 99
128 3 0 13 -24 22 -52z m336 -70 c13 -13 16 -48 4 -48 -4 0 -13 5 -19 11 -13
13 -19 5 -43 -64 l-18 -51 -15 36 c-9 20 -27 44 -41 53 -28 18 -36 55 -12 55
16 0 66 -55 67 -73 0 -7 7 6 15 27 23 62 39 77 62 54z"/>
<path d="M1088 1618 c-163 -146 -194 -170 -234 -188 -36 -16 -43 -24 -58 -73
-9 -30 -16 -76 -14 -102 6 -93 51 -84 186 33 89 77 125 97 241 132 39 11 83
31 97 44 l27 23 -27 50 c-30 54 -112 153 -127 153 -5 0 -46 -33 -91 -72z m123
-5 c44 -50 69 -91 69 -112 0 -12 -4 -21 -10 -21 -5 0 -10 11 -10 24 0 48 -77
95 -107 65 -12 -12 -53 -3 -53 11 0 12 59 60 74 60 7 0 24 -12 37 -27z m-6
-69 c28 -18 31 -40 10 -68 -15 -19 -15 -19 -38 2 -29 27 -34 27 -56 0 l-18
-21 -31 22 c-31 22 -32 23 -14 46 21 29 25 30 59 8 25 -17 27 -17 41 5 17 26
16 26 47 6z m-164 -71 c14 -16 33 -33 44 -39 17 -9 12 -14 -39 -43 -31 -18
-58 -32 -59 -30 -1 2 -10 13 -20 25 -14 17 -16 26 -7 50 12 29 38 64 49 64 4
0 18 -12 32 -27z m-101 -47 c-12 -34 -13 -76 -1 -76 5 0 11 6 14 13 2 6 7 9
11 5 11 -9 -24 -60 -38 -55 -16 6 -14 111 3 131 19 22 24 14 11 -18z m-52 -65
c-1 -22 4 -47 11 -55 12 -14 11 -20 -5 -37 -25 -28 -55 -39 -77 -27 -14 7 -16
16 -11 46 15 78 33 104 77 111 4 0 7 -17 5 -38z"/>
<path d="M1937 1253 c-11 -10 -8 -101 3 -108 10 -6 56 23 63 40 2 6 0 25 -5
43 -6 24 -14 32 -32 32 -12 0 -26 -3 -29 -7z"/>
<path d="M1366 1251 c-9 -16 -16 -39 -16 -51 0 -25 -10 -25 -43 0 -14 11 -36
20 -50 20 -28 0 -57 -28 -57 -56 1 -56 95 -97 114 -49 7 19 30 19 46 0 26 -32
90 -5 90 38 0 24 -14 21 -25 -5 -6 -13 -19 -23 -30 -23 -16 0 -21 8 -23 44 -2
23 2 57 7 74 15 41 6 46 -13 8z m-85 -61 c20 -11 25 -45 10 -69 -6 -10 -13
-10 -28 -3 -35 19 -46 38 -33 61 12 24 23 26 51 11z"/>
<path d="M1400 1244 c-12 -30 -13 -81 -2 -87 4 -2 15 4 24 14 15 15 15 19 2
30 -10 8 -13 21 -9 41 8 35 -2 37 -15 2z"/>
<path d="M516 2339 c-14 -17 -23 -36 -19 -42 4 -7 11 -2 17 14 6 15 17 33 25
43 7 9 11 16 8 16 -3 0 -17 -14 -31 -31z"/>
<path d="M704 2307 c-84 -91 -204 -282 -149 -237 8 7 15 18 15 25 0 19 104
162 158 218 25 26 41 47 35 47 -6 0 -33 -24 -59 -53z"/>
<path d="M2490 2050 c-17 -6 -9 -7 25 -3 45 5 49 4 37 -10 -8 -9 -28 -17 -45
-19 -27 -3 -29 -5 -13 -13 12 -5 26 -4 39 4 17 11 19 11 14 -3 -3 -8 -3 -18 2
-20 4 -3 13 11 20 30 7 19 16 32 21 29 5 -3 2 -21 -5 -39 -8 -18 -11 -36 -8
-40 4 -3 -1 -6 -9 -6 -13 0 -14 -7 -6 -42 11 -50 18 -61 17 -27 -1 35 11 100
23 126 6 13 9 26 5 29 -10 10 -91 13 -117 4z"/>
<path d="M2490 1987 c0 -2 8 -22 17 -43 21 -49 21 -49 34 -114 17 -82 21 -89
29 -46 6 29 1 55 -17 104 -13 36 -28 69 -34 73 -6 3 -10 10 -9 15 1 5 -3 10
-9 12 -6 2 -11 2 -11 -1z"/>
<path d="M441 1930 c0 -14 -10 -40 -21 -58 -22 -36 -24 -42 -12 -42 15 0 44
76 39 101 l-4 24 -2 -25z"/>
<path d="M2640 1822 c0 -4 5 -13 10 -18 7 -7 1 -9 -19 -6 -23 3 -32 -1 -41
-19 -10 -20 -10 -22 1 -11 16 14 65 16 74 2 4 -6 -9 -10 -32 -11 l-38 -1 35
-8 c24 -6 38 -5 43 3 6 8 7 6 3 -5 -3 -10 -1 -20 4 -23 17 -10 11 27 -7 47
-13 14 -13 18 -2 18 12 0 11 2 -1 10 -8 5 -11 12 -7 16 11 11 36 -16 46 -50
l9 -31 1 36 c1 19 -4 40 -11 47 -13 13 -68 17 -68 4z"/>
<path d="M2572 1728 c-20 -20 -14 -38 12 -38 14 0 33 -11 44 -25 16 -20 21
-22 26 -10 13 35 -23 63 -64 50 -11 -3 -20 -2 -20 4 0 5 14 13 32 16 26 6 34
3 49 -16 13 -17 19 -20 19 -8 0 24 -21 39 -55 39 -17 0 -36 -5 -43 -12z"/>
<path d="M2545 1648 c-6 -13 -27 -31 -48 -42 -31 -15 -43 -16 -63 -7 -19 8
-24 8 -18 0 4 -7 7 -26 6 -43 0 -16 2 -26 6 -20 23 35 84 17 121 -35 17 -24
21 -44 21 -108 0 -44 -7 -102 -15 -128 -15 -52 -12 -75 4 -32 14 36 29 154 25
200 -3 52 -33 98 -80 124 -29 17 -34 23 -18 23 29 0 86 -45 101 -81 17 -41 16
-128 -1 -204 -13 -53 -13 -60 2 -71 14 -11 18 -10 20 4 13 73 62 117 120 109
l37 -5 -30 13 c-16 8 -44 14 -61 15 -25 0 -34 -7 -52 -39 -12 -21 -23 -49 -23
-62 -1 -17 -3 -19 -6 -6 -2 9 1 34 8 55 7 20 12 53 10 72 -1 26 1 31 8 20 6
-8 8 -24 5 -35 -4 -18 -4 -18 6 -3 19 30 -36 180 -74 200 -10 6 -15 13 -10 17
5 3 16 15 24 25 13 18 13 19 0 11 -8 -4 -23 -15 -32 -23 -10 -8 -18 -11 -18
-5 0 13 43 53 57 53 16 0 25 -32 13 -44 -5 -5 -10 -17 -9 -25 0 -9 5 -5 10 9
8 20 12 22 19 10 7 -11 10 -3 10 28 0 35 -3 42 -19 42 -11 0 -25 2 -33 5 -7 3
-17 -5 -23 -17z"/>
<path d="M2758 1599 c-33 -13 -45 -39 -18 -39 11 0 20 5 20 11 0 6 9 8 22 3
21 -6 22 -6 8 12 -14 18 -14 18 10 3 14 -9 26 -25 27 -35 2 -11 0 -13 -3 -6
-8 18 -21 15 -27 -7 -4 -16 -1 -18 17 -12 30 11 32 46 4 65 -25 18 -24 18 -60
5z"/>
<path d="M2606 1520 c9 -19 22 -55 29 -80 8 -31 19 -49 35 -57 31 -15 38 -8
17 15 -9 10 -23 37 -31 60 -8 23 -27 54 -41 69 l-27 28 18 -35z"/>
<path d="M2715 1250 c-3 -5 -4 -10 0 -10 3 0 1 -10 -6 -21 -8 -17 -8 -20 2
-17 16 5 31 46 19 53 -5 3 -11 1 -15 -5z"/>
<path d="M2778 1221 c22 -22 25 -32 23 -81 0 -21 1 -20 10 8 11 38 0 66 -34
83 l-22 11 23 -21z"/>
<path d="M2520 1169 c-12 -8 -12 -9 5 -7 22 3 49 -42 42 -70 -3 -11 -7 -6 -12
15 -8 33 -35 50 -57 37 -9 -6 -5 -10 12 -14 28 -7 42 -49 28 -89 -15 -41 0
-35 22 10 19 36 30 104 19 113 -13 11 -46 14 -59 5z"/>
<path d="M2410 1026 c0 -41 -231 -292 -328 -356 -25 -16 -41 -30 -36 -30 17 0
96 61 168 130 106 101 236 270 207 270 -6 0 -11 -6 -11 -14z"/>
<path d="M653 838 c41 -66 49 -77 63 -82 24 -9 15 7 -34 59 -25 28 -39 38 -29
23z"/>
<path d="M1457 379 c-26 -22 -37 -38 -36 -57 0 -25 1 -25 12 8 15 42 53 66 91
56 17 -4 26 -12 23 -20 -3 -7 -1 -28 4 -47 l9 -34 -5 38 c-2 22 0 35 6 32 27
-17 -5 -120 -34 -110 -6 2 -32 6 -56 9 -43 6 -44 6 -26 -14 19 -20 41 -28 30
-10 -4 6 7 10 27 9 31 0 32 -1 9 -10 -13 -5 -21 -13 -17 -16 14 -15 77 30 83
59 7 34 19 36 27 5 6 -23 96 -135 96 -119 0 5 -8 16 -17 23 -28 23 -73 101
-74 128 0 15 -3 20 -6 14 -7 -20 -23 -15 -23 6 0 24 -38 67 -65 75 -14 4 -33
-4 -58 -25z"/>
<path d="M1456 353 c-1 -2 0 -20 3 -41 5 -31 11 -38 33 -40 32 -4 53 27 44 64
-6 21 -12 24 -42 22 -19 -1 -36 -3 -38 -5z m62 -44 c-4 -28 -26 -31 -42 -6 -9
15 -7 21 8 33 24 17 39 5 34 -27z"/>
<path d="M1385 305 c-13 -49 -43 -102 -70 -123 -31 -24 -32 -38 -3 -47 16 -6
26 -1 39 16 28 36 23 44 -6 12 l-25 -28 12 30 c7 17 18 36 24 42 18 19 47 100
41 115 -2 7 -8 0 -12 -17z"/>
<path d="M1406 185 c-14 -44 -21 -55 -25 -42 -6 17 -8 18 -20 3 -16 -20 -11
-26 33 -41 33 -12 192 -11 229 1 18 6 17 8 -11 20 -21 9 -32 20 -32 34 0 11
-4 20 -10 20 -5 0 -10 -5 -10 -11 0 -6 -17 -9 -45 -6 -25 2 -45 1 -45 -2 -1
-3 -9 -17 -20 -29 -17 -21 -21 -22 -35 -9 -13 14 -13 19 1 52 8 20 14 44 12
53 -2 9 -12 -11 -22 -43z m155 -56 c22 -18 22 -20 4 -15 -69 17 -75 18 -91 2
-23 -24 -31 -11 -9 14 23 26 66 26 96 -1z"/>
</g>
</svg>
