<?xml version="1.0" encoding="UTF-8"?>
<svg version="1.1" xmlns="http://www.w3.org/2000/svg" width="192" height="192">
<path d="M0 0 C63.36 0 126.72 0 192 0 C192 63.36 192 126.72 192 192 C128.64 192 65.28 192 0 192 C0 128.64 0 65.28 0 0 Z " fill="#247D83" transform="translate(0,0)"/>
<path d="M0 0 C0.66 0 1.32 0 2 0 C2 1.98 2 3.96 2 6 C2.99 6.33 3.98 6.66 5 7 C8.94086275 13.58374292 8.02150644 20.72638187 7 28 C9.02257219 27.26009792 9.02257219 27.26009792 11 26 C11.81870185 22.43793339 11.81870185 22.43793339 12 19 C13.98 19.495 13.98 19.495 16 20 C16 22.31 16 24.62 16 27 C14.02 27.99 12.04 28.98 10 30 C9.67 39.57 9.34 49.14 9 59 C8.34 59 7.68 59 7 59 C6.67 61.97 6.34 64.94 6 68 C7.32 68 8.64 68 10 68 C10 67.34 10 66.68 10 66 C11.96147874 64.61061923 13.96166576 63.2739589 16 62 C15.47034911 59.08692009 14.79923991 56.33867264 13.9375 53.5 C13.11797592 50.44044344 12.81026325 48.13065644 13 45 C14.8125 45.5 14.8125 45.5 17 47 C19.67541628 52.44638313 21.26619339 57.92459503 20 64 C17.6875 66.875 17.6875 66.875 15 69 C14.484375 69.5775 13.96875 70.155 13.4375 70.75 C11.69584822 72.26447981 10.21731421 72.48262668 8 73 C7.67 73.66 7.34 74.32 7 75 C12.53657294 75.42589023 16.89665983 73.905247 22 72 C22 71.34 22 70.68 22 70 C26.47058824 66 26.47058824 66 29 66 C28.67 61.71 28.34 57.42 28 53 C30.31 53.33 32.62 53.66 35 54 C35.33 52.68 35.66 51.36 36 50 C37.32 50 38.64 50 40 50 C40 48.68 40 47.36 40 46 C39.34 46 38.68 46 38 46 C38 46.66 38 47.32 38 48 C37.34 48 36.68 48 36 48 C36.99 45.03 36.99 45.03 38 42 C39.65614657 41.61781233 41.32457024 41.28604898 43 41 C44 42 44 42 44.09765625 44.50390625 C44.08605469 45.51324219 44.07445312 46.52257812 44.0625 47.5625 C44.05347656 48.57441406 44.04445313 49.58632812 44.03515625 50.62890625 C44.02355469 51.41136719 44.01195312 52.19382813 44 53 C45.98 52.67 47.96 52.34 50 52 C50.0436868 47.77208814 50.07340651 43.54456236 50.06640625 39.31640625 C50.06584229 38.59912354 50.06527832 37.88184082 50.06469727 37.14282227 C49.99704731 34.9022047 49.77257925 32.72458288 49.5 30.5 C49.13741786 27.54088253 48.93593786 24.66497196 48.93359375 21.68359375 C48.93230469 20.905 48.93101562 20.12640625 48.9296875 19.32421875 C48.94095305 15.88259242 48.96443947 12.44146918 49 9 C49.99 9 50.98 9 52 9 C53.99783698 16.42053736 54.14481265 23.54069186 53.97265625 31.16796875 C53.918085 35.54621231 53.918085 35.54621231 55 42 C55.33 33.09 55.66 24.18 56 15 C56.99 15 57.98 15 59 15 C61.03435531 18.72965139 62 20.66905042 62 25 C61.34 25 60.68 25 60 25 C60.2165625 26.47533203 60.2165625 26.47533203 60.4375 27.98046875 C62.04142568 39.69255704 62.20776815 51.19184335 62 63 C60.68 63.33 59.36 63.66 58 64 C57.67 62.02 57.34 60.04 57 58 C53.39345961 60.40436026 53.14547068 61.94679607 52 66 C52.66 66 53.32 66 54 66 C53.67 67.32 53.34 68.64 53 70 C51.68 69.67 50.36 69.34 49 69 C48.875 62.25 48.875 62.25 50 60 C47.93831015 59.80379233 45.87559002 59.61839247 43.8125 59.4375 C42.66394531 59.33308594 41.51539063 59.22867188 40.33203125 59.12109375 C37.31368801 59.01140015 34.91076064 59.25997611 32 60 C31.979375 60.99 31.95875 61.98 31.9375 63 C31.22759058 68.11552375 27.83885561 71.7413441 24 75 C21.76953125 75.7265625 21.76953125 75.7265625 20 76 C20 76.66 20 77.32 20 78 C15.47806839 80.2609658 11.96161052 80.40012988 7 80 C6.5565625 79.49855469 6.113125 78.99710937 5.65625 78.48046875 C2.55712943 75.71026428 -1.84064272 76.97051822 -5.7734375 77.1875 C-9.41978773 76.97560556 -11.10666568 76.17513076 -14 74 C-15.875 71.5 -15.875 71.5 -17 69 C-16.505 67.515 -16.505 67.515 -16 66 C-15.401875 66.639375 -14.80375 67.27875 -14.1875 67.9375 C-11.06570457 70.88090712 -8.56427933 71.1385973 -4.4375 71.125 C-3.65246094 71.12757812 -2.86742188 71.13015625 -2.05859375 71.1328125 C0.06438977 71.12976366 0.06438977 71.12976366 2 70 C4.39751369 64.75229521 4.23540942 59.76437349 4.125 54.125 C4.11597656 53.24585938 4.10695313 52.36671875 4.09765625 51.4609375 C4.07424577 49.3071729 4.0383801 47.15354986 4 45 C0.7 45 -2.6 45 -6 45 C-6.4640625 46.2065625 -6.4640625 46.2065625 -6.9375 47.4375 C-8 50 -8 50 -9 51 C-15.8398865 51.69558168 -15.8398865 51.69558168 -18.86328125 49.8828125 C-20.30788861 48.66230891 -21.66274172 47.33725828 -23 46 C-23.226875 47.093125 -23.45375 48.18625 -23.6875 49.3125 C-25 53 -25 53 -27.5 54.9375 C-30 56 -30 56 -32 56 C-31.95875 57.216875 -31.9175 58.43375 -31.875 59.6875 C-31.90662763 63.27407356 -32.02073899 65.90202624 -34 69 C-37.1875 71.0625 -37.1875 71.0625 -39.07421875 72.01953125 C-40.97484468 72.98719273 -42.70779305 74.09700004 -44.5 75.25 C-48.46231093 77.23115547 -50.63267308 77.6470114 -55 77 C-58.97248797 74.61650722 -60.65216226 72.41110531 -62 68 C-65.465 68.495 -65.465 68.495 -69 69 C-69.33 66.03 -69.66 63.06 -70 60 C-70.928125 60.04125 -71.85625 60.0825 -72.8125 60.125 C-76 60 -76 60 -79 58 C-80.49084832 53.52745503 -80.49084832 49.47254497 -79 45 C-78.34 45 -77.68 45 -77 45 C-77.02320313 44.22914062 -77.04640625 43.45828125 -77.0703125 42.6640625 C-77.08835937 41.66117188 -77.10640625 40.65828125 -77.125 39.625 C-77.14820313 38.62726563 -77.17140625 37.62953125 -77.1953125 36.6015625 C-77 34 -77 34 -75 32 C-74.34 34.64 -73.68 37.28 -73 40 C-72.34 40 -71.68 40 -71 40 C-71.020625 39.2575 -71.04125 38.515 -71.0625 37.75 C-71 35 -71 35 -70.53125 33.25 C-69.82509713 30.2592349 -69.65196305 27.31375786 -69.4375 24.25 C-69.35371094 23.07953125 -69.26992187 21.9090625 -69.18359375 20.703125 C-69.12300781 19.81109375 -69.06242187 18.9190625 -69 18 C-69.66 17.67 -70.32 17.34 -71 17 C-71 16.34 -71 15.68 -71 15 C-68.03 14.34 -65.06 13.68 -62 13 C-62 14.32 -62 15.64 -62 17 C-62.66 17 -63.32 17 -64 17 C-63.67 20.63 -63.34 24.26 -63 28 C-63.99 28 -64.98 28 -66 28 C-66 31.96 -66 35.92 -66 40 C-66.66 40 -67.32 40 -68 40 C-68.33 40.66 -68.66 41.32 -69 42 C-68.01 42 -67.02 42 -66 42 C-66 42.66 -66 43.32 -66 44 C-68.475 44.495 -68.475 44.495 -71 45 C-70.42547254 48.93075644 -70.42547254 48.93075644 -68 52 C-67.46890625 51.52949219 -66.9378125 51.05898437 -66.390625 50.57421875 C-65.68421875 49.95160156 -64.9778125 49.32898438 -64.25 48.6875 C-63.55390625 48.07261719 -62.8578125 47.45773438 -62.140625 46.82421875 C-61.43421875 46.22222656 -60.7278125 45.62023437 -60 45 C-59.33484375 44.42894531 -58.6696875 43.85789063 -57.984375 43.26953125 C-56 42 -56 42 -52 42 C-52.33 37.38 -52.66 32.76 -53 28 C-51.68 28.66 -50.36 29.32 -49 30 C-48.34765625 32.3125 -48.34765625 32.3125 -48.0625 35 C-47.69784205 37.66150318 -47.69784205 37.66150318 -47 40 C-44.54251602 41.75568004 -44.54251602 41.75568004 -42 42 C-42 43.65 -42 45.3 -42 47 C-42.91523437 47.08636719 -43.83046875 47.17273438 -44.7734375 47.26171875 C-45.96195313 47.40222656 -47.15046875 47.54273438 -48.375 47.6875 C-49.55835937 47.81511719 -50.74171875 47.94273438 -51.9609375 48.07421875 C-55.21501812 48.67857053 -55.21501812 48.67857053 -56.4140625 51.58203125 C-56.60742188 52.37996094 -56.80078125 53.17789063 -57 54 C-54.36 53.67 -51.72 53.34 -49 53 C-47 56 -47 56 -47 60 C-50.3 60 -53.6 60 -57 60 C-56.85962479 61.81293089 -56.71255111 63.6253443 -56.5625 65.4375 C-56.48128906 66.44683594 -56.40007813 67.45617187 -56.31640625 68.49609375 C-56.26788532 70.93640779 -56.26788532 70.93640779 -55 72 C-50.44373999 72.56180377 -50.44373999 72.56180377 -46.5 70.75 C-46.005 70.1725 -45.51 69.595 -45 69 C-41.47729839 66.74097022 -37.7479299 64.85337193 -34 63 C-34.144375 62.40832031 -34.28875 61.81664062 -34.4375 61.20703125 C-35.40822694 57.07470059 -36.27593702 53.2770238 -36 49 C-35.01 49 -34.02 49 -33 49 C-33 49.66 -33 50.32 -33 51 C-30.69 50.67 -28.38 50.34 -26 50 C-26.31329892 46.92967061 -27.01284637 45.9877664 -29.29296875 43.81640625 C-30.24816406 43.07261719 -31.20335937 42.32882813 -32.1875 41.5625 C-33.1775 40.77359375 -34.1675 39.9846875 -35.1875 39.171875 C-36.79519043 37.93038072 -38.413834 36.70216492 -40.0625 35.515625 C-42.86150664 33.44328355 -43.91556354 32.41373866 -44.625 28.9375 C-43.85537464 25.32026083 -42.75950731 24.40931603 -40 22 C-38.18353128 20.87426394 -36.32629452 19.81214771 -34.4375 18.8125 C-33.48746094 18.30332031 -32.53742188 17.79414062 -31.55859375 17.26953125 C-29 16 -29 16 -26 15 C-25.67 14.01 -25.34 13.02 -25 12 C-27.64 12 -30.28 12 -33 12 C-33 12.66 -33 13.32 -33 14 C-34.26839526 14.50615298 -35.53983102 15.00469099 -36.8125 15.5 C-37.52019531 15.7784375 -38.22789063 16.056875 -38.95703125 16.34375 C-41 17 -41 17 -44 17 C-44 16.01 -44 15.02 -44 14 C-44.99 14 -45.98 14 -47 14 C-47 12.02 -47 10.04 -47 8 C-48.32 7.67 -49.64 7.34 -51 7 C-50.67 5.68 -50.34 4.36 -50 3 C-49.01 3 -48.02 3 -47 3 C-47 3.66 -47 4.32 -47 5 C-46.01 5 -45.02 5 -44 5 C-44 4.34 -44 3.68 -44 3 C-42.68 3 -41.36 3 -40 3 C-40 3.99 -40 4.98 -40 6 C-40.99 6 -41.98 6 -43 6 C-43 8.31 -43 10.62 -43 13 C-40.7058862 12.38304511 -38.41500322 11.75687956 -36.125 11.125 C-35.47402344 10.95097656 -34.82304688 10.77695313 -34.15234375 10.59765625 C-30.1931563 9.50470421 -30.1931563 9.50470421 -27 7 C-25.68 7 -24.36 7 -23 7 C-23 7.99 -23 8.98 -23 10 C-22.34 10 -21.68 10 -21 10 C-20.67 7.36 -20.34 4.72 -20 2 C-15.125 2.875 -15.125 2.875 -14 4 C-13.95936168 5.66617115 -13.957279 7.33388095 -14 9 C-13.01 9 -12.02 9 -11 9 C-11 6.69 -11 4.38 -11 2 C-9.35 2.33 -7.7 2.66 -6 3 C-6 3.66 -6 4.32 -6 5 C-2.55369942 3.85123314 -2.08379321 2.80859085 0 0 Z " fill="#DEECED" transform="translate(105,56)"/>
<path d="M0 0 C0.99 0.33 1.98 0.66 3 1 C9.07851754 1.32909171 15.01123956 1.06466852 21 0 C21 0.99 21 1.98 21 3 C19.906875 3.28875 18.81375 3.5775 17.6875 3.875 C13.95986155 4.81893204 13.95986155 4.81893204 11 7 C11.28875 7.47566406 11.5775 7.95132813 11.875 8.44140625 C15.7879846 15.81901264 15.38585949 22.86479584 15 31 C15.29261719 30.20207031 15.58523437 29.40414062 15.88671875 28.58203125 C17 26 17 26 18.8125 24.6875 C21.31189617 23.90197549 23.39493282 23.85527405 26 24 C25.79375 23.05125 25.5875 22.1025 25.375 21.125 C25.25125 20.09375 25.1275 19.0625 25 18 C25.66 17.34 26.32 16.68 27 16 C27.99 16 28.98 16 30 16 C29.505 15.01 29.505 15.01 29 14 C28.93049459 12.45976004 28.91547643 10.91665012 28.9375 9.375 C28.94652344 8.55773437 28.95554688 7.74046875 28.96484375 6.8984375 C28.97644531 6.27195312 28.98804688 5.64546875 29 5 C31.475 5.495 31.475 5.495 34 6 C34.495 7.98 34.495 7.98 35 10 C36.32 9.67 37.64 9.34 39 9 C41.19700959 32.13579645 41.19700959 32.13579645 41.1875 42.9375 C41.18814453 43.64575928 41.18878906 44.35401855 41.18945312 45.08374023 C41.13661952 49.86338048 41.13661952 49.86338048 40 51 C38.00041636 51.04080783 35.99954746 51.04254356 34 51 C33.67 47.37 33.34 43.74 33 40 C30.525 40.495 30.525 40.495 28 41 C26.62533375 43.47636012 26.62533375 43.47636012 26 46 C26.66 46 27.32 46 28 46 C28 45.34 28 44.68 28 44 C28.66 44 29.32 44 30 44 C30.495 45.98 30.495 45.98 31 48 C28.525 48.495 28.525 48.495 26 49 C25.67 49.99 25.34 50.98 25 52 C23.02 52 21.04 52 19 52 C19.05800781 52.81984375 19.11601562 53.6396875 19.17578125 54.484375 C19.54761619 63.3659181 19.54761619 63.3659181 16.625 66.75 C14 68 14 68 12 68 C12 68.66 12 69.32 12 70 C2.77448747 74.77676538 2.77448747 74.77676538 -3 73 C-2.67 72.01 -2.34 71.02 -2 70 C-0.88625 69.5978125 -0.88625 69.5978125 0.25 69.1875 C3.07113105 67.96928432 3.84708345 67.20692246 5.6875 64.875 C6.450625 63.92625 7.21375 62.9775 8 62 C8.66 62 9.32 62 10 62 C9.48517081 56.147205 8.54642808 50.6702363 7 45 C7.66 45 8.32 45 9 45 C9.11114233 32.94723146 8.94014291 21.02039864 8 9 C6.68 9 5.36 9 4 9 C3.67 8.34 3.34 7.68 3 7 C2.01 7 1.02 7 0 7 C0 4.69 0 2.38 0 0 Z " fill="#308489" transform="translate(115,58)"/>
<path d="M0 0 C0.99 0 1.98 0 3 0 C4.99783698 7.42053736 5.14481265 14.54069186 4.97265625 22.16796875 C4.918085 26.54621231 4.918085 26.54621231 6 33 C6.33 24.09 6.66 15.18 7 6 C7.99 6 8.98 6 10 6 C12.03435531 9.72965139 13 11.66905042 13 16 C12.34 16 11.68 16 11 16 C11.2165625 17.47533203 11.2165625 17.47533203 11.4375 18.98046875 C13.04142568 30.69255704 13.20776815 42.19184335 13 54 C11.68 54.33 10.36 54.66 9 55 C8.505 52.03 8.505 52.03 8 49 C4.39345961 51.40436026 4.14547068 52.94679607 3 57 C3.66 57 4.32 57 5 57 C4.67 58.32 4.34 59.64 4 61 C2.02 60.505 2.02 60.505 0 60 C-0.125 53.25 -0.125 53.25 1 51 C-1.06168985 50.80379233 -3.12440998 50.61839247 -5.1875 50.4375 C-6.33605469 50.33308594 -7.48460937 50.22867188 -8.66796875 50.12109375 C-11.68631199 50.01140015 -14.08923936 50.25997611 -17 51 C-17.020625 51.99 -17.04125 52.98 -17.0625 54 C-17.77240942 59.11552375 -21.16114439 62.7413441 -25 66 C-27.23046875 66.7265625 -27.23046875 66.7265625 -29 67 C-29 67.66 -29 68.32 -29 69 C-33.52193161 71.2609658 -37.03838948 71.40012988 -42 71 C-42.4434375 70.49855469 -42.886875 69.99710937 -43.34375 69.48046875 C-46.44287057 66.71026428 -50.84064272 67.97051822 -54.7734375 68.1875 C-58.41978773 67.97560556 -60.10666568 67.17513076 -63 65 C-64.875 62.5 -64.875 62.5 -66 60 C-65.67 59.01 -65.34 58.02 -65 57 C-64.1028125 57.9590625 -64.1028125 57.9590625 -63.1875 58.9375 C-59.5757049 62.3429068 -56.13427834 62.26517502 -51.421875 62.234375 C-47.61072864 61.86555438 -44.51803948 60.48127978 -41 59 C-40.34 59 -39.68 59 -39 59 C-39 58.34 -39 57.68 -39 57 C-37.03852126 55.61061923 -35.03833424 54.2739589 -33 53 C-33.52965089 50.08692009 -34.20076009 47.33867264 -35.0625 44.5 C-35.88202408 41.44044344 -36.18973675 39.13065644 -36 36 C-34.1875 36.5 -34.1875 36.5 -32 38 C-29.32458372 43.44638313 -27.73380661 48.92459503 -29 55 C-31.3125 57.875 -31.3125 57.875 -34 60 C-34.515625 60.5775 -35.03125 61.155 -35.5625 61.75 C-37.30415178 63.26447981 -38.78268579 63.48262668 -41 64 C-41.33 64.66 -41.66 65.32 -42 66 C-36.46342706 66.42589023 -32.10334017 64.905247 -27 63 C-27 62.34 -27 61.68 -27 61 C-22.52941176 57 -22.52941176 57 -20 57 C-20.33 52.71 -20.66 48.42 -21 44 C-18.69 44.33 -16.38 44.66 -14 45 C-13.67 43.68 -13.34 42.36 -13 41 C-11.68 41 -10.36 41 -9 41 C-9 39.68 -9 38.36 -9 37 C-9.66 37 -10.32 37 -11 37 C-11 37.66 -11 38.32 -11 39 C-11.66 39 -12.32 39 -13 39 C-12.34 37.02 -11.68 35.04 -11 33 C-9.34385343 32.61781233 -7.67542976 32.28604898 -6 32 C-5 33 -5 33 -4.90234375 35.50390625 C-4.91394531 36.51324219 -4.92554688 37.52257812 -4.9375 38.5625 C-4.94652344 39.57441406 -4.95554688 40.58632812 -4.96484375 41.62890625 C-4.97644531 42.41136719 -4.98804688 43.19382813 -5 44 C-2.03 43.505 -2.03 43.505 1 43 C1.0436868 38.77208814 1.07340651 34.54456236 1.06640625 30.31640625 C1.06584229 29.59912354 1.06527832 28.88184082 1.06469727 28.14282227 C0.99704731 25.9022047 0.77257925 23.72458288 0.5 21.5 C0.13741786 18.54088253 -0.06406214 15.66497196 -0.06640625 12.68359375 C-0.06769531 11.905 -0.06898438 11.12640625 -0.0703125 10.32421875 C-0.05904695 6.88259242 -0.03556053 3.44146918 0 0 Z " fill="#D0E2E4" transform="translate(154,65)"/>
<path d="M0 0 C0.66 0 1.32 0 2 0 C2 1.98 2 3.96 2 6 C2.99 6.33 3.98 6.66 5 7 C8.94086275 13.58374292 8.02150644 20.72638187 7 28 C9.02257219 27.26009792 9.02257219 27.26009792 11 26 C11.81870185 22.43793339 11.81870185 22.43793339 12 19 C13.98 19.495 13.98 19.495 16 20 C16 22.31 16 24.62 16 27 C14.02 27.99 12.04 28.98 10 30 C9.67 39.57 9.34 49.14 9 59 C8.34 59 7.68 59 7 59 C6.67 61.97 6.34 64.94 6 68 C6.99 68.495 6.99 68.495 8 69 C5.525 69.495 5.525 69.495 3 70 C3.16371094 69.21367188 3.32742187 68.42734375 3.49609375 67.6171875 C4.12655771 63.09153151 4.10715524 58.68670432 4.0625 54.125 C4.05798828 53.24585938 4.05347656 52.36671875 4.04882812 51.4609375 C4.03712337 49.30726197 4.01919069 47.15362183 4 45 C3.34 45 2.68 45 2 45 C1.505 43.02 1.505 43.02 1 41 C-1.475 41.495 -1.475 41.495 -4 42 C-4.33937108 39.02141273 -4.67162259 36.04230315 -5 33.0625 C-5.09539062 32.23169922 -5.19078125 31.40089844 -5.2890625 30.54492188 C-6.07614095 23.32066608 -6.72774068 16.1269303 -5 9 C-5 8.34 -5 7.68 -5 7 C-5.66 7 -6.32 7 -7 7 C-7.495 5.515 -7.495 5.515 -8 4 C-8.33 6.31 -8.66 8.62 -9 11 C-9.68707031 11.12117188 -10.37414062 11.24234375 -11.08203125 11.3671875 C-11.98308594 11.53476563 -12.88414063 11.70234375 -13.8125 11.875 C-14.70582031 12.03742188 -15.59914062 12.19984375 -16.51953125 12.3671875 C-19.22727846 12.91188449 -19.22727846 12.91188449 -22 15 C-22.99 15 -23.98 15 -25 15 C-25 14.01 -25 13.02 -25 12 C-27.64 12 -30.28 12 -33 12 C-33 12.66 -33 13.32 -33 14 C-34.26839526 14.50615298 -35.53983102 15.00469099 -36.8125 15.5 C-37.52019531 15.7784375 -38.22789063 16.056875 -38.95703125 16.34375 C-41 17 -41 17 -44 17 C-44 16.01 -44 15.02 -44 14 C-44.99 14 -45.98 14 -47 14 C-47 12.02 -47 10.04 -47 8 C-48.32 7.67 -49.64 7.34 -51 7 C-50.67 5.68 -50.34 4.36 -50 3 C-49.01 3 -48.02 3 -47 3 C-47 3.66 -47 4.32 -47 5 C-46.01 5 -45.02 5 -44 5 C-44 4.34 -44 3.68 -44 3 C-42.68 3 -41.36 3 -40 3 C-40 3.99 -40 4.98 -40 6 C-40.99 6 -41.98 6 -43 6 C-43 8.31 -43 10.62 -43 13 C-40.7058862 12.38304511 -38.41500322 11.75687956 -36.125 11.125 C-35.47402344 10.95097656 -34.82304688 10.77695313 -34.15234375 10.59765625 C-30.1931563 9.50470421 -30.1931563 9.50470421 -27 7 C-25.68 7 -24.36 7 -23 7 C-23 7.99 -23 8.98 -23 10 C-22.34 10 -21.68 10 -21 10 C-20.67 7.36 -20.34 4.72 -20 2 C-15.125 2.875 -15.125 2.875 -14 4 C-13.95936168 5.66617115 -13.957279 7.33388095 -14 9 C-13.01 9 -12.02 9 -11 9 C-11 6.69 -11 4.38 -11 2 C-8.525 2.495 -8.525 2.495 -6 3 C-6 3.66 -6 4.32 -6 5 C-2.55369942 3.85123314 -2.08379321 2.80859085 0 0 Z " fill="#2C8286" transform="translate(105,56)"/>
<path d="M0 0 C0.33 0 0.66 0 1 0 C1.08782542 3.52067351 1.14066643 7.04106144 1.1875 10.5625 C1.21263672 11.55314453 1.23777344 12.54378906 1.26367188 13.56445312 C1.32285027 19.50201923 0.95054255 23.79189947 -2 29 C-5.44356982 30.72178491 -9.2271572 30.37858976 -13 30 C-15.96912882 28.61019502 -17.69657028 27.30342972 -20 25 C-19.34 26.98 -18.68 28.96 -18 31 C-21.96 31.495 -21.96 31.495 -26 32 C-26 33.65 -26 35.3 -26 37 C-26.66 37 -27.32 37 -28 37 C-28.33 35.68 -28.66 34.36 -29 33 C-29.99 33 -30.98 33 -32 33 C-32.12618297 28.45741325 -32.12618297 28.45741325 -31.5 26.1875 C-30.72382018 22.7917133 -30.9420419 19.47748586 -31 16 C-32.32 16 -33.64 16 -35 16 C-35 18.31 -35 20.62 -35 23 C-35.66 23.33 -36.32 23.66 -37 24 C-36.98715706 20.57735755 -36.85157135 17.3249251 -36 14 C-33.0625 12.375 -33.0625 12.375 -30 11 C-28.84139824 8.32174384 -28.47716019 5.91067714 -28 3 C-27.01 3.825 -26.02 4.65 -25 5.5 C-20.788748 8.49580935 -18.09227328 8.84871221 -13 8 C-12.54625 7.175 -12.0925 6.35 -11.625 5.5 C-11.08875 4.675 -10.5525 3.85 -10 3 C-6.63493352 2.53339209 -3.37722936 2.71486806 0 3 C0 2.01 0 1.02 0 0 Z " fill="#2F8388" transform="translate(109,98)"/>
<path d="M0 0 C0 1.32 0 2.64 0 4 C-0.66 4 -1.32 4 -2 4 C-1.67 7.63 -1.34 11.26 -1 15 C-1.99 15 -2.98 15 -4 15 C-4 18.96 -4 22.92 -4 27 C-4.66 27 -5.32 27 -6 27 C-6.33 27.66 -6.66 28.32 -7 29 C-6.01 29 -5.02 29 -4 29 C-4 29.66 -4 30.32 -4 31 C-5.65 31.33 -7.3 31.66 -9 32 C-8.42547254 35.93075644 -8.42547254 35.93075644 -6 39 C-5.46890625 38.52949219 -4.9378125 38.05898437 -4.390625 37.57421875 C-3.68421875 36.95160156 -2.9778125 36.32898438 -2.25 35.6875 C-1.55390625 35.07261719 -0.8578125 34.45773438 -0.140625 33.82421875 C0.56578125 33.22222656 1.2721875 32.62023437 2 32 C2.66515625 31.42894531 3.3303125 30.85789062 4.015625 30.26953125 C6 29 6 29 10 29 C9.67 24.38 9.34 19.76 9 15 C10.32 15.66 11.64 16.32 13 17 C13.65234375 19.3125 13.65234375 19.3125 13.9375 22 C14.30215795 24.66150318 14.30215795 24.66150318 15 27 C17.45748398 28.75568004 17.45748398 28.75568004 20 29 C20 30.65 20 32.3 20 34 C19.08476563 34.08636719 18.16953125 34.17273438 17.2265625 34.26171875 C16.03804687 34.40222656 14.84953125 34.54273438 13.625 34.6875 C12.44164063 34.81511719 11.25828125 34.94273438 10.0390625 35.07421875 C6.78498188 35.67857053 6.78498188 35.67857053 5.5859375 38.58203125 C5.39257812 39.37996094 5.19921875 40.17789063 5 41 C7.64 40.67 10.28 40.34 13 40 C15 43 15 43 15 47 C11.7 47 8.4 47 5 47 C5.061875 48.4025 5.12375 49.805 5.1875 51.25 C5.20267162 54.46132619 5.15582386 55.7338009 3.5 58.5625 C3.005 59.036875 2.51 59.51125 2 60 C1.34 58.35 0.68 56.7 0 55 C-3.465 55.495 -3.465 55.495 -7 56 C-7.33 53.03 -7.66 50.06 -8 47 C-8.928125 47.04125 -9.85625 47.0825 -10.8125 47.125 C-14 47 -14 47 -17 45 C-18.49084832 40.52745503 -18.49084832 36.47254497 -17 32 C-16.34 32 -15.68 32 -15 32 C-15.02320313 31.22914062 -15.04640625 30.45828125 -15.0703125 29.6640625 C-15.08835937 28.66117188 -15.10640625 27.65828125 -15.125 26.625 C-15.14820313 25.62726563 -15.17140625 24.62953125 -15.1953125 23.6015625 C-15 21 -15 21 -13 19 C-12.34 21.64 -11.68 24.28 -11 27 C-10.34 27 -9.68 27 -9 27 C-9.020625 26.2575 -9.04125 25.515 -9.0625 24.75 C-9 22 -9 22 -8.53125 20.25 C-7.82509713 17.2592349 -7.65196305 14.31375786 -7.4375 11.25 C-7.35371094 10.07953125 -7.26992188 8.9090625 -7.18359375 7.703125 C-7.12300781 6.81109375 -7.06242187 5.9190625 -7 5 C-7.66 4.67 -8.32 4.34 -9 4 C-9 3.34 -9 2.68 -9 2 C-3.375 0 -3.375 0 0 0 Z " fill="#267E83" transform="translate(43,69)"/>
<path d="M0 0 C-0.62759865 2.92879371 -1.58622659 5.36095629 -3 8 C-2.01 7.34 -1.02 6.68 0 6 C1.31514102 11.01857815 1.18382471 16.03841519 1.1875 21.1875 C1.19974609 22.10208984 1.21199219 23.01667969 1.22460938 23.95898438 C1.22654297 24.83232422 1.22847656 25.70566406 1.23046875 26.60546875 C1.23457764 27.40106201 1.23868652 28.19665527 1.24291992 29.01635742 C1 31 1 31 -1 33 C-3.5625 33.5625 -3.5625 33.5625 -7 33 C-9.37106553 31.43974246 -11.50141138 29.70647755 -13.67578125 27.8828125 C-16.47845204 25.61241364 -19.44040298 23.82838582 -22.56640625 22.04296875 C-23.03949219 21.69878906 -23.51257813 21.35460937 -24 21 C-24 20.34 -24 19.68 -24 19 C-24.78375 18.690625 -25.5675 18.38125 -26.375 18.0625 C-29 17 -29 17 -31 16 C-29.9024777 13.00675737 -29.32317108 12.15389099 -26.375 10.75 C-25.59125 10.5025 -24.8075 10.255 -24 10 C-24 9.34 -24 8.68 -24 8 C-21.96023786 7.03761964 -19.91809954 6.08027473 -17.875 5.125 C-16.16957031 4.32449219 -16.16957031 4.32449219 -14.4296875 3.5078125 C-9.53424424 1.35560168 -5.3931499 -0.31724411 0 0 Z " fill="#2F8489" transform="translate(96,70)"/>
<path d="M0 0 C0.99 0.33 1.98 0.66 3 1 C9.07851754 1.32909171 15.01123956 1.06466852 21 0 C21 0.99 21 1.98 21 3 C19.906875 3.28875 18.81375 3.5775 17.6875 3.875 C13.95986155 4.81893204 13.95986155 4.81893204 11 7 C11.49242188 7.94746094 11.98484375 8.89492187 12.4921875 9.87109375 C14.50854912 14.58975903 14.29021876 19.00910068 14.125 24.0625 C14.09238911 25.92180968 14.06375744 27.78119333 14.0390625 29.640625 C14.02649414 30.54748047 14.01392578 31.45433594 14.00097656 32.38867188 C13.99889819 37.94623842 14.47946198 43.46928354 15 49 C16.65 49 18.3 49 20 49 C19.7525 50.7634375 19.7525 50.7634375 19.5 52.5625 C19.10995208 55.46219832 19.05224112 57.78361679 19.25 60.75 C19 64 19 64 16.625 66.4375 C14 68 14 68 12 68 C12 68.66 12 69.32 12 70 C2.77448747 74.77676538 2.77448747 74.77676538 -3 73 C-2.67 72.01 -2.34 71.02 -2 70 C-0.88625 69.5978125 -0.88625 69.5978125 0.25 69.1875 C3.07113105 67.96928432 3.84708345 67.20692246 5.6875 64.875 C6.450625 63.92625 7.21375 62.9775 8 62 C8.66 62 9.32 62 10 62 C9.48517081 56.147205 8.54642808 50.6702363 7 45 C7.66 45 8.32 45 9 45 C9.11114233 32.94723146 8.94014291 21.02039864 8 9 C6.68 9 5.36 9 4 9 C3.67 8.34 3.34 7.68 3 7 C2.01 7 1.02 7 0 7 C0 4.69 0 2.38 0 0 Z " fill="#33868B" transform="translate(115,58)"/>
<path d="M0 0 C1.65 0.33 3.3 0.66 5 1 C5.33 2.32 5.66 3.64 6 5 C7.32 4.67 8.64 4.34 10 4 C11.30064871 17.69659193 12.33658532 31.23740043 12 45 C11.67 45 11.34 45 11 45 C10.34 39.06 9.68 33.12 9 27 C8.34 27.66 7.68 28.32 7 29 C3.375 29.125 3.375 29.125 0 29 C0 29.66 0 30.32 0 31 C-1.32 30.67 -2.64 30.34 -4 30 C-5.125 26.25 -5.125 26.25 -4 24 C-5.98 24 -7.96 24 -10 24 C-8.06745228 21.9754262 -6.36841312 20.57894208 -4 19 C-3.95834237 17.00043389 -3.95834237 14.99956611 -4 13 C-3.34 12.34 -2.68 11.68 -2 11 C-1.01 11 -0.02 11 1 11 C0.67 10.34 0.34 9.68 0 9 C-0.06950541 7.45976004 -0.08452357 5.91665012 -0.0625 4.375 C-0.05347656 3.55773437 -0.04445312 2.74046875 -0.03515625 1.8984375 C-0.02355469 1.27195312 -0.01195312 0.64546875 0 0 Z " fill="#2F8388" transform="translate(144,63)"/>
<path d="M0 0 C0.99 0.804375 1.98 1.60875 3 2.4375 C6.99119164 5.32682892 10.13291572 5.74383767 15 6 C14.34 7.32 13.68 8.64 13 10 C16.63 10 20.26 10 24 10 C24 10.99 24 11.98 24 13 C23.01 13.33 22.02 13.66 21 14 C20.67 15.65 20.34 17.3 20 19 C19.01 19 18.02 19 17 19 C16.67 17.68 16.34 16.36 16 15 C15.38125 14.938125 14.7625 14.87625 14.125 14.8125 C13.42375 14.544375 12.7225 14.27625 12 14 C11.33333333 12.33333333 10.66666667 10.66666667 10 9 C8.15732132 7.91431497 8.15732132 7.91431497 6 8 C3.78228936 8.85790183 3.78228936 8.85790183 2 10 C1.76571687 14.7897321 1.76571687 14.7897321 4 19 C4.66 16.03 5.32 13.06 6 10 C6.99 10 7.98 10 9 10 C9.33 14.29 9.66 18.58 10 23 C9.34 22.67 8.68 22.34 8 22 C8.66 23.98 9.32 25.96 10 28 C6.04 28.495 6.04 28.495 2 29 C2 30.65 2 32.3 2 34 C1.34 34 0.68 34 0 34 C-0.33 32.68 -0.66 31.36 -1 30 C-1.99 30 -2.98 30 -4 30 C-4.12618297 25.45741325 -4.12618297 25.45741325 -3.5 23.1875 C-2.72382018 19.7917133 -2.9420419 16.47748586 -3 13 C-4.32 13 -5.64 13 -7 13 C-7 15.31 -7 17.62 -7 20 C-7.66 20.33 -8.32 20.66 -9 21 C-8.98715706 17.57735755 -8.85157135 14.3249251 -8 11 C-5.0625 9.375 -5.0625 9.375 -2 8 C-0.84139824 5.32174384 -0.47716019 2.91067714 0 0 Z " fill="#37888C" transform="translate(81,101)"/>
<path d="M0 0 C7.22594146 0.18528055 11.75946019 5.28273802 17.0078125 9.68359375 C20.21789492 11.80476586 23.20861238 11.68405103 27 12 C26.67 13.32 26.34 14.64 26 16 C19.01057082 16.602537 19.01057082 16.602537 16.1328125 14.88671875 C14.69138998 13.66254412 13.33721771 12.33721771 12 11 C11.773125 12.093125 11.54625 13.18625 11.3125 14.3125 C10 18 10 18 7.5 19.9375 C5 21 5 21 3 21 C3.04125 22.216875 3.0825 23.43375 3.125 24.6875 C3.09337237 28.27407356 2.97926101 30.90202624 1 34 C-2.1875 36.0625 -2.1875 36.0625 -4.07421875 37.01953125 C-5.97484468 37.98719273 -7.70779305 39.09700004 -9.5 40.25 C-13.4419192 42.2209596 -15.65546957 42.65577818 -20 42 C-22.4375 40.3125 -22.4375 40.3125 -24 38 C-24.25 35.25 -24.25 35.25 -24 33 C-23.484375 33.66 -22.96875 34.32 -22.4375 35 C-20.05912084 37.31540104 -20.05912084 37.31540104 -16.4375 37.4375 C-12.6505998 36.95553088 -12.33948017 36.72939354 -10 34 C-6.47729839 31.74097022 -2.7479299 29.85337193 1 28 C0.7834375 27.11248047 0.7834375 27.11248047 0.5625 26.20703125 C-0.40822694 22.07470059 -1.27593702 18.2770238 -1 14 C-0.01 14 0.98 14 2 14 C2 14.66 2 15.32 2 16 C5.465 15.505 5.465 15.505 9 15 C8.74204721 11.5176374 7.78438795 10.81191289 5.0625 8.4375 C4.051875 7.633125 3.04125 6.82875 2 6 C0 3 0 3 0 0 Z " fill="#D8E8E9" transform="translate(70,91)"/>
<path d="M0 0 C0.99 0 1.98 0 3 0 C5.03435531 3.72965139 6 5.66905042 6 10 C5.34 10 4.68 10 4 10 C4.144375 10.98355469 4.28875 11.96710938 4.4375 12.98046875 C6.04142568 24.69255704 6.20776815 36.19184335 6 48 C4.02 48.495 4.02 48.495 2 49 C1.67 47.02 1.34 45.04 1 43 C-2.60654039 45.40436026 -2.85452932 46.94679607 -4 51 C-3.34 51 -2.68 51 -2 51 C-2.33 52.32 -2.66 53.64 -3 55 C-4.32 54.67 -5.64 54.34 -7 54 C-7 43.77777778 -7 43.77777778 -5 40 C-4.32033324 38.33859237 -3.65061095 36.67299959 -3 35 C-2.34 35 -1.68 35 -1 35 C-0.67 23.45 -0.34 11.9 0 0 Z " fill="#3F8C91" transform="translate(161,71)"/>
<path d="M0 0 C0.99 0 1.98 0 3 0 C5.07005137 7.87821942 5.3104197 15.62406497 5.26074219 23.72436523 C5.24992903 25.82629643 5.26074158 27.92738999 5.2734375 30.02929688 C5.27211726 31.3802102 5.26955768 32.73112301 5.265625 34.08203125 C5.26336914 35.29093018 5.26111328 36.4998291 5.25878906 37.74536133 C4.88771946 42.41208669 3.47755461 46.75328949 0 50 C-3.35546875 50.390625 -3.35546875 50.390625 -7.1875 50.25 C-8.45980469 50.21390625 -9.73210937 50.1778125 -11.04296875 50.140625 C-12.01878906 50.09421875 -12.99460938 50.0478125 -14 50 C-14 48.68 -14 47.36 -14 46 C-15.65 46 -17.3 46 -19 46 C-19 45.67 -19 45.34 -19 45 C-17.35 45 -15.7 45 -14 45 C-13.67 43.68 -13.34 42.36 -13 41 C-11.68 41 -10.36 41 -9 41 C-9 39.68 -9 38.36 -9 37 C-9.66 37 -10.32 37 -11 37 C-11 37.66 -11 38.32 -11 39 C-11.66 39 -12.32 39 -13 39 C-12.34 37.02 -11.68 35.04 -11 33 C-9.34385343 32.61781233 -7.67542976 32.28604898 -6 32 C-5 33 -5 33 -4.90234375 35.50390625 C-4.91394531 36.51324219 -4.92554688 37.52257812 -4.9375 38.5625 C-4.94652344 39.57441406 -4.95554688 40.58632812 -4.96484375 41.62890625 C-4.97644531 42.41136719 -4.98804688 43.19382813 -5 44 C-2.03 43.505 -2.03 43.505 1 43 C1.0436868 38.77208814 1.07340651 34.54456236 1.06640625 30.31640625 C1.06584229 29.59912354 1.06527832 28.88184082 1.06469727 28.14282227 C0.99704731 25.9022047 0.77257925 23.72458288 0.5 21.5 C0.13741786 18.54088253 -0.06406214 15.66497196 -0.06640625 12.68359375 C-0.06833984 11.51570313 -0.06833984 11.51570313 -0.0703125 10.32421875 C-0.05904695 6.88259242 -0.03556053 3.44146918 0 0 Z " fill="#B8D5D7" transform="translate(154,65)"/>
<path d="M0 0 C0.66 0.33 1.32 0.66 2 1 C1.34 2.65 0.68 4.3 0 6 C2.64 5.67 5.28 5.34 8 5 C10 8 10 8 10 12 C6.7 12 3.4 12 0 12 C0.061875 13.4025 0.12375 14.805 0.1875 16.25 C0.20267162 19.46132619 0.15582386 20.7338009 -1.5 23.5625 C-1.995 24.036875 -2.49 24.51125 -3 25 C-3.66 23.35 -4.32 21.7 -5 20 C-7.31 20.33 -9.62 20.66 -12 21 C-12.33 18.03 -12.66 15.06 -13 12 C-14.98 12 -16.96 12 -19 12 C-19 11.67 -19 11.34 -19 11 C-17.948125 10.7525 -16.89625 10.505 -15.8125 10.25 C-12.17261272 9.23318938 -9.87388796 7.46333254 -7 5 C-6.34 5 -5.68 5 -5 5 C-4.67 4.01 -4.34 3.02 -4 2 C-2.0625 0.75 -2.0625 0.75 0 0 Z " fill="#34868B" transform="translate(48,104)"/>
<path d="M0 0 C0.99 0.33 1.98 0.66 3 1 C9.07851754 1.32909171 15.01123956 1.06466852 21 0 C21 0.99 21 1.98 21 3 C19.906875 3.28875 18.81375 3.5775 17.6875 3.875 C13.95986155 4.81893204 13.95986155 4.81893204 11 7 C11.48895752 7.95592041 11.97791504 8.91184082 12.48168945 9.89672852 C14.43728979 14.48336695 14.38153434 18.72927795 14.29296875 23.65234375 C14.28872391 24.55247696 14.28447906 25.45261017 14.28010559 26.38002014 C14.26341816 29.23282786 14.22578497 32.08490863 14.1875 34.9375 C14.1724403 36.88084912 14.15875415 38.82420939 14.14648438 40.76757812 C14.11354726 45.51199549 14.0618344 50.25587483 14 55 C13.34 55 12.68 55 12 55 C11.42722499 49.2528273 10.85765078 43.50534967 10.29101562 37.75756836 C10.09788121 35.80305452 9.90387873 33.84862624 9.70898438 31.89428711 C9.42869422 29.08209021 9.1515467 26.26959844 8.875 23.45703125 C8.74375732 22.15050346 8.74375732 22.15050346 8.60986328 20.81758118 C8.22382379 16.86249691 7.8859804 12.97999678 8 9 C6.68 9 5.36 9 4 9 C3.67 8.34 3.34 7.68 3 7 C2.01 7 1.02 7 0 7 C0 4.69 0 2.38 0 0 Z " fill="#4B9599" transform="translate(115,58)"/>
<path d="M0 0 C4.875 0.875 4.875 0.875 6 2 C6.04063832 3.66617115 6.042721 5.33388095 6 7 C6.99 7 7.98 7 9 7 C9 4.69 9 2.38 9 0 C11.475 0.495 11.475 0.495 14 1 C13.67 2.32 13.34 3.64 13 5 C12.505 3.515 12.505 3.515 12 2 C11.67 4.31 11.34 6.62 11 9 C10.31292969 9.12117188 9.62585938 9.24234375 8.91796875 9.3671875 C8.01691406 9.53476563 7.11585937 9.70234375 6.1875 9.875 C5.29417969 10.03742188 4.40085938 10.19984375 3.48046875 10.3671875 C0.77272154 10.91188449 0.77272154 10.91188449 -2 13 C-2.99 13 -3.98 13 -5 13 C-5 12.01 -5 11.02 -5 10 C-7.64 10 -10.28 10 -13 10 C-13 10.66 -13 11.32 -13 12 C-14.26839526 12.50615298 -15.53983102 13.00469099 -16.8125 13.5 C-17.52019531 13.7784375 -18.22789063 14.056875 -18.95703125 14.34375 C-21 15 -21 15 -24 15 C-24 14.01 -24 13.02 -24 12 C-24.99 12 -25.98 12 -27 12 C-27 10.02 -27 8.04 -27 6 C-28.32 5.67 -29.64 5.34 -31 5 C-30.67 3.68 -30.34 2.36 -30 1 C-29.01 1 -28.02 1 -27 1 C-27 1.66 -27 2.32 -27 3 C-26.01 3 -25.02 3 -24 3 C-24 2.34 -24 1.68 -24 1 C-22.68 1 -21.36 1 -20 1 C-20 1.99 -20 2.98 -20 4 C-20.99 4 -21.98 4 -23 4 C-23 6.31 -23 8.62 -23 11 C-20.7058862 10.38304511 -18.41500322 9.75687956 -16.125 9.125 C-15.47402344 8.95097656 -14.82304688 8.77695313 -14.15234375 8.59765625 C-10.1931563 7.50470421 -10.1931563 7.50470421 -7 5 C-5.68 5 -4.36 5 -3 5 C-3 5.99 -3 6.98 -3 8 C-2.34 8 -1.68 8 -1 8 C-0.67 5.36 -0.34 2.72 0 0 Z " fill="#55999C" transform="translate(85,58)"/>
<path d="M0 0 C0.66 0 1.32 0 2 0 C2.33 1.65 2.66 3.3 3 5 C4.32 3.68 5.64 2.36 7 1 C7.495 7.93 7.495 7.93 8 15 C6.35 15.66 4.7 16.32 3 17 C1.2287145 18.29858862 -0.5004559 19.65620454 -2.1875 21.0625 C-6.8405467 24.92027335 -6.8405467 24.92027335 -9 26 C-12.07692308 21.56923077 -12.07692308 21.56923077 -11.6875 18.6875 C-11.460625 18.130625 -11.23375 17.57375 -11 17 C-10.34 17.33 -9.68 17.66 -9 18 C-8.67 17.34 -8.34 16.68 -8 16 C-7.34 16.33 -6.68 16.66 -6 17 C-6 16.34 -6 15.68 -6 15 C-6.99 15 -7.98 15 -9 15 C-9 12.69 -9 10.38 -9 8 C-8.67 8 -8.34 8 -8 8 C-8 9.65 -8 11.3 -8 13 C-7.34 13 -6.68 13 -6 13 C-6 10.69 -6 8.38 -6 6 C-5.67 6 -5.34 6 -5 6 C-5 8.31 -5 10.62 -5 13 C-4.34 13 -3.68 13 -3 13 C-2.86722656 12.14535156 -2.73445313 11.29070312 -2.59765625 10.41015625 C-2.42105469 9.30542969 -2.24445312 8.20070313 -2.0625 7.0625 C-1.88847656 5.96035156 -1.71445312 4.85820313 -1.53515625 3.72265625 C-1 1 -1 1 0 0 Z " fill="#2C8186" transform="translate(45,83)"/>
<path d="M0 0 C1.32 0.66 2.64 1.32 4 2 C4.65234375 4.3125 4.65234375 4.3125 4.9375 7 C5.30215795 9.66150318 5.30215795 9.66150318 6 12 C8.45748398 13.75568004 8.45748398 13.75568004 11 14 C11 15.65 11 17.3 11 19 C9.96359375 19.12117188 8.9271875 19.24234375 7.859375 19.3671875 C6.48953562 19.53607181 5.11974651 19.70536411 3.75 19.875 C3.06808594 19.95363281 2.38617188 20.03226563 1.68359375 20.11328125 C-5.36253017 21.00259786 -8.10754905 22.98523778 -13 28 C-15.56310724 30.39774548 -16.5777039 30.95777039 -20.125 31.3125 C-23 31 -23 31 -25 29 C-24.505 27.515 -24.505 27.515 -24 26 C-23.16726562 26.12375 -22.33453125 26.2475 -21.4765625 26.375 C-16.49664128 25.83783996 -14.03977567 23.24135537 -10.375 20 C-9.07787323 18.86629077 -7.77343002 17.74088433 -6.4609375 16.625 C-5.60701416 15.87089844 -5.60701416 15.87089844 -4.73583984 15.1015625 C-3 14 -3 14 1 14 C0.67 9.38 0.34 4.76 0 0 Z " fill="#A4C9CB" transform="translate(52,84)"/>
<path d="M0 0 C3.6310464 5.4465696 3.14879864 10.74542962 2 17 C4.06402968 16.51294288 4.06402968 16.51294288 6 15 C6.81870185 11.43793339 6.81870185 11.43793339 7 8 C8.32 8.33 9.64 8.66 11 9 C11 11.31 11 13.62 11 16 C9.02 16.99 7.04 17.98 5 19 C4.67 28.57 4.34 38.14 4 48 C3.01 48 2.02 48 1 48 C0.67 39.42 0.34 30.84 0 22 C-0.66 22 -1.32 22 -2 22 C-1.86181468 18.52048477 -1.71317399 15.04149505 -1.5625 11.5625 C-1.52318359 10.56927734 -1.48386719 9.57605469 -1.44335938 8.55273438 C-1.40146484 7.60849609 -1.35957031 6.66425781 -1.31640625 5.69140625 C-1.27974854 4.81685791 -1.24309082 3.94230957 -1.20532227 3.04125977 C-1 1 -1 1 0 0 Z " fill="#A3C8CB" transform="translate(110,67)"/>
<path d="M0 0 C2.3125 1.5 2.3125 1.5 3.125 4.125 C3.186875 4.90875 3.24875 5.6925 3.3125 6.5 C4.9625 6.83 6.6125 7.16 8.3125 7.5 C8.3125 8.82 8.3125 10.14 8.3125 11.5 C9.3025 11.5 10.2925 11.5 11.3125 11.5 C11.3125 9.85 11.3125 8.2 11.3125 6.5 C12.9625 6.17 14.6125 5.84 16.3125 5.5 C16.3125 9.02398786 15.76134893 9.51504367 13.5 12.0625 C12.97792969 12.66191406 12.45585938 13.26132813 11.91796875 13.87890625 C10.3125 15.5 10.3125 15.5 7.3125 17.5 C4.125 17.125 4.125 17.125 1.3125 16.5 C0.26273036 13.35069107 0.21118405 11.11185544 0.25 7.8125 C0.25902344 6.81863281 0.26804687 5.82476562 0.27734375 4.80078125 C0.28894531 4.04152344 0.30054687 3.28226562 0.3125 2.5 C-0.6775 2.5 -1.6675 2.5 -2.6875 2.5 C-2.73648438 3.13808594 -2.78546875 3.77617188 -2.8359375 4.43359375 C-2.91070312 5.25988281 -2.98546875 6.08617188 -3.0625 6.9375 C-3.13210937 7.76121094 -3.20171875 8.58492187 -3.2734375 9.43359375 C-3.41007812 10.11550781 -3.54671875 10.79742187 -3.6875 11.5 C-4.6775 11.995 -4.6775 11.995 -5.6875 12.5 C-7.37635671 9.91704268 -7.69041535 8.57142606 -7.5625 5.4375 C-6.6875 2.5 -6.6875 2.5 -4.9375 0.5 C-2.6875 -0.5 -2.6875 -0.5 0 0 Z " fill="#267E83" transform="translate(89.6875,108.5)"/>
<path d="M0 0 C1.65 0.33 3.3 0.66 5 1 C5 2.32 5 3.64 5 5 C4.01 5.33 3.02 5.66 2 6 C2 7.32 2 8.64 2 10 C2.66 10.33 3.32 10.66 4 11 C3.67 12.98 3.34 14.96 3 17 C3.99 17 4.98 17 6 17 C5.67 18.65 5.34 20.3 5 22 C3.02 21.67 1.04 21.34 -1 21 C-1.33 19.35 -1.66 17.7 -2 16 C-2.99 15.67 -3.98 15.34 -5 15 C-5.94921875 13.15234375 -5.94921875 13.15234375 -6.6875 10.9375 C-6.93886719 10.20402344 -7.19023438 9.47054687 -7.44921875 8.71484375 C-7.63097656 8.14894531 -7.81273438 7.58304687 -8 7 C-4.16674383 4.29417212 -1.67461851 3.67386382 3 4 C3 3.01 3 2.02 3 1 C2.01 0.67 1.02 0.34 0 0 Z " fill="#31848A" transform="translate(133,57)"/>
<path d="M0 0 C7.22594146 0.18528055 11.75946019 5.28273802 17.0078125 9.68359375 C20.21789492 11.80476586 23.20861238 11.68405103 27 12 C26.67 13.32 26.34 14.64 26 16 C18.23214286 16.66964286 18.23214286 16.66964286 14.5 13.625 C12 11 12 11 12 9 C11.13375 9.309375 10.2675 9.61875 9.375 9.9375 C6 10 6 10 4.265625 8.61328125 C0 3.76875 0 3.76875 0 0 Z " fill="#DFEDED" transform="translate(70,91)"/>
<path d="M0 0 C0.66 0 1.32 0 2 0 C4.43160605 3.36683915 5 4.73350364 5 9 C4.34 9 3.68 9 3 9 C3.0714624 9.56380371 3.1429248 10.12760742 3.21655273 10.70849609 C4.05519857 18.02851922 4.11584345 25.26360458 4.0625 32.625 C4.05798828 33.81996094 4.05347656 35.01492187 4.04882812 36.24609375 C4.03715603 39.16411647 4.02078326 42.08203037 4 45 C3.01 45.495 3.01 45.495 2 46 C1.70853669 41.86021325 1.4241109 37.72001309 1.14550781 33.5793457 C1.05031859 32.17817948 0.95338384 30.77713048 0.85449219 29.3762207 C0.16342987 19.56384094 -0.12794271 9.83826106 0 0 Z " fill="#B8D5D7" transform="translate(162,72)"/>
<path d="M0 0 C0.66 0.66 1.32 1.32 2 2 C1.69595322 3.67225729 1.35371498 5.33753959 1 7 C0.68699614 13.24577759 1.24556754 19.36901731 2 25.5625 C2.09539062 26.38041016 2.19078125 27.19832031 2.2890625 28.04101562 C2.52144509 30.02788675 2.76005516 32.01402794 3 34 C4.98 33.505 4.98 33.505 7 33 C7.33 34.65 7.66 36.3 8 38 C5.36 38 2.72 38 0 38 C-0.33 38.99 -0.66 39.98 -1 41 C-1.99 40.34 -2.98 39.68 -4 39 C-3.505 38.505 -3.505 38.505 -3 38 C-2.78128991 35.65209401 -2.62117044 33.32613386 -2.5 30.97265625 C-2.45939453 30.26854111 -2.41878906 29.56442596 -2.37695312 28.838974 C-2.24686729 26.58037439 -2.12276959 24.3215084 -2 22.0625 C-1.83833478 19.09474342 -1.67088485 16.1273945 -1.5 13.16015625 C-1.46455078 12.47365494 -1.42910156 11.78715363 -1.39257812 11.07984924 C-1.1127321 6.22546419 -1.1127321 6.22546419 0 4 C0 2.68 0 1.36 0 0 Z " fill="#B6D3D5" transform="translate(99,63)"/>
<path d="M0 0 C0.99 0.33 1.98 0.66 3 1 C3.87266212 6.23899228 4.13410177 11.25322853 4.09765625 16.55859375 C4.0962413 17.34774673 4.09482635 18.13689972 4.09336853 18.94996643 C4.08781555 21.44585115 4.07527208 23.94164285 4.0625 26.4375 C4.05747891 28.13997265 4.05291707 29.84244673 4.04882812 31.54492188 C4.03786158 35.69664988 4.02062991 39.84830922 4 44 C3.34 44 2.68 44 2 44 C0.38285278 29.28654082 -0.28119532 14.7995258 0 0 Z " fill="#CFE3E4" transform="translate(125,69)"/>
<path d="M0 0 C0.99 0 1.98 0 3 0 C3 0.66 3 1.32 3 2 C3.99 2 4.98 2 6 2 C6 1.34 6 0.68 6 0 C7.32 0 8.64 0 10 0 C10 0.99 10 1.98 10 3 C9.01 3 8.02 3 7 3 C7 5.31 7 7.62 7 10 C8.42892578 9.58427734 8.42892578 9.58427734 9.88671875 9.16015625 C11.14097656 8.79792969 12.39523438 8.43570313 13.6875 8.0625 C14.92886719 7.70285156 16.17023438 7.34320313 17.44921875 6.97265625 C20.29639862 6.19273569 23.09802254 5.52712784 26 5 C26 5.66 26 6.32 26 7 C23.03 7.66 20.06 8.32 17 9 C17 9.66 17 10.32 17 11 C15.73160474 11.50615298 14.46016898 12.00469099 13.1875 12.5 C12.47980469 12.7784375 11.77210937 13.056875 11.04296875 13.34375 C9 14 9 14 6 14 C6 13.01 6 12.02 6 11 C5.01 11 4.02 11 3 11 C3 9.02 3 7.04 3 5 C1.68 4.67 0.36 4.34 -1 4 C-0.67 2.68 -0.34 1.36 0 0 Z " fill="#61A1A4" transform="translate(55,59)"/>
<path d="M0 0 C0 1.32 0 2.64 0 4 C-0.66 4 -1.32 4 -2 4 C-1.67 7.63 -1.34 11.26 -1 15 C-1.99 15 -2.98 15 -4 15 C-4 18.96 -4 22.92 -4 27 C-4.66 27 -5.32 27 -6 27 C-8.19386419 19.38600077 -7.89635331 12.83703499 -7 5 C-7.66 4.67 -8.32 4.34 -9 4 C-9 3.34 -9 2.68 -9 2 C-3.375 0 -3.375 0 0 0 Z " fill="#67A4A7" transform="translate(43,69)"/>
<path d="M0 0 C1.65 0.33 3.3 0.66 5 1 C5 4.63 5 8.26 5 12 C6.65 12 8.3 12 10 12 C10 12.33 10 12.66 10 13 C7.69 13 5.38 13 3 13 C3 12.34 3 11.68 3 11 C2.38125 11.185625 1.7625 11.37125 1.125 11.5625 C-1 12 -1 12 -3 11 C-3 12.32 -3 13.64 -3 15 C1.29 15.33 5.58 15.66 10 16 C10 16.66 10 17.32 10 18 C5.38 18 0.76 18 -4 18 C-4 16.68 -4 15.36 -4 14 C-5.65 14 -7.3 14 -9 14 C-9 13.67 -9 13.34 -9 13 C-7.35 13 -5.7 13 -4 13 C-3.67 11.68 -3.34 10.36 -3 9 C-1.68 9 -0.36 9 1 9 C1 7.68 1 6.36 1 5 C0.34 5 -0.32 5 -1 5 C-1 5.66 -1 6.32 -1 7 C-1.66 7 -2.32 7 -3 7 C-1.125 1.125 -1.125 1.125 0 0 Z " fill="#A5CACB" transform="translate(144,97)"/>
<path d="M0 0 C1.8125 0.5 1.8125 0.5 4 2 C6.67541628 7.44638313 8.26619339 12.92459503 7 19 C4.6875 21.875 4.6875 21.875 2 24 C1.443125 24.598125 0.88625 25.19625 0.3125 25.8125 C-1 27 -1 27 -3 27 C-3 26.34 -3 25.68 -3 25 C-2.34 24.67 -1.68 24.34 -1 24 C-1.66 23.67 -2.32 23.34 -3 23 C-3 22.34 -3 21.68 -3 21 C-1.03852126 19.61061923 0.96166576 18.2739589 3 17 C2.47034911 14.08692009 1.79923991 11.33867264 0.9375 8.5 C0.11797592 5.44044344 -0.18973675 3.13065644 0 0 Z " fill="#BBD7D9" transform="translate(118,101)"/>
<path d="M0 0 C0.88277755 4.51815281 1.10589503 8.77512694 1.0625 13.375 C1.05347656 14.62023437 1.04445312 15.86546875 1.03515625 17.1484375 C1.02355469 18.08945313 1.01195312 19.03046875 1 20 C-0.98 20 -2.96 20 -5 20 C-5.10787818 17.22813012 -5.18723327 14.46044463 -5.25 11.6875 C-5.28351563 10.90181641 -5.31703125 10.11613281 -5.3515625 9.30664062 C-5.45088196 3.47162253 -5.45088196 3.47162253 -3.046875 0.95703125 C-1 0 -1 0 0 0 Z " fill="#277F85" transform="translate(154,89)"/>
<path d="M0 0 C0.33 0 0.66 0 1 0 C1.05790353 3.29159316 1.09356261 6.58305603 1.125 9.875 C1.14175781 10.81214844 1.15851563 11.74929687 1.17578125 12.71484375 C1.18222656 13.61074219 1.18867187 14.50664063 1.1953125 15.4296875 C1.20578613 16.25710449 1.21625977 17.08452148 1.22705078 17.93701172 C1 20 1 20 -1 22 C-3.6875 22.5 -3.6875 22.5 -7 22 C-9.5677737 20.22983136 -11.79094244 18.19598621 -14 16 C-13.01 16 -12.02 16 -11 16 C-10.34 16.66 -9.68 17.32 -9 18 C-8.01 15.36 -7.02 12.72 -6 10 C-5.01 10 -4.02 10 -3 10 C-2.34 11.98 -1.68 13.96 -1 16 C-0.67 10.72 -0.34 5.44 0 0 Z " fill="#3F8C92" transform="translate(96,81)"/>
<path d="M0 0 C-1.44253657 3.36591866 -3.33264727 5.51047079 -6 8 C-5.21625 8.309375 -4.4325 8.61875 -3.625 8.9375 C-1 10 -1 10 1 11 C1 11.66 1 12.32 1 13 C0.34 13 -0.32 13 -1 13 C-0.34 14.65 0.32 16.3 1 18 C-3.26509581 15.99955683 -6.89194287 13.57384225 -10 10 C-10.6875 6.875 -10.6875 6.875 -10 4 C-6.81251647 0.06877031 -4.89210247 -1.46763074 0 0 Z " fill="#CDE2E3" transform="translate(71,78)"/>
<path d="M0 0 C-0.33 0.99 -0.66 1.98 -1 3 C-0.67 3.99 -0.34 4.98 0 6 C-0.5625 8.125 -0.5625 8.125 -2 10 C-5.72392849 11.2413095 -7.33444349 11.33277825 -10.875 9.5625 C-11.57625 9.046875 -12.2775 8.53125 -13 8 C-11.9024777 5.00675737 -11.32317108 4.15389099 -8.375 2.75 C-7.59125 2.5025 -6.8075 2.255 -6 2 C-6 1.34 -6 0.68 -6 0 C-3.50907189 -1.24546405 -2.58919267 -0.7767578 0 0 Z " fill="#2F8388" transform="translate(78,78)"/>
<path d="M0 0 C0.33 0 0.66 0 1 0 C1.99862699 7.36487404 2.10331031 14.57313685 2 22 C4.51083114 20.74458443 4.87125446 19.49936512 6 17 C6.05447047 18.41623216 6.09300508 19.83308191 6.125 21.25 C6.14820313 22.03890625 6.17140625 22.8278125 6.1953125 23.640625 C5.9828378 26.20731941 5.28654105 27.7916067 4 30 C2.68 29.67 1.36 29.34 0 29 C-0.04898438 28.443125 -0.09796875 27.88625 -0.1484375 27.3125 C-0.66555577 22.03432735 -1.60462463 17.11637635 -3 12 C-2.34 12 -1.68 12 -1 12 C-0.67 8.04 -0.34 4.08 0 0 Z " fill="#2E8187" transform="translate(125,91)"/>
<path d="M0 0 C0 0.66 0 1.32 0 2 C2.97 1.34 5.94 0.68 9 0 C8.67 1.32 8.34 2.64 8 4 C7.01 4 6.02 4 5 4 C5 4.66 5 5.32 5 6 C0.545 6.495 0.545 6.495 -4 7 C-4 6.01 -4 5.02 -4 4 C-7.3 4 -10.6 4 -14 4 C-14.33 3.34 -14.66 2.68 -15 2 C-14.07767578 2.03480469 -14.07767578 2.03480469 -13.13671875 2.0703125 C-11.92435547 2.09738281 -11.92435547 2.09738281 -10.6875 2.125 C-9.48673828 2.15980469 -9.48673828 2.15980469 -8.26171875 2.1953125 C-4.89229978 1.90434368 -3.53440927 0 0 0 Z " fill="#4D9397" transform="translate(63,130)"/>
<path d="M0 0 C0.680625 0.12375 1.36125 0.2475 2.0625 0.375 C2.0625 1.035 2.0625 1.695 2.0625 2.375 C-0.1328125 4.5390625 -0.1328125 4.5390625 -3.0625 7 C-4.01382813 7.81726563 -4.96515625 8.63453125 -5.9453125 9.4765625 C-9.32726134 11.62228983 -11.00972341 11.94246914 -14.9375 11.375 C-15.5975 10.715 -16.2575 10.055 -16.9375 9.375 C-16.6075 8.385 -16.2775 7.395 -15.9375 6.375 C-15.091875 6.49875 -14.24625 6.6225 -13.375 6.75 C-9.02397192 6.27534239 -7.69515726 4.62474887 -4.6171875 1.7109375 C-2.9375 0.375 -2.9375 0.375 0 0 Z " fill="#C6DDDF" transform="translate(43.9375,103.625)"/>
<path d="M0 0 C0.66 0 1.32 0 2 0 C2.02926019 4.16665169 2.04688594 8.33327659 2.0625 12.5 C2.07087891 13.67304687 2.07925781 14.84609375 2.08789062 16.0546875 C2.10497844 22.13794882 1.94502752 27.98754144 1 34 C0.67 34 0.34 34 0 34 C-2.2037037 6.61111111 -2.2037037 6.61111111 0 0 Z " fill="#39878C" transform="translate(159,72)"/>
<path d="M0 0 C1.32 0 2.64 0 4 0 C3.34 2.31 2.68 4.62 2 7 C1.34 7 0.68 7 0 7 C-0.33 7.99 -0.66 8.98 -1 10 C-3.67990179 11.98511244 -4.88378631 12.01340927 -8.25 11.625 C-9.61125 11.315625 -9.61125 11.315625 -11 11 C-10.67 10.01 -10.34 9.02 -10 8 C-9.2575 7.731875 -8.515 7.46375 -7.75 7.1875 C-4.9026702 5.95797122 -4.23739969 5.25443396 -2.4375 2.875 C-1.633125 1.92625 -0.82875 0.9775 0 0 Z " fill="#308489" transform="translate(123,120)"/>
<path d="M0 0 C0.33 0.66 0.66 1.32 1 2 C1.66 2 2.32 2 3 2 C3.3684272 6.14469331 3.71712959 10.29082683 4.0625 14.4375 C4.16626953 15.60216797 4.27003906 16.76683594 4.37695312 17.96679688 C4.91183442 24.51448172 4.99389495 30.50145612 4 37 C4.66 37.33 5.32 37.66 6 38 C3.525 38.495 3.525 38.495 1 39 C1.24556641 37.82050781 1.24556641 37.82050781 1.49609375 36.6171875 C2.12655771 32.09153151 2.10715524 27.68670432 2.0625 23.125 C2.05798828 22.24585937 2.05347656 21.36671875 2.04882812 20.4609375 C2.03712337 18.30726197 2.01919069 16.15362183 2 14 C1.34 14 0.68 14 0 14 C0 12.68 0 11.36 0 10 C0.66 10 1.32 10 2 10 C2 7.69 2 5.38 2 3 C0.68 3.33 -0.64 3.66 -2 4 C-2 3.01 -2 2.02 -2 1 C-1.34 0.67 -0.68 0.34 0 0 Z " fill="#50979B" transform="translate(107,87)"/>
<path d="M0 0 C1.33333333 2.66666667 2.66666667 5.33333333 4 8 C3.34 7.67 2.68 7.34 2 7 C2.66 8.98 3.32 10.96 4 13 C1.36 13.33 -1.28 13.66 -4 14 C-4 15.65 -4 17.3 -4 19 C-4.66 19 -5.32 19 -6 19 C-6.33 17.68 -6.66 16.36 -7 15 C-7.99 15 -8.98 15 -10 15 C-10 14.01 -10 13.02 -10 12 C-7.525 12.495 -7.525 12.495 -5 13 C-4.34 12.01 -3.68 11.02 -3 10 C-2.01 10 -1.02 10 0 10 C0 6.7 0 3.4 0 0 Z " fill="#73ACAF" transform="translate(87,116)"/>
<path d="M0 0 C0.33 0 0.66 0 1 0 C2.31626692 3.61973402 3 6.09567131 3 10 C2.34 10 1.68 10 1 10 C0.63826036 12.45743786 0.28531831 14.91558793 -0.0625 17.375 C-0.16626953 18.07367188 -0.27003906 18.77234375 -0.37695312 19.4921875 C-1.05029848 23.35016833 -1.05029848 23.35016833 0 27 C-0.99 26.67 -1.98 26.34 -3 26 C-4.49084832 21.52745503 -4.49084832 17.47254497 -3 13 C-2.34 13 -1.68 13 -1 13 C-1.01160156 12.22914062 -1.02320313 11.45828125 -1.03515625 10.6640625 C-1.04869141 9.15972656 -1.04869141 9.15972656 -1.0625 7.625 C-1.07410156 6.62726563 -1.08570313 5.62953125 -1.09765625 4.6015625 C-1 2 -1 2 0 0 Z " fill="#72ACB0" transform="translate(29,88)"/>
<path d="M0 0 C0.99 0.33 1.98 0.66 3 1 C9.07851754 1.32909171 15.01123956 1.06466852 21 0 C21 0.99 21 1.98 21 3 C13.87049629 4.90120099 7.36259293 5.22424141 0 5 C0 3.35 0 1.7 0 0 Z " fill="#B1D1D4" transform="translate(115,58)"/>
<path d="M0 0 C0.99 0 1.98 0 3 0 C4.14364008 7.49719609 3.75667376 14.46818582 3 22 C2.67 22 2.34 22 2 22 C2 20.35 2 18.7 2 17 C1.34 17 0.68 17 0 17 C0 11.39 0 5.78 0 0 Z " fill="#BED8DB" transform="translate(154,65)"/>
<path d="M0 0 C1.32 0 2.64 0 4 0 C4 0.66 4 1.32 4 2 C3.01 2.495 3.01 2.495 2 3 C3.65 3.33 5.3 3.66 7 4 C7 5.32 7 6.64 7 8 C3.52674819 9.1577506 0.63932552 9.06866652 -3 9 C-2.25 2.25 -2.25 2.25 0 0 Z " fill="#90BEC2" transform="translate(79,82)"/>
<path d="M0 0 C2.125 0.375 2.125 0.375 4 1 C4 3.31 4 5.62 4 8 C2.56988027 8.86646667 1.13059381 9.71781829 -0.3125 10.5625 C-1.51326172 11.27599609 -1.51326172 11.27599609 -2.73828125 12.00390625 C-5 13 -5 13 -8 12 C-7.01 11.46375 -6.02 10.9275 -5 10.375 C-3.515 9.199375 -3.515 9.199375 -2 8 C-1.66638081 4.91608998 -1.66638081 4.91608998 -2 2 C-1.34 1.34 -0.68 0.68 0 0 Z " fill="#85B6BB" transform="translate(142,74)"/>
<path d="M0 0 C0.66 0 1.32 0 2 0 C4.09230769 4.43076923 4.09230769 4.43076923 3.625 7.3125 C3.41875 7.869375 3.2125 8.42625 3 9 C0.6875 9.625 0.6875 9.625 -2 10 C-2.99 9.34 -3.98 8.68 -5 8 C-5 7.34 -5 6.68 -5 6 C-4.34 6 -3.68 6 -3 6 C-2.87625 5.38125 -2.7525 4.7625 -2.625 4.125 C-2 2 -2 2 0 0 Z " fill="#267E83" transform="translate(118,110)"/>
<path d="M0 0 C1.98 0 3.96 0 6 0 C6 0.66 6 1.32 6 2 C9.3 1.67 12.6 1.34 16 1 C15.34 2.32 14.68 3.64 14 5 C12.41676312 5.027193 10.83338938 5.04648306 9.25 5.0625 C7.92742187 5.07990234 7.92742187 5.07990234 6.578125 5.09765625 C4.2181162 5.00826198 2.25501476 4.66912821 0 4 C0 2.68 0 1.36 0 0 Z " fill="#EEF5F5" transform="translate(141,108)"/>
<path d="M0 0 C3.93521641 5.90282461 3.12430212 13.13576053 3 20 C2.01 20.33 1.02 20.66 0 21 C-0.70046703 14.30803817 -1.21713223 7.73109922 -1 1 C-0.67 0.67 -0.34 0.34 0 0 Z " fill="#D4E5E6" transform="translate(110,67)"/>
<path d="M0 0 C0.474375 0.639375 0.94875 1.27875 1.4375 1.9375 C5.05420035 4.84850272 8.47204894 4.80649782 13 5 C12.34 6.32 11.68 7.64 11 9 C4.7 9.48461538 4.7 9.48461538 1.5625 7.3125 C-0.25953249 4.61589191 -0.35430394 3.18873549 0 0 Z " fill="#D2E5E6" transform="translate(46,124)"/>
<path d="M0 0 C1.125 3.75 1.125 3.75 0 6 C3.63 6.33 7.26 6.66 11 7 C9 10 9 10 6.875 11 C2.51628932 11 -0.70695395 8.77008092 -4 6 C-4 5.34 -4 4.68 -4 4 C-2.68 3.67 -1.36 3.34 0 3 C0 2.01 0 1.02 0 0 Z " fill="#459093" transform="translate(76,85)"/>
<path d="M0 0 C0.66 0 1.32 0 2 0 C2.12375 0.78375 2.2475 1.5675 2.375 2.375 C2.79117993 5.14057822 2.79117993 5.14057822 5 7 C4.34 7 3.68 7 3 7 C3 7.99 3 8.98 3 10 C1.35 9.67 -0.3 9.34 -2 9 C-1.125 1.125 -1.125 1.125 0 0 Z M6 1 C6.33 1 6.66 1 7 1 C7 3.31 7 5.62 7 8 C6.34 7.34 5.68 6.68 5 6 C5.375 3.375 5.375 3.375 6 1 Z " fill="#3F8C92" transform="translate(45,83)"/>
<path d="M0 0 C1.32 0.33 2.64 0.66 4 1 C4.33 2.32 4.66 3.64 5 5 C3.02 5 1.04 5 -1 5 C-1 5.66 -1 6.32 -1 7 C-2.32 6.67 -3.64 6.34 -5 6 C-5.33 4.68 -5.66 3.36 -6 2 C-2.25 0.875 -2.25 0.875 0 2 C0 1.34 0 0.68 0 0 Z " fill="#B5D5D7" transform="translate(145,87)"/>
<path d="M0 0 C-1.44077046 3.36179774 -3.24750021 5.59156268 -6 8 C-6.66 8 -7.32 8 -8 8 C-8.66 8.66 -9.32 9.32 -10 10 C-10.49046322 4.60490463 -10.49046322 4.60490463 -8.125 1.6875 C-4.92657993 -0.85242182 -3.85385408 -1.15615622 0 0 Z " fill="#C4DCDE" transform="translate(71,78)"/>
<path d="M0 0 C1.32 0.66 2.64 1.32 4 2 C4 2.66 4 3.32 4 4 C4.99 4 5.98 4 7 4 C7 4.99 7 5.98 7 7 C2.38 7.33 -2.24 7.66 -7 8 C-6.67 7.01 -6.34 6.02 -6 5 C-4.35 4.67 -2.7 4.34 -1 4 C-0.67 2.68 -0.34 1.36 0 0 Z " fill="#ECF4F4" transform="translate(55,95)"/>
<path d="M0 0 C3.84375 1.65625 3.84375 1.65625 5.25 4.75 C5.99129181 7.9622645 6.15632757 10.71712109 6 14 C3.26722779 11.82779645 1.27111085 10.14172035 0.4453125 6.6640625 C0.21349978 4.43725548 0.05362988 2.23782882 0 0 Z " fill="#BEDADB" transform="translate(118,101)"/>
<path d="M0 0 C1.65 0.33 3.3 0.66 5 1 C5.33 2.65 5.66 4.3 6 6 C3.69 6.33 1.38 6.66 -1 7 C-1 6.34 -1 5.68 -1 5 C-1.99 5 -2.98 5 -4 5 C-4 4.34 -4 3.68 -4 3 C-3.01 3 -2.02 3 -1 3 C-0.67 2.01 -0.34 1.02 0 0 Z " fill="#36878C" transform="translate(73,100)"/>
<path d="M0 0 C0.33 0 0.66 0 1 0 C1.99862699 7.36487404 2.10331031 14.57313685 2 22 C2.66 22 3.32 22 4 22 C3.67 22.99 3.34 23.98 3 25 C2.34 25 1.68 25 1 25 C0.67 22.03 0.34 19.06 0 16 C-0.66 16.66 -1.32 17.32 -2 18 C-2.33 16.02 -2.66 14.04 -3 12 C-2.34 12 -1.68 12 -1 12 C-0.67 8.04 -0.34 4.08 0 0 Z " fill="#51969C" transform="translate(125,91)"/>
<path d="M0 0 C0.33 0 0.66 0 1 0 C1.33 5.94 1.66 11.88 2 18 C1.67 16.68 1.34 15.36 1 14 C-0.32 14.33 -1.64 14.66 -3 15 C-2.67 14.34 -2.34 13.68 -2 13 C-3.32 12.67 -4.64 12.34 -6 12 C-4.68 11.67 -3.36 11.34 -2 11 C-2.33 8.36 -2.66 5.72 -3 3 C-2.34 3 -1.68 3 -1 3 C-0.67 2.01 -0.34 1.02 0 0 Z " fill="#33858A" transform="translate(123,72)"/>
<path d="M0 0 C0.66 0.33 1.32 0.66 2 1 C2 1.99 2 2.98 2 4 C-2.455 5.485 -2.455 5.485 -7 7 C-7 7.66 -7 8.32 -7 9 C-9 8 -9 8 -10 5 C-3.375 1.125 -3.375 1.125 0 0 Z " fill="#C1DBDD" transform="translate(79,71)"/>
<path d="M0 0 C1.32 0 2.64 0 4 0 C4 0.99 4 1.98 4 3 C3.01 3.33 2.02 3.66 1 4 C0.67 5.65 0.34 7.3 0 9 C-0.99 9 -1.98 9 -3 9 C-3.12375 8.360625 -3.2475 7.72125 -3.375 7.0625 C-3.684375 6.0415625 -3.684375 6.0415625 -4 5 C-4.66 4.67 -5.32 4.34 -6 4 C-6 3.01 -6 2.02 -6 1 C-5.38125 1.20625 -4.7625 1.4125 -4.125 1.625 C-3.073125 1.810625 -3.073125 1.810625 -2 2 C-1.34 1.34 -0.68 0.68 0 0 Z " fill="#87B8BB" transform="translate(101,111)"/>
<path d="M0 0 C2.97 0 5.94 0 9 0 C9.33 1.65 9.66 3.3 10 5 C6.7 4.67 3.4 4.34 0 4 C0 2.68 0 1.36 0 0 Z " fill="#C5DEDF" transform="translate(48,111)"/>
<path d="M0 0 C0.66 0.33 1.32 0.66 2 1 C1.71848913 2.31471568 1.42446661 3.62675767 1.125 4.9375 C0.96257812 5.66839844 0.80015625 6.39929688 0.6328125 7.15234375 C0 9 0 9 -2 10 C-2 9.34 -2 8.68 -2 8 C-4.31 8 -6.62 8 -9 8 C-9.33 9.32 -9.66 10.64 -10 12 C-10.33 9.69 -10.66 7.38 -11 5 C-10.01 5 -9.02 5 -8 5 C-8 5.66 -8 6.32 -8 7 C-4.535 6.505 -4.535 6.505 -1 6 C-1.33 4.35 -1.66 2.7 -2 1 C-1.34 0.67 -0.68 0.34 0 0 Z " fill="#B4D3D5" transform="translate(80,100)"/>
<path d="M0 0 C0.66 0 1.32 0 2 0 C2.16276042 2.01822917 2.32552083 4.03645833 2.48828125 6.0546875 C2.87393036 8.39519216 2.87393036 8.39519216 6 10 C2.81858133 10.46557346 0.74656877 10.50963377 -1.95703125 8.6640625 C-3.6935608 7.15741976 -5.369718 5.62063536 -7 4 C-6.01 4 -5.02 4 -4 4 C-3.34 4.66 -2.68 5.32 -2 6 C-1.34 4.02 -0.68 2.04 0 0 Z " fill="#70ACAF" transform="translate(89,93)"/>
<path d="M0 0 C0.33 0 0.66 0 1 0 C1 6.93 1 13.86 1 21 C-0.32 21.33 -1.64 21.66 -3 22 C-3 17.38 -3 12.76 -3 8 C-2.67 8 -2.34 8 -2 8 C-1.67 11.63 -1.34 15.26 -1 19 C-0.67 12.73 -0.34 6.46 0 0 Z " fill="#6FAAAB" transform="translate(166,98)"/>
<path d="M0 0 C0 0.66 0 1.32 0 2 C-2.97 2.66 -5.94 3.32 -9 4 C-9 4.66 -9 5.32 -9 6 C-11.97 6.66 -14.94 7.32 -18 8 C-18 7.34 -18 6.68 -18 6 C-12.80674256 2.14693803 -6.41724889 0 0 0 Z " fill="#A1C6CE" transform="translate(81,64)"/>
<path d="M0 0 C0.33 0.66 0.66 1.32 1 2 C-0.0625 4.5625 -0.0625 4.5625 -2 7 C-5.1875 7.8125 -5.1875 7.8125 -8 8 C-7.9375 6.25 -7.9375 6.25 -7 4 C-4.75835678 2.40498463 -2.46433357 1.25456982 0 0 Z " fill="#398A8F" transform="translate(71,124)"/>
<path d="M0 0 C0.33 0.66 0.66 1.32 1 2 C2.65 2 4.3 2 6 2 C6 2.33 6 2.66 6 3 C4.35 3 2.7 3 1 3 C1.05220703 3.90492187 1.05220703 3.90492187 1.10546875 4.828125 C1.14607422 6.02695313 1.14607422 6.02695313 1.1875 7.25 C1.22230469 8.03890625 1.25710937 8.8278125 1.29296875 9.640625 C0.93578688 12.51712968 -0.11751718 13.84576769 -2 16 C-2.05402274 13.89611431 -2.09280256 11.79183286 -2.125 9.6875 C-2.14820313 8.51574219 -2.17140625 7.34398438 -2.1953125 6.13671875 C-2 3 -2 3 0 0 Z " fill="#71ABAE" transform="translate(47,113)"/>
<path d="M0 0 C1.32 0 2.64 0 4 0 C3.01 2.97 2.02 5.94 1 9 C0.34 9 -0.32 9 -1 9 C-1.28875 8.360625 -1.5775 7.72125 -1.875 7.0625 C-2.82823451 4.84793921 -2.82823451 4.84793921 -5 4 C-5 3.01 -5 2.02 -5 1 C-2.525 1.495 -2.525 1.495 0 2 C0 1.34 0 0.68 0 0 Z " fill="#81B2B5" transform="translate(144,123)"/>
<path d="M0 0 C0.66 0 1.32 0 2 0 C3.10914408 6.53162622 2.78441153 12.43507888 2 19 C-0.44989101 15.25764681 -0.23086143 11.55774581 -0.125 7.25 C-0.11597656 6.55261719 -0.10695312 5.85523437 -0.09765625 5.13671875 C-0.07419888 3.42433042 -0.03833104 1.71211996 0 0 Z " fill="#DCEAEC" transform="translate(162,72)"/>
<path d="M0 0 C-0.33 0.66 -0.66 1.32 -1 2 C-1.66 2 -2.32 2 -3 2 C-3 2.66 -3 3.32 -3 4 C-3.639375 4.12375 -4.27875 4.2475 -4.9375 4.375 C-5.9584375 4.684375 -5.9584375 4.684375 -7 5 C-7.33 5.66 -7.66 6.32 -8 7 C-9.32 6.34 -10.64 5.68 -12 5 C-11.01 4.67 -10.02 4.34 -9 4 C-9 3.01 -9 2.02 -9 1 C-5.92677456 0.08941469 -3.19902639 -0.08886184 0 0 Z " fill="#EBF1F3" transform="translate(118,124)"/>
<path d="M0 0 C0.33 0 0.66 0 1 0 C1.33 2.31 1.66 4.62 2 7 C3.32 6.67 4.64 6.34 6 6 C6.33 7.65 6.66 9.3 7 11 C4.69 11 2.38 11 0 11 C0 7.37 0 3.74 0 0 Z " fill="#90BFC1" transform="translate(100,90)"/>
<path d="M0 0 C2.14331139 2.14331139 2.514193 3.14086424 3.25 6 C3.44078125 6.70125 3.6315625 7.4025 3.828125 8.125 C3.88484375 8.74375 3.9415625 9.3625 4 10 C3.34 10.66 2.68 11.32 2 12 C1.01 12 0.02 12 -1 12 C-1.08159574 7.83861737 -0.98248524 4.0527516 0 0 Z " fill="#4A9499" transform="translate(113,72)"/>
<path d="M0 0 C2.475 0.495 2.475 0.495 5 1 C5.125 3.375 5.125 3.375 5 6 C4.34 6.66 3.68 7.32 3 8 C2.01 8 1.02 8 0 8 C0 5.36 0 2.72 0 0 Z " fill="#96C1C4" transform="translate(144,63)"/>
<path d="M0 0 C2.64 0 5.28 0 8 0 C7.34 1.32 6.68 2.64 6 4 C7.65 4 9.3 4 11 4 C11 4.99 11 5.98 11 7 C9.68 6.34 8.36 5.68 7 5 C7 5.99 7 6.98 7 8 C6.34 8 5.68 8 5 8 C4.731875 7.236875 4.46375 6.47375 4.1875 5.6875 C3.05575888 3.12619116 2.08776599 1.80307062 0 0 Z " fill="#4B9499" transform="translate(88,107)"/>
<path d="M0 0 C2.31 0.66 4.62 1.32 7 2 C7 3.32 7 4.64 7 6 C5.0085944 6.38133299 3.00720923 6.71325582 1 7 C0 6 0 6 -0.0625 2.9375 C-0.041875 1.968125 -0.02125 0.99875 0 0 Z " fill="#E8F1F3" transform="translate(133,109)"/>
<path d="M0 0 C0.33 0 0.66 0 1 0 C1.33 3.3 1.66 6.6 2 10 C2.66 10 3.32 10 4 10 C4.36923077 16.52307692 4.36923077 16.52307692 2.5 18.9375 C2.005 19.288125 1.51 19.63875 1 20 C1 17.36 1 14.72 1 12 C0.34 12 -0.32 12 -1 12 C-0.67 8.04 -0.34 4.08 0 0 Z " fill="#9EC5C6" transform="translate(109,77)"/>
<path d="M0 0 C0.66 0 1.32 0 2 0 C2 2.97 2 5.94 2 9 C0.68 9.33 -0.64 9.66 -2 10 C-2.1953125 3.9453125 -2.1953125 3.9453125 -2 2 C-1.34 1.34 -0.68 0.68 0 0 Z " fill="#67A4AA" transform="translate(105,56)"/>
<path d="M0 0 C0.99 0 1.98 0 3 0 C2.67 0.99 2.34 1.98 2 3 C1.34 3 0.68 3 0 3 C0 4.65 0 6.3 0 8 C-0.66 8 -1.32 8 -2 8 C-2.33 6.68 -2.66 5.36 -3 4 C-3.99 4 -4.98 4 -6 4 C-6 3.01 -6 2.02 -6 1 C-3.525 1.495 -3.525 1.495 -1 2 C-0.67 1.34 -0.34 0.68 0 0 Z " fill="#A6CBCE" transform="translate(83,127)"/>
<path d="M0 0 C-0.33 1.32 -0.66 2.64 -1 4 C-4.3 4.66 -7.6 5.32 -11 6 C-11 5.34 -11 4.68 -11 4 C-9.73308493 3.32591692 -8.46129251 2.66099503 -7.1875 2 C-6.47980469 1.62875 -5.77210937 1.2575 -5.04296875 0.875 C-3 0 -3 0 0 0 Z " fill="#84B7BB" transform="translate(72,130)"/>
<path d="M0 0 C0.66 0 1.32 0 2 0 C2 1.65 2 3.3 2 5 C2.66 5 3.32 5 4 5 C3.67 6.32 3.34 7.64 3 9 C1.68 8.67 0.36 8.34 -1 8 C-1.04241723 5.66705225 -1.04092937 3.33297433 -1 1 C-0.67 0.67 -0.34 0.34 0 0 Z " fill="#69A8AD" transform="translate(155,117)"/>
<path d="M0 0 C0.66 0.33 1.32 0.66 2 1 C1.34 2.65 0.68 4.3 0 6 C2.64 5.67 5.28 5.34 8 5 C8.33 5.66 8.66 6.32 9 7 C7.37509046 7.02698189 5.75005367 7.04638757 4.125 7.0625 C3.22007813 7.07410156 2.31515625 7.08570312 1.3828125 7.09765625 C-1 7 -1 7 -3 6 C-3 5.34 -3 4.68 -3 4 C-3.66 3.67 -4.32 3.34 -5 3 C-2.625 1.4375 -2.625 1.4375 0 0 Z " fill="#4A9398" transform="translate(48,104)"/>
<path d="M0 0 C0.33 0.66 0.66 1.32 1 2 C0.67 2.66 0.34 3.32 0 4 C0.66 4 1.32 4 2 4 C2 3.34 2 2.68 2 2 C2.66 2 3.32 2 4 2 C4.33 3.32 4.66 4.64 5 6 C4.21625 6.103125 3.4325 6.20625 2.625 6.3125 C-0.33045181 6.77595022 -0.33045181 6.77595022 -2 10 C-2.25 3.375 -2.25 3.375 0 0 Z " fill="#62A3A6" transform="translate(141,100)"/>
<path d="M0 0 C0.99 0 1.98 0 3 0 C5.49977543 3.33303391 6 4.73303602 6 9 C5.01 8.67 4.02 8.34 3 8 C3 7.01 3 6.02 3 5 C1.68 4.67 0.36 4.34 -1 4 C-0.67 2.68 -0.34 1.36 0 0 Z " fill="#92BDC2" transform="translate(55,59)"/>
<path d="M0 0 C0.99 0 1.98 0 3 0 C3 3.3 3 6.6 3 10 C2.34 9.67 1.68 9.34 1 9 C0.34 9.66 -0.32 10.32 -1 11 C-1.14285714 3.57142857 -1.14285714 3.57142857 0 0 Z " fill="#53989B" transform="translate(87,111)"/>
<path d="M0 0 C2.31 0 4.62 0 7 0 C6.67 0.99 6.34 1.98 6 3 C3.9375 3.6875 3.9375 3.6875 2 4 C1.67 5.32 1.34 6.64 1 8 C0 7 0 7 -0.0625 3.4375 C-0.041875 2.303125 -0.02125 1.16875 0 0 Z " fill="#E3EFEF" transform="translate(71,108)"/>
<path d="M0 0 C-0.33 0.99 -0.66 1.98 -1 3 C-1.66 3 -2.32 3 -3 3 C-3 3.66 -3 4.32 -3 5 C-4.32 5.33 -5.64 5.66 -7 6 C-7 5.01 -7 4.02 -7 3 C-7.99 2.67 -8.98 2.34 -10 2 C-6.38026598 0.68373308 -3.90432869 0 0 0 Z " fill="#DDECEC" transform="translate(128,129)"/>
<path d="M0 0 C1.890625 0.2578125 1.890625 0.2578125 4 1 C5.046875 2.7421875 5.046875 2.7421875 5.75 4.875 C6.11351562 5.92300781 6.11351562 5.92300781 6.484375 6.9921875 C7 9 7 9 7 12 C5.68 12.33 4.36 12.66 3 13 C3.061875 11.741875 3.12375 10.48375 3.1875 9.1875 C3.2600349 5.86656162 3.2600349 5.86656162 1.5 3.125 C1.005 2.75375 0.51 2.3825 0 2 C0 1.34 0 0.68 0 0 Z " fill="#C5DDE1" transform="translate(34,71)"/>
<path d="M0 0 C0 1.65 0 3.3 0 5 C-1.32 5.33 -2.64 5.66 -4 6 C-4.99 4.35 -5.98 2.7 -7 1 C-3.375 -1.125 -3.375 -1.125 0 0 Z " fill="#247E83" transform="translate(132,63)"/>
<path d="M0 0 C0.99 0.33 1.98 0.66 3 1 C3.33 2.98 3.66 4.96 4 7 C2.68 7.33 1.36 7.66 0 8 C-0.98120464 4.94736336 -0.98120464 3.05263664 0 0 Z " fill="#9DC4C8" transform="translate(86,58)"/>
<path d="M0 0 C0.33 0 0.66 0 1 0 C1 1.98 1 3.96 1 6 C2.65 6 4.3 6 6 6 C5.33333333 8 4.66666667 10 4 12 C2.68 11.67 1.36 11.34 0 11 C0 7.37 0 3.74 0 0 Z " fill="#67A3AA" transform="translate(129,101)"/>
<path d="M0 0 C0.99 0 1.98 0 3 0 C3 2.31 3 4.62 3 7 C1.68 6.67 0.36 6.34 -1 6 C-1.625 4.125 -1.625 4.125 -2 2 C-1.34 1.34 -0.68 0.68 0 0 Z " fill="#A4C9CC" transform="translate(142,74)"/>
<path d="M0 0 C0 0.99 0 1.98 0 3 C-5.57710648 4.06795656 -10.39436958 3.82622671 -16 3 C-16 2.67 -16 2.34 -16 2 C-15.06027344 1.90912109 -15.06027344 1.90912109 -14.1015625 1.81640625 C-12.87566406 1.69072266 -12.87566406 1.69072266 -11.625 1.5625 C-10.81289062 1.48128906 -10.00078125 1.40007813 -9.1640625 1.31640625 C-0.13601322 -0.0035793 -0.13601322 -0.0035793 0 0 Z " fill="#99C1C4" transform="translate(136,58)"/>
<path d="M0 0 C1 2 1 2 1 5 C0.34 5.66 -0.32 6.32 -1 7 C-4.125 6.625 -4.125 6.625 -7 6 C-6.67 5.01 -6.34 4.02 -6 3 C-3.5 1.875 -3.5 1.875 -1 1 C-0.67 0.67 -0.34 0.34 0 0 Z " fill="#4C9599" transform="translate(119,125)"/>
<path d="M0 0 C1.65 0.33 3.3 0.66 5 1 C5 2.32 5 3.64 5 5 C3.02 5.66 1.04 6.32 -1 7 C-1 6.34 -1 5.68 -1 5 C-1.66 4.67 -2.32 4.34 -3 4 C-1.02 4 0.96 4 3 4 C3 3.01 3 2.02 3 1 C2.01 0.67 1.02 0.34 0 0 Z " fill="#52989C" transform="translate(133,57)"/>
<path d="M0 0 C-0.825 0.61875 -1.65 1.2375 -2.5 1.875 C-3.7375 2.926875 -3.7375 2.926875 -5 4 C-5 4.66 -5 5.32 -5 6 C-6.32 6 -7.64 6 -9 6 C-8.75 3.625 -8.75 3.625 -8 1 C-5.12800349 -1.17875597 -3.33791789 -1.19211353 0 0 Z " fill="#3F8D92" transform="translate(140,83)"/>
<path d="M0 0 C0.99 0.99 1.98 1.98 3 3 C3.66 2.01 4.32 1.02 5 0 C5 2.97 5 5.94 5 9 C2 9 2 9 0 8 C0.2784375 7.13375 0.2784375 7.13375 0.5625 6.25 C1.04023546 3.79307475 0.75729364 2.35602466 0 0 Z " fill="#95C0C3" transform="translate(120,111)"/>
<path d="M0 0 C1.65 0.33 3.3 0.66 5 1 C4.67 2.32 4.34 3.64 4 5 C3.01 4.67 2.02 4.34 1 4 C0.67 4.66 0.34 5.32 0 6 C-0.66 6 -1.32 6 -2 6 C-1.34 4.02 -0.68 2.04 0 0 Z " fill="#DAE7EA" transform="translate(143,98)"/>
<path d="M0 0 C0.99 0.33 1.98 0.66 3 1 C2.67 3.64 2.34 6.28 2 9 C0.02 7.68 -1.96 6.36 -4 5 C-3.34 4.360625 -2.68 3.72125 -2 3.0625 C0.11602431 1.35917681 0.11602431 1.35917681 0 0 Z " fill="#227D81" transform="translate(86,91)"/>
<path d="M0 0 C0.33 0 0.66 0 1 0 C1.33 2.64 1.66 5.28 2 8 C0.68 8 -0.64 8 -2 8 C-2.125 5.125 -2.125 5.125 -2 2 C-1.34 1.34 -0.68 0.68 0 0 Z " fill="#70ABB2" transform="translate(38,117)"/>
<path d="M0 0 C0.66 0 1.32 0 2 0 C2 1.32 2 2.64 2 4 C2.66 4 3.32 4 4 4 C4 4.99 4 5.98 4 7 C2.35 6.67 0.7 6.34 -1 6 C-0.67 4.02 -0.34 2.04 0 0 Z " fill="#75AFB2" transform="translate(44,86)"/>
<path d="M0 0 C0.99 0 1.98 0 3 0 C3 2.31 3 4.62 3 7 C1.68 6.67 0.36 6.34 -1 6 C-0.67 4.02 -0.34 2.04 0 0 Z " fill="#B6D3D6" transform="translate(117,75)"/>
<path d="M0 0 C0.33 0.99 0.66 1.98 1 3 C1.99 3 2.98 3 4 3 C4 4.32 4 5.64 4 7 C2.35 6.67 0.7 6.34 -1 6 C-1.042721 4.33388095 -1.04063832 2.66617115 -1 1 C-0.67 0.67 -0.34 0.34 0 0 Z " fill="#73AFB2" transform="translate(134,72)"/>
<path d="M0 0 C0.33 0 0.66 0 1 0 C1.33 2.64 1.66 5.28 2 8 C0.68 8 -0.64 8 -2 8 C-1.125 1.125 -1.125 1.125 0 0 Z " fill="#78B0B4" transform="translate(52,69)"/>
<path d="M0 0 C0 0.66 0 1.32 0 2 C-0.99 2.495 -0.99 2.495 -2 3 C-1.01 3.66 -0.02 4.32 1 5 C-0.65 5 -2.3 5 -4 5 C-4 4.34 -4 3.68 -4 3 C-6.97 3 -9.94 3 -13 3 C-13 2.67 -13 2.34 -13 2 C-12.06027344 1.90912109 -12.06027344 1.90912109 -11.1015625 1.81640625 C-9.87566406 1.69072266 -9.87566406 1.69072266 -8.625 1.5625 C-7.81289062 1.48128906 -7.00078125 1.40007812 -6.1640625 1.31640625 C-3.85304959 0.97851447 -2.33455672 0 0 0 Z " fill="#D0E4E5" transform="translate(109,126)"/>
<path d="M0 0 C0.763125 0.61875 1.52625 1.2375 2.3125 1.875 C4.99625809 4.05597052 4.99625809 4.05597052 8 6 C7.01 6 6.02 6 5 6 C5 6.66 5 7.32 5 8 C4.34 8 3.68 8 3 8 C0.95830515 5.09451118 0 3.59857954 0 0 Z " fill="#D3E6E8" transform="translate(88,122)"/>
<path d="M0 0 C0.66 0 1.32 0 2 0 C1.67 1.98 1.34 3.96 1 6 C1.66 6 2.32 6 3 6 C3 6.99 3 7.98 3 9 C1.68 8.67 0.36 8.34 -1 8 C-1.125 2.25 -1.125 2.25 0 0 Z " fill="#77ADB2" transform="translate(80,113)"/>
<path d="M0 0 C0.99 0.33 1.98 0.66 3 1 C2.1875 2.9375 2.1875 2.9375 1 5 C0.01 5.33 -0.98 5.66 -2 6 C-2.33 6.99 -2.66 7.98 -3 9 C-3.66 8.34 -4.32 7.68 -5 7 C-4.0409375 6.1028125 -4.0409375 6.1028125 -3.0625 5.1875 C-0.79689611 3.09189663 -0.79689611 3.09189663 0 0 Z " fill="#308389" transform="translate(85,105)"/>
<path d="M0 0 C0.66 0.33 1.32 0.66 2 1 C1.67 2.65 1.34 4.3 1 6 C-2.63 5.67 -6.26 5.34 -10 5 C-10 4.67 -10 4.34 -10 4 C-6.7 4 -3.4 4 0 4 C0 2.68 0 1.36 0 0 Z " fill="#479294" transform="translate(63,99)"/>
<path d="M0 0 C0.66 0 1.32 0 2 0 C2.33 2.97 2.66 5.94 3 9 C2.01 9.495 2.01 9.495 1 10 C-0.1577506 6.52674819 -0.06866652 3.63932552 0 0 Z " fill="#CAE0E3" transform="translate(52,84)"/>
<path d="M0 0 C1.15941038 3.47823115 0.70820884 5.45895578 0 9 C0.66 9.33 1.32 9.66 2 10 C0.35 10.33 -1.3 10.66 -3 11 C-2.44894091 7.0507432 -1.61064629 3.65079826 0 0 Z " fill="#70AAAF" transform="translate(111,115)"/>
<path d="M0 0 C0.66 0.33 1.32 0.66 2 1 C1.67 3.64 1.34 6.28 1 9 C0.01 9 -0.98 9 -2 9 C-2 8.34 -2 7.68 -2 7 C-2.66 6.67 -3.32 6.34 -4 6 C-2.68 5.34 -1.36 4.68 0 4 C0 2.68 0 1.36 0 0 Z " fill="#91BFC2" transform="translate(71,115)"/>
<path d="M0 0 C0 0.66 0 1.32 0 2 C-5.47619048 7 -5.47619048 7 -8 7 C-6.13932792 2.84926997 -4.83061881 0 0 0 Z " fill="#E4EFF1" transform="translate(46,104)"/>
<path d="M0 0 C2 2 2 2 2 5 C0.02 5.33 -1.96 5.66 -4 6 C-4.33 4.68 -4.66 3.36 -5 2 C-3.35 1.34 -1.7 0.68 0 0 Z " fill="#2C8387" transform="translate(139,77)"/>
<path d="M0 0 C-0.33 0.99 -0.66 1.98 -1 3 C-3.31 3 -5.62 3 -8 3 C-8 2.34 -8 1.68 -8 1 C-5.07175348 0.02391783 -3.04386724 -0.08226668 0 0 Z " fill="#F5FAFA" transform="translate(59,129)"/>
<path d="M0 0 C0.33 0 0.66 0 1 0 C1 4.29 1 8.58 1 13 C1.66 13 2.32 13 3 13 C2.67 13.99 2.34 14.98 2 16 C1.34 16 0.68 16 0 16 C0 10.72 0 5.44 0 0 Z " fill="#7FB4B6" transform="translate(126,100)"/>
<path d="M0 0 C1.51953125 1.17578125 1.51953125 1.17578125 3 3 C3.07421875 5.48046875 3.07421875 5.48046875 2.6875 8.1875 C2.56761719 9.08855469 2.44773438 9.98960938 2.32421875 10.91796875 C2.21722656 11.60503906 2.11023438 12.29210937 2 13 C0.21590198 9.93753253 -0.22880021 7.77920727 -0.125 4.25 C-0.10695313 3.45078125 -0.08890625 2.6515625 -0.0703125 1.828125 C-0.04710938 1.22484375 -0.02390625 0.6215625 0 0 Z " fill="#B5D2D4" transform="translate(126,69)"/>
<path d="M0 0 C0 0.99 0 1.98 0 3 C-0.99 3 -1.98 3 -3 3 C-3 4.98 -3 6.96 -3 9 C-4.20628008 6.66785852 -5.1654738 4.50357861 -6 2 C-3 0 -3 0 0 0 Z " fill="#83B7BB" transform="translate(43,69)"/>
<path d="M0 0 C0.66 0.33 1.32 0.66 2 1 C2 2.65 2 4.3 2 6 C3.32 6.33 4.64 6.66 6 7 C3.36 7.66 0.72 8.32 -2 9 C-2.33 8.34 -2.66 7.68 -3 7 C-2.01 6.67 -1.02 6.34 0 6 C0 4.02 0 2.04 0 0 Z " fill="#54999B" transform="translate(89,59)"/>
<path d="M0 0 C1.4606285 2.64738916 2 3.89448334 2 7 C-0.475 6.01 -0.475 6.01 -3 5 C-3 4.01 -3 3.02 -3 2 C-2.01 2 -1.02 2 0 2 C0 1.34 0 0.68 0 0 Z " fill="#398A90" transform="translate(90,53)"/>
<path d="M0 0 C-1.65 1.32 -3.3 2.64 -5 4 C-6.32 3.34 -7.64 2.68 -9 2 C-9 1.34 -9 0.68 -9 0 C-3.375 -1.125 -3.375 -1.125 0 0 Z " fill="#418D8E" transform="translate(86,126)"/>
<path d="M0 0 C0.99 0 1.98 0 3 0 C3 0.66 3 1.32 3 2 C4.32 1.67 5.64 1.34 7 1 C5.60804085 3.7839183 3.84424221 3.97898997 1 5 C1 4.34 1 3.68 1 3 C0.01 2.67 -0.98 2.34 -2 2 C-1.34 1.34 -0.68 0.68 0 0 Z " fill="#C3DEDD" transform="translate(45,101)"/>
<path d="M0 0 C0.99 0.33 1.98 0.66 3 1 C2.34 1 1.68 1 1 1 C0.67 3.31 0.34 5.62 0 8 C-2 6 -2 6 -2.125 3.375 C-2.08375 2.59125 -2.0425 1.8075 -2 1 C-1.34 0.67 -0.68 0.34 0 0 Z " fill="#8AB8BA" transform="translate(136,115)"/>
<path d="M0 0 C0.33 0.66 0.66 1.32 1 2 C2.32 1.67 3.64 1.34 5 1 C4.34 2.32 3.68 3.64 3 5 C2.34 5 1.68 5 1 5 C0.34 5.66 -0.32 6.32 -1 7 C-1.04254356 5.00045254 -1.04080783 2.99958364 -1 1 C-0.67 0.67 -0.34 0.34 0 0 Z " fill="#85B7B8" transform="translate(62,81)"/>
<path d="M0 0 C0 1.65 0 3.3 0 5 C-0.99 5.33 -1.98 5.66 -3 6 C-3 5.34 -3 4.68 -3 4 C-3.66 3.67 -4.32 3.34 -5 3 C-2.25 0 -2.25 0 0 0 Z " fill="#C4DDDC" transform="translate(62,125)"/>
<path d="M0 0 C0.33 0 0.66 0 1 0 C1.33 2.64 1.66 5.28 2 8 C1.01 8 0.02 8 -1 8 C-1.125 2.25 -1.125 2.25 0 0 Z " fill="#83B9BA" transform="translate(29,88)"/>
<path d="M0 0 C2 2 2 2 2.125 5.125 C2.08375 6.07375 2.0425 7.0225 2 8 C1.34 6.68 0.68 5.36 0 4 C-0.99 4.66 -1.98 5.32 -3 6 C-2.42655063 3.13275314 -2.1385485 2.1385485 0 0 Z " fill="#9CC5C8" transform="translate(95,73)"/>
<path d="M0 0 C0.556875 0.391875 1.11375 0.78375 1.6875 1.1875 C-1.27937001 2.83576111 -3.96876525 3.63021087 -7.3125 4.1875 C-7.3125 3.5275 -7.3125 2.8675 -7.3125 2.1875 C-3.09973404 -1.08909574 -3.09973404 -1.08909574 0 0 Z " fill="#93BFC4" transform="translate(70.3125,67.8125)"/>
<path d="M0 0 C0.99 0 1.98 0 3 0 C3.33 1.32 3.66 2.64 4 4 C1.69 4 -0.62 4 -3 4 C-1.6875 2 -1.6875 2 0 0 Z " fill="#39868A" transform="translate(107,63)"/>
<path d="M0 0 C0.33 0.99 0.66 1.98 1 3 C-2 4 -2 4 -4.1875 3.0625 C-4.785625 2.711875 -5.38375 2.36125 -6 2 C-3 0 -3 0 0 0 Z " fill="#599DA0" transform="translate(63,130)"/>
<path d="M0 0 C1.32 0.33 2.64 0.66 4 1 C4.33 2.98 4.66 4.96 5 7 C2.5 5.1875 2.5 5.1875 0 3 C0 2.01 0 1.02 0 0 Z " fill="#BBD7DA" transform="translate(139,124)"/>
<path d="M0 0 C0.99 0 1.98 0 3 0 C3 0.99 3 1.98 3 3 C3.66 3 4.32 3 5 3 C4.67 4.32 4.34 5.64 4 7 C2 5.1875 2 5.1875 0 3 C0 2.01 0 1.02 0 0 Z " fill="#B3D5D7" transform="translate(95,112)"/>
<path d="M0 0 C1.32 0.99 2.64 1.98 4 3 C3 4 3 4 -0.0625 4.0625 C-1.5165625 4.0315625 -1.5165625 4.0315625 -3 4 C-3 3.34 -3 2.68 -3 2 C-2.01 1.34 -1.02 0.68 0 0 Z " fill="#318188" transform="translate(31,107)"/>
<path d="M0 0 C-2.8125 1.5625 -2.8125 1.5625 -6 3 C-6.99 2.67 -7.98 2.34 -9 2 C-5.96271914 -1.03728086 -4.06215635 -1.35405212 0 0 Z " fill="#ECF5F5" transform="translate(88,71)"/>
</svg>
