<?xml version="1.0" standalone="no"?>
<!DOCTYPE svg PUBLIC "-//W3C//DTD SVG 20010904//EN"
 "http://www.w3.org/TR/2001/REC-SVG-20010904/DTD/svg10.dtd">
<svg version="1.0" xmlns="http://www.w3.org/2000/svg"
 width="300.000000pt" height="300.000000pt" viewBox="0 0 300.000000 300.000000"
 preserveAspectRatio="xMidYMid meet">
<metadata>
Created by potrace 1.10, written by Peter Selinger 2001-2011
</metadata>
<g transform="translate(0.000000,300.000000) scale(0.100000,-0.100000)"
fill="#000000" stroke="none">
<path d="M1525 2514 c-145 -50 -255 -96 -255 -106 0 -6 7 -7 18 -3 9 4 82 31
162 60 79 29 146 58 148 64 2 6 2 11 0 10 -1 0 -34 -11 -73 -25z"/>
<path d="M1670 2496 c-127 -38 -501 -205 -613 -273 -64 -39 -80 -64 -91 -145
l-7 -48 76 -72 75 -73 -101 -80 c-134 -105 -185 -135 -232 -135 -101 0 -104
108 -7 237 54 71 50 90 -6 29 -59 -65 -85 -117 -91 -186 -9 -93 41 -160 119
-160 53 0 78 14 229 136 72 57 137 103 143 101 17 -5 128 -142 163 -200 18
-29 33 -65 35 -82 3 -26 -2 -33 -32 -47 -51 -26 -106 -23 -135 7 -14 13 -25
29 -25 35 0 5 -4 10 -9 10 -5 0 -11 -18 -15 -39 -5 -31 0 -52 24 -103 35 -73
38 -110 11 -137 -25 -25 -117 -92 -164 -119 -45 -26 -157 -65 -164 -58 -3 3
-1 19 5 35 16 46 -3 47 -21 2 -16 -38 -17 -39 -53 -31 -60 14 -87 49 -92 120
-4 53 5 115 24 164 3 9 2 16 -4 16 -5 0 -20 -24 -33 -52 -18 -42 -23 -72 -23
-143 -1 -130 26 -178 109 -195 29 -6 30 -7 32 -70 5 -172 90 -262 247 -262
l74 1 4 -60 c7 -99 63 -149 168 -149 94 1 237 72 334 166 55 54 76 101 76 172
0 40 1 41 38 48 20 4 53 15 72 24 32 17 41 17 90 4 72 -19 107 -17 156 5 70
32 114 119 114 228 0 29 -18 160 -41 291 -22 130 -43 255 -47 277 l-5 40 26
-30 c42 -48 34 -6 -22 110 l-48 100 -13 -30 c-19 -46 -17 -68 39 -405 29 -173
53 -348 54 -389 2 -68 0 -75 -24 -93 -29 -22 -95 -34 -132 -24 l-25 6 18 36
c38 74 33 171 -11 215 -18 18 -22 18 -48 5 -33 -18 -76 -71 -98 -123 -11 -27
-14 -54 -9 -95 l6 -57 -31 -6 c-17 -4 -32 -5 -35 -2 -2 2 3 45 11 95 14 83 14
102 0 214 -9 68 -18 133 -21 145 -4 15 0 23 15 28 35 11 76 51 95 93 11 25 30
45 51 55 l33 16 6 -32 c3 -18 8 -67 12 -109 4 -43 10 -78 14 -78 17 0 23 40
24 150 2 108 3 116 24 125 16 7 20 15 15 35 -8 36 -20 45 -38 30 -8 -7 -15
-11 -15 -8 0 2 -11 68 -25 146 -29 164 -29 174 -10 148 7 -10 18 -16 24 -15 9
4 -61 183 -79 202 -9 11 -44 -88 -36 -102 4 -5 22 -106 41 -223 19 -117 37
-222 40 -234 3 -14 -4 -25 -24 -37 -16 -9 -31 -17 -33 -17 -11 0 7 66 21 77
14 11 14 12 -1 13 -14 0 -18 8 -18 33 0 31 -62 426 -77 486 l-6 26 32 -29 c17
-17 31 -26 31 -22 0 4 -14 40 -30 80 l-30 73 25 56 c35 77 41 119 20 140 -22
22 -54 21 -145 -7z m93 -80 c8 -9 12 -26 10 -41 -7 -33 -20 -41 -28 -15 -10
32 -22 24 -39 -26 -11 -34 -13 -51 -5 -66 8 -14 6 -30 -5 -59 -21 -52 -20 -70
2 -41 18 23 19 18 55 -210 21 -128 40 -253 43 -278 l6 -45 -43 -16 c-23 -8
-45 -21 -47 -27 -2 -7 14 -4 43 8 53 23 66 12 43 -37 -12 -27 -83 -71 -95 -60
-3 4 -21 95 -40 204 -18 108 -38 215 -43 237 -11 51 -6 56 21 23 11 -15 25
-27 30 -27 14 0 4 30 -53 150 l-50 105 -24 -54 c-17 -35 -21 -57 -15 -65 5 -6
22 -88 36 -181 15 -94 35 -215 45 -270 10 -55 16 -102 13 -105 -2 -3 -46 40
-96 95 -51 55 -131 140 -179 188 -49 49 -88 91 -88 93 0 2 7 4 16 4 9 0 36
-22 60 -49 51 -57 92 -71 129 -47 42 28 58 131 30 186 -22 42 -76 50 -161 25
-19 -6 -24 0 -39 38 -20 52 -13 73 36 107 32 24 61 28 96 17 19 -7 23 -3 32
28 12 46 6 63 -27 72 -57 14 -152 -73 -172 -157 -6 -27 -9 -68 -5 -92 7 -43 6
-46 -28 -66 l-35 -20 -95 69 c-52 38 -97 75 -100 84 -8 18 32 42 218 131 178
84 339 151 435 180 90 28 95 28 113 10z m-383 -447 c0 -5 -5 -9 -10 -9 -6 0
-15 -10 -21 -23 -10 -23 -12 -23 -44 -8 -28 14 -31 18 -19 31 14 17 94 25 94
9z m-168 -55 c25 5 28 3 23 -13 -6 -20 5 -36 89 -126 31 -33 56 -63 56 -67 0
-4 -9 -12 -19 -18 -17 -9 -26 -2 -64 48 -52 67 -121 132 -141 132 -7 0 -16 8
-19 18 -2 9 -8 25 -12 36 -8 17 -7 17 25 1 20 -11 44 -15 62 -11z m240 -1 c18
-16 15 -33 -5 -33 -22 0 -78 40 -71 51 8 13 53 3 76 -18z m18 -348 c62 -81 92
-110 129 -129 l48 -25 21 -158 c35 -255 38 -303 18 -303 -9 0 -25 13 -34 30
-9 16 -20 30 -23 30 -4 0 -9 -18 -13 -39 -5 -31 0 -52 24 -103 42 -89 40 -108
-17 -156 -115 -96 -232 -152 -314 -152 -85 0 -141 37 -151 100 -4 26 -1 27
108 70 175 67 321 176 343 255 19 69 10 119 -44 249 -7 15 -5 17 13 11 12 -3
22 -2 22 3 0 12 -79 102 -90 102 -4 0 -11 -19 -14 -43 -6 -36 1 -62 39 -162
25 -65 45 -127 45 -137 0 -10 -18 -31 -41 -47 -53 -39 -222 -125 -304 -156
-70 -27 -75 -24 -55 29 16 42 -9 31 -27 -11 -19 -48 -27 -53 -84 -53 -134 0
-219 71 -231 194 l-3 39 54 14 c122 31 286 147 322 228 10 22 19 63 19 91 l0
51 41 7 c53 8 75 20 95 52 33 49 36 145 8 218 -14 36 13 8 96 -99z m213 -78
c24 -20 26 -25 14 -41 -13 -18 -16 -17 -56 10 -39 26 -41 29 -25 41 24 18 34
16 67 -10z m237 -379 c27 -44 22 -68 -18 -91 l-33 -19 -25 23 c-31 29 -30 56
3 91 35 36 49 35 73 -4z m-1082 -64 c-9 -9 -21 -13 -27 -10 -20 13 -11 26 16
26 25 0 26 -1 11 -16z m1085 -104 l22 -22 -35 7 c-19 5 -47 9 -62 9 -26 1 -36
15 -22 29 14 13 77 -2 97 -23z m-770 -211 c-13 -13 -26 -18 -34 -14 -9 6 -7
11 6 22 11 7 26 13 34 13 12 0 11 -5 -6 -21z"/>
<path d="M1624 2296 c-7 -30 2 -47 21 -39 19 7 19 37 0 53 -12 10 -15 7 -21
-14z"/>
<path d="M1199 2103 l-10 -26 -15 21 c-8 12 -19 22 -25 22 -17 0 -9 -29 11
-40 11 -6 20 -17 20 -25 0 -8 5 -15 10 -15 6 0 10 9 10 19 0 28 11 52 21 45 5
-3 9 2 9 10 0 25 -20 18 -31 -11z"/>
<path d="M1706 1829 c-14 -70 -5 -109 21 -88 18 15 17 30 -2 23 -18 -7 -20 15
-6 64 5 17 6 32 2 32 -5 0 -11 -14 -15 -31z"/>
<path d="M1547 1764 c-4 -4 -7 -16 -7 -26 0 -24 -14 -23 -32 4 -8 12 -19 18
-26 14 -15 -9 -4 -36 14 -36 8 0 20 -12 26 -27 l11 -28 9 43 c7 33 13 42 25
38 9 -4 13 -1 11 6 -5 14 -22 21 -31 12z"/>
<path d="M1485 1420 c-7 -23 1 -40 20 -40 18 0 28 30 14 46 -16 19 -27 17 -34
-6z"/>
<path d="M1360 1289 c-9 -15 -8 -24 1 -35 15 -18 10 -23 -65 -68 -33 -20 -54
-36 -48 -36 22 0 86 37 111 64 14 14 31 26 39 26 9 0 12 6 8 16 -3 9 -6 24 -6
35 0 25 -26 24 -40 -2z"/>
<path d="M1038 1039 c-43 -17 -78 -35 -78 -41 0 -6 7 -7 18 -3 9 5 47 19 85
33 37 13 67 29 67 33 0 13 -6 11 -92 -22z"/>
<path d="M1193 1031 l-23 -39 46 -26 c26 -14 48 -26 50 -26 2 0 13 18 24 40
l20 39 -43 26 c-24 14 -46 25 -48 25 -2 0 -14 -18 -26 -39z"/>
<path d="M1316 698 c-3 -13 -6 -40 -6 -61 0 -31 3 -38 17 -35 9 2 18 9 21 16
2 8 -2 10 -13 5 -15 -5 -17 0 -10 45 7 53 2 70 -9 30z"/>
<path d="M926 1934 c-4 -9 -2 -22 4 -29 8 -10 -3 -22 -47 -49 -31 -20 -50 -36
-41 -36 9 0 37 16 62 35 26 19 51 35 57 35 6 0 8 7 5 16 -3 9 -6 22 -6 30 0
19 -26 18 -34 -2z"/>
<path d="M1152 1685 c-13 -28 -28 -31 -56 -10 -29 22 -44 18 -61 -14 -15 -29
-14 -30 22 -52 l36 -22 19 27 20 26 33 -20 c18 -11 35 -20 38 -20 6 0 37 54
37 64 0 4 -67 46 -74 46 -2 0 -8 -11 -14 -25z"/>
<path d="M2166 1595 c-10 -24 -15 -53 -12 -62 12 -38 95 -553 102 -630 7 -89
18 -105 31 -45 15 71 6 217 -26 406 -29 168 -34 231 -15 182 3 -9 12 -16 19
-16 10 0 8 15 -10 58 -30 74 -65 152 -69 152 -2 0 -11 -20 -20 -45z"/>
<path d="M1006 1515 c-3 -9 -6 -26 -6 -38 0 -21 -1 -20 -17 3 -22 33 -36 41
-47 30 -5 -5 3 -21 22 -39 18 -16 32 -34 32 -40 0 -6 5 -11 10 -11 6 0 10 13
10 29 0 42 9 61 27 54 11 -4 14 -2 11 8 -7 20 -34 23 -42 4z"/>
<path d="M846 1393 c-12 -43 -16 -89 -7 -102 9 -14 31 -7 31 10 0 6 -5 7 -12
3 -8 -5 -10 8 -5 49 6 57 3 73 -7 40z"/>
<path d="M1757 1403 c-4 -3 -7 -19 -7 -35 0 -28 0 -28 30 -13 34 17 40 30 11
20 -11 -3 -22 -1 -26 5 -3 5 1 10 9 10 9 0 16 5 16 10 0 11 -23 14 -33 3z"/>
<path d="M1960 1362 c0 -5 -6 -17 -14 -27 -13 -18 -14 -18 -49 3 l-35 22 -20
-32 c-11 -18 -19 -35 -17 -38 10 -15 79 -44 82 -34 2 6 10 19 17 29 13 18 14
17 44 -3 40 -29 45 -28 64 11 l16 33 -39 22 c-41 24 -49 26 -49 14z"/>
<path d="M2306 1194 c-10 -27 -7 -79 7 -99 15 -20 37 -13 37 12 0 12 -3 13
-14 4 -19 -16 -29 16 -20 64 6 36 1 47 -10 19z"/>
<path d="M2044 1083 c-3 -16 -8 -34 -10 -41 -5 -16 13 -52 25 -52 5 0 12 7 15
16 5 12 2 15 -10 10 -15 -6 -16 0 -11 44 7 54 1 68 -9 23z"/>
<path d="M1961 761 c-6 -11 -11 -27 -11 -37 0 -13 -5 -10 -21 10 -11 14 -25
26 -30 26 -17 0 -9 -29 10 -40 11 -5 23 -19 26 -31 9 -27 22 -13 27 26 2 17 8
30 15 30 20 0 24 12 9 24 -12 10 -17 8 -25 -8z"/>
<path d="M1776 718 c-8 -31 -8 -93 1 -101 7 -8 33 11 33 24 0 5 -7 6 -15 3
-18 -7 -20 15 -6 64 5 17 6 32 1 32 -4 0 -10 -10 -14 -22z"/>
<path d="M1056 606 c-4 -17 -3 -33 3 -39 16 -16 20 -5 12 33 l-7 35 -8 -29z"/>
</g>
</svg>
